<svg width="227" height="254" viewBox="0 0 227 254" fill="none" xmlns="http://www.w3.org/2000/svg">
<g filter="url(#filter0_d_4_384)">
<g clip-path="url(#clip0_4_384)">
<rect x="4" y="3" width="219" height="246" rx="6" fill="white"/>
<path d="M66.7969 21.625H68.2578L71.9844 30.8984L75.7031 21.625H77.1719L72.5469 33H71.4062L66.7969 21.625ZM66.3203 21.625H67.6094L67.8203 28.5625V33H66.3203V21.625ZM76.3516 21.625H77.6406V33H76.1406V28.5625L76.3516 21.625ZM85.2422 31.0469V24.5469H86.6953V33H85.3125L85.2422 31.0469ZM85.5156 29.2656L86.1172 29.25C86.1172 29.8125 86.0573 30.3333 85.9375 30.8125C85.8229 31.2865 85.6354 31.6979 85.375 32.0469C85.1146 32.3958 84.7734 32.6693 84.3516 32.8672C83.9297 33.0599 83.4167 33.1562 82.8125 33.1562C82.401 33.1562 82.0234 33.0964 81.6797 32.9766C81.3411 32.8568 81.0495 32.6719 80.8047 32.4219C80.5599 32.1719 80.3698 31.8464 80.2344 31.4453C80.1042 31.0443 80.0391 30.5625 80.0391 30V24.5469H81.4844V30.0156C81.4844 30.3958 81.526 30.7109 81.6094 30.9609C81.6979 31.2057 81.8151 31.401 81.9609 31.5469C82.112 31.6875 82.2786 31.7865 82.4609 31.8438C82.6484 31.901 82.8411 31.9297 83.0391 31.9297C83.6536 31.9297 84.1406 31.8125 84.5 31.5781C84.8594 31.3385 85.1172 31.0182 85.2734 30.6172C85.4349 30.2109 85.5156 29.7604 85.5156 29.2656ZM92.4375 24.5469V25.6562H87.8672V24.5469H92.4375ZM89.4141 22.4922H90.8594V30.9062C90.8594 31.1927 90.9036 31.4089 90.9922 31.5547C91.0807 31.7005 91.1953 31.7969 91.3359 31.8438C91.4766 31.8906 91.6276 31.9141 91.7891 31.9141C91.9089 31.9141 92.0339 31.9036 92.1641 31.8828C92.2995 31.8568 92.401 31.8359 92.4688 31.8203L92.4766 33C92.362 33.0365 92.2109 33.0703 92.0234 33.1016C91.8411 33.138 91.6198 33.1562 91.3594 33.1562C91.0052 33.1562 90.6797 33.0859 90.3828 32.9453C90.0859 32.8047 89.849 32.5703 89.6719 32.2422C89.5 31.9089 89.4141 31.4609 89.4141 30.8984V22.4922ZM97.6406 33.1562C97.0521 33.1562 96.5182 33.0573 96.0391 32.8594C95.5651 32.6562 95.1562 32.3724 94.8125 32.0078C94.474 31.6432 94.2135 31.2109 94.0312 30.7109C93.849 30.2109 93.7578 29.6641 93.7578 29.0703V28.7422C93.7578 28.0547 93.8594 27.4427 94.0625 26.9062C94.2656 26.3646 94.5417 25.9062 94.8906 25.5312C95.2396 25.1562 95.6354 24.8724 96.0781 24.6797C96.5208 24.487 96.9792 24.3906 97.4531 24.3906C98.0573 24.3906 98.5781 24.4948 99.0156 24.7031C99.4583 24.9115 99.8203 25.2031 100.102 25.5781C100.383 25.9479 100.591 26.3854 100.727 26.8906C100.862 27.3906 100.93 27.9375 100.93 28.5312V29.1797H94.6172V28H99.4844V27.8906C99.4635 27.5156 99.3854 27.151 99.25 26.7969C99.1198 26.4427 98.9115 26.151 98.625 25.9219C98.3385 25.6927 97.9479 25.5781 97.4531 25.5781C97.125 25.5781 96.8229 25.6484 96.5469 25.7891C96.2708 25.9245 96.0339 26.1276 95.8359 26.3984C95.638 26.6693 95.4844 27 95.375 27.3906C95.2656 27.7812 95.2109 28.2318 95.2109 28.7422V29.0703C95.2109 29.4714 95.2656 29.849 95.375 30.2031C95.4896 30.5521 95.6536 30.8594 95.8672 31.125C96.0859 31.3906 96.349 31.599 96.6562 31.75C96.9688 31.901 97.3229 31.9766 97.7188 31.9766C98.2292 31.9766 98.6615 31.8724 99.0156 31.6641C99.3698 31.4557 99.6797 31.1771 99.9453 30.8281L100.82 31.5234C100.638 31.7995 100.406 32.0625 100.125 32.3125C99.8438 32.5625 99.4974 32.7656 99.0859 32.9219C98.6797 33.0781 98.1979 33.1562 97.6406 33.1562Z" fill="#222222"/>
<g opacity="0.52">
<path fill-rule="evenodd" clip-rule="evenodd" d="M27.4 25C27.4 21.3549 30.3549 18.4 34 18.4C37.6451 18.4 40.6 21.3549 40.6 25V26C40.6 26.6075 40.1075 27.1 39.5 27.1H28.5C27.8925 27.1 27.4 26.6075 27.4 26V25ZM25.6589 24C26.1533 19.8322 29.6992 16.6 34 16.6C38.3008 16.6 41.8467 19.8322 42.3411 24H42.4V25V26V31.3462L42.4 31.4957V31.4957C42.4005 32.4235 42.4009 33.0908 42.2234 33.6603C41.8421 34.8839 40.8839 35.8421 39.6602 36.2234C39.0907 36.4009 38.4234 36.4005 37.4956 36.4001L37.3461 36.4H30.6538L30.5043 36.4001C29.5765 36.4005 28.9092 36.4009 28.3397 36.2234C27.1161 35.8421 26.1579 34.8839 25.7766 33.6603C25.5991 33.0907 25.5994 32.4234 25.5999 31.4956L25.6 31.3462V26V25V24H25.6589ZM27.4 28.6841V31.3462C27.4 32.487 27.4102 32.8526 27.4951 33.1248C27.7004 33.7837 28.2163 34.2996 28.8752 34.5049C29.1474 34.5897 29.513 34.6 30.6538 34.6H37.3461C38.487 34.6 38.8526 34.5897 39.1247 34.5049C39.7836 34.2996 40.2996 33.7837 40.5049 33.1248C40.5897 32.8526 40.6 32.487 40.6 31.3462V28.6841C40.2608 28.8233 39.8893 28.9 39.5 28.9H28.5C28.1106 28.9 27.7392 28.8233 27.4 28.6841ZM23.5 25.1C23.997 25.1 24.4 25.5029 24.4 26V31C24.4 31.4971 23.997 31.9 23.5 31.9C23.0029 31.9 22.6 31.4971 22.6 31V26C22.6 25.5029 23.0029 25.1 23.5 25.1ZM45.4 26C45.4 25.5029 44.997 25.1 44.5 25.1C44.0029 25.1 43.6 25.5029 43.6 26V31C43.6 31.4971 44.0029 31.9 44.5 31.9C44.997 31.9 45.4 31.4971 45.4 31V26ZM30.5 23.25C30.5 22.8358 30.8358 22.5 31.25 22.5C31.6642 22.5 32 22.8358 32 23.25V24.25C32 24.6642 31.6642 25 31.25 25C30.8358 25 30.5 24.6642 30.5 24.25V23.25ZM36.75 22.5C36.3358 22.5 36 22.8358 36 23.25V24.25C36 24.6642 36.3358 25 36.75 25C37.1642 25 37.5 24.6642 37.5 24.25V23.25C37.5 22.8358 37.1642 22.5 36.75 22.5Z" fill="#222222"/>
</g>
<mask id="path-4-inside-1_4_384" fill="white">
<path d="M4 51H223V57H4V51Z"/>
</mask>
<path d="M4 51H223V57H4V51Z" fill="#F0F0F0"/>
<path d="M4 51.5H223V50.5H4V51.5Z" fill="#D9D9D9" mask="url(#path-4-inside-1_4_384)"/>
<path d="M72.3828 84.125C72.3828 83.8594 72.3411 83.625 72.2578 83.4219C72.1797 83.2135 72.0391 83.026 71.8359 82.8594C71.638 82.6927 71.362 82.5339 71.0078 82.3828C70.6589 82.2318 70.2161 82.0781 69.6797 81.9219C69.1172 81.7552 68.6094 81.5703 68.1562 81.3672C67.7031 81.1589 67.3151 80.9219 66.9922 80.6562C66.6693 80.3906 66.4219 80.0859 66.25 79.7422C66.0781 79.3984 65.9922 79.0052 65.9922 78.5625C65.9922 78.1198 66.0833 77.7109 66.2656 77.3359C66.4479 76.9609 66.7083 76.6354 67.0469 76.3594C67.3906 76.0781 67.7995 75.8594 68.2734 75.7031C68.7474 75.5469 69.276 75.4688 69.8594 75.4688C70.7135 75.4688 71.4375 75.6328 72.0312 75.9609C72.6302 76.2839 73.0859 76.7083 73.3984 77.2344C73.7109 77.7552 73.8672 78.3125 73.8672 78.9062H72.3672C72.3672 78.4792 72.276 78.1016 72.0938 77.7734C71.9115 77.4401 71.6354 77.1797 71.2656 76.9922C70.8958 76.7995 70.4271 76.7031 69.8594 76.7031C69.3229 76.7031 68.8802 76.7839 68.5312 76.9453C68.1823 77.1068 67.9219 77.3255 67.75 77.6016C67.5833 77.8776 67.5 78.1927 67.5 78.5469C67.5 78.7865 67.5495 79.0052 67.6484 79.2031C67.7526 79.3958 67.9115 79.5755 68.125 79.7422C68.3438 79.9089 68.6198 80.0625 68.9531 80.2031C69.2917 80.3438 69.6953 80.4792 70.1641 80.6094C70.8099 80.7917 71.3672 80.9948 71.8359 81.2188C72.3047 81.4427 72.6901 81.6953 72.9922 81.9766C73.2995 82.2526 73.526 82.5677 73.6719 82.9219C73.8229 83.2708 73.8984 83.6667 73.8984 84.1094C73.8984 84.5729 73.8047 84.9922 73.6172 85.3672C73.4297 85.7422 73.1615 86.0625 72.8125 86.3281C72.4635 86.5938 72.0443 86.7995 71.5547 86.9453C71.0703 87.0859 70.5286 87.1562 69.9297 87.1562C69.4036 87.1562 68.8854 87.0833 68.375 86.9375C67.8698 86.7917 67.4089 86.5729 66.9922 86.2812C66.5807 85.9896 66.25 85.6302 66 85.2031C65.7552 84.7708 65.6328 84.2708 65.6328 83.7031H67.1328C67.1328 84.0938 67.2083 84.4297 67.3594 84.7109C67.5104 84.987 67.7161 85.2161 67.9766 85.3984C68.2422 85.5807 68.5417 85.7161 68.875 85.8047C69.2135 85.888 69.5651 85.9297 69.9297 85.9297C70.4557 85.9297 70.901 85.8568 71.2656 85.7109C71.6302 85.5651 71.9062 85.3568 72.0938 85.0859C72.2865 84.8151 72.3828 84.4948 72.3828 84.125ZM79.1094 87.1562C78.5208 87.1562 77.987 87.0573 77.5078 86.8594C77.0339 86.6562 76.625 86.3724 76.2812 86.0078C75.9427 85.6432 75.6823 85.2109 75.5 84.7109C75.3177 84.2109 75.2266 83.6641 75.2266 83.0703V82.7422C75.2266 82.0547 75.3281 81.4427 75.5312 80.9062C75.7344 80.3646 76.0104 79.9062 76.3594 79.5312C76.7083 79.1562 77.1042 78.8724 77.5469 78.6797C77.9896 78.487 78.4479 78.3906 78.9219 78.3906C79.526 78.3906 80.0469 78.4948 80.4844 78.7031C80.9271 78.9115 81.2891 79.2031 81.5703 79.5781C81.8516 79.9479 82.0599 80.3854 82.1953 80.8906C82.3307 81.3906 82.3984 81.9375 82.3984 82.5312V83.1797H76.0859V82H80.9531V81.8906C80.9323 81.5156 80.8542 81.151 80.7188 80.7969C80.5885 80.4427 80.3802 80.151 80.0938 79.9219C79.8073 79.6927 79.4167 79.5781 78.9219 79.5781C78.5938 79.5781 78.2917 79.6484 78.0156 79.7891C77.7396 79.9245 77.5026 80.1276 77.3047 80.3984C77.1068 80.6693 76.9531 81 76.8438 81.3906C76.7344 81.7812 76.6797 82.2318 76.6797 82.7422V83.0703C76.6797 83.4714 76.7344 83.849 76.8438 84.2031C76.9583 84.5521 77.1224 84.8594 77.3359 85.125C77.5547 85.3906 77.8177 85.599 78.125 85.75C78.4375 85.901 78.7917 85.9766 79.1875 85.9766C79.6979 85.9766 80.1302 85.8724 80.4844 85.6641C80.8385 85.4557 81.1484 85.1771 81.4141 84.8281L82.2891 85.5234C82.1068 85.7995 81.875 86.0625 81.5938 86.3125C81.3125 86.5625 80.9661 86.7656 80.5547 86.9219C80.1484 87.0781 79.6667 87.1562 79.1094 87.1562ZM89.0703 85.5547V81.2031C89.0703 80.8698 89.0026 80.5807 88.8672 80.3359C88.737 80.0859 88.5391 79.8932 88.2734 79.7578C88.0078 79.6224 87.6797 79.5547 87.2891 79.5547C86.9245 79.5547 86.6042 79.6172 86.3281 79.7422C86.0573 79.8672 85.8438 80.0312 85.6875 80.2344C85.5365 80.4375 85.4609 80.6562 85.4609 80.8906H84.0156C84.0156 80.5885 84.0938 80.2891 84.25 79.9922C84.4062 79.6953 84.6302 79.4271 84.9219 79.1875C85.2188 78.9427 85.5729 78.75 85.9844 78.6094C86.401 78.4635 86.8646 78.3906 87.375 78.3906C87.9896 78.3906 88.5312 78.4948 89 78.7031C89.474 78.9115 89.8438 79.2266 90.1094 79.6484C90.3802 80.0651 90.5156 80.5885 90.5156 81.2188V85.1562C90.5156 85.4375 90.5391 85.737 90.5859 86.0547C90.638 86.3724 90.7135 86.6458 90.8125 86.875V87H89.3047C89.2318 86.8333 89.1745 86.612 89.1328 86.3359C89.0911 86.0547 89.0703 85.7943 89.0703 85.5547ZM89.3203 81.875L89.3359 82.8906H87.875C87.4635 82.8906 87.0964 82.9245 86.7734 82.9922C86.4505 83.0547 86.1797 83.151 85.9609 83.2812C85.7422 83.4115 85.5755 83.5755 85.4609 83.7734C85.3464 83.9661 85.2891 84.1927 85.2891 84.4531C85.2891 84.7188 85.349 84.9609 85.4688 85.1797C85.5885 85.3984 85.7682 85.5729 86.0078 85.7031C86.2526 85.8281 86.5521 85.8906 86.9062 85.8906C87.349 85.8906 87.7396 85.7969 88.0781 85.6094C88.4167 85.4219 88.6849 85.1927 88.8828 84.9219C89.0859 84.651 89.1953 84.388 89.2109 84.1328L89.8281 84.8281C89.7917 85.0469 89.6927 85.2891 89.5312 85.5547C89.3698 85.8203 89.1536 86.0755 88.8828 86.3203C88.6172 86.5599 88.2995 86.7604 87.9297 86.9219C87.5651 87.0781 87.1536 87.1562 86.6953 87.1562C86.1224 87.1562 85.6198 87.0443 85.1875 86.8203C84.7604 86.5964 84.4271 86.2969 84.1875 85.9219C83.9531 85.5417 83.8359 85.1172 83.8359 84.6484C83.8359 84.1953 83.9245 83.7969 84.1016 83.4531C84.2786 83.1042 84.5339 82.8151 84.8672 82.5859C85.2005 82.3516 85.6016 82.1745 86.0703 82.0547C86.5391 81.9349 87.0625 81.875 87.6406 81.875H89.3203ZM94.2344 79.875V87H92.7891V78.5469H94.1953L94.2344 79.875ZM96.875 78.5L96.8672 79.8438C96.7474 79.8177 96.6328 79.8021 96.5234 79.7969C96.4193 79.7865 96.2995 79.7812 96.1641 79.7812C95.8307 79.7812 95.5365 79.8333 95.2812 79.9375C95.026 80.0417 94.8099 80.1875 94.6328 80.375C94.4557 80.5625 94.3151 80.7865 94.2109 81.0469C94.112 81.3021 94.0469 81.5833 94.0156 81.8906L93.6094 82.125C93.6094 81.6146 93.6589 81.1354 93.7578 80.6875C93.862 80.2396 94.0208 79.8438 94.2344 79.5C94.4479 79.151 94.7188 78.8802 95.0469 78.6875C95.3802 78.4896 95.776 78.3906 96.2344 78.3906C96.3385 78.3906 96.4583 78.4036 96.5938 78.4297C96.7292 78.4505 96.8229 78.474 96.875 78.5ZM101.438 85.9688C101.781 85.9688 102.099 85.8984 102.391 85.7578C102.682 85.6172 102.922 85.4245 103.109 85.1797C103.297 84.9297 103.404 84.6458 103.43 84.3281H104.805C104.779 84.8281 104.609 85.2943 104.297 85.7266C103.99 86.1536 103.586 86.5 103.086 86.7656C102.586 87.026 102.036 87.1562 101.438 87.1562C100.802 87.1562 100.247 87.0443 99.7734 86.8203C99.3047 86.5964 98.9141 86.2891 98.6016 85.8984C98.2943 85.5078 98.0625 85.0599 97.9062 84.5547C97.7552 84.0443 97.6797 83.5052 97.6797 82.9375V82.6094C97.6797 82.0417 97.7552 81.5052 97.9062 81C98.0625 80.4896 98.2943 80.0391 98.6016 79.6484C98.9141 79.2578 99.3047 78.9505 99.7734 78.7266C100.247 78.5026 100.802 78.3906 101.438 78.3906C102.099 78.3906 102.677 78.526 103.172 78.7969C103.667 79.0625 104.055 79.4271 104.336 79.8906C104.622 80.349 104.779 80.8698 104.805 81.4531H103.43C103.404 81.1042 103.305 80.7891 103.133 80.5078C102.966 80.2266 102.737 80.0026 102.445 79.8359C102.159 79.6641 101.823 79.5781 101.438 79.5781C100.995 79.5781 100.622 79.6667 100.32 79.8438C100.023 80.0156 99.7865 80.25 99.6094 80.5469C99.4375 80.8385 99.3125 81.1641 99.2344 81.5234C99.1615 81.8776 99.125 82.2396 99.125 82.6094V82.9375C99.125 83.3073 99.1615 83.6719 99.2344 84.0312C99.3073 84.3906 99.4297 84.7161 99.6016 85.0078C99.7786 85.2995 100.016 85.5339 100.312 85.7109C100.615 85.8828 100.99 85.9688 101.438 85.9688ZM107.875 75V87H106.43V75H107.875ZM107.531 82.4531L106.93 82.4297C106.935 81.8516 107.021 81.3177 107.188 80.8281C107.354 80.3333 107.589 79.9036 107.891 79.5391C108.193 79.1745 108.552 78.8932 108.969 78.6953C109.391 78.4922 109.857 78.3906 110.367 78.3906C110.784 78.3906 111.159 78.4479 111.492 78.5625C111.826 78.6719 112.109 78.849 112.344 79.0938C112.583 79.3385 112.766 79.6562 112.891 80.0469C113.016 80.4323 113.078 80.9036 113.078 81.4609V87H111.625V81.4453C111.625 81.0026 111.56 80.6484 111.43 80.3828C111.299 80.112 111.109 79.9167 110.859 79.7969C110.609 79.6719 110.302 79.6094 109.938 79.6094C109.578 79.6094 109.25 79.6849 108.953 79.8359C108.661 79.987 108.409 80.1953 108.195 80.4609C107.987 80.7266 107.823 81.0312 107.703 81.375C107.589 81.7135 107.531 82.0729 107.531 82.4531Z" fill="#222222"/>
<g opacity="0.52">
<path fill-rule="evenodd" clip-rule="evenodd" d="M27.4 79C27.4 75.3549 30.3549 72.4 34 72.4C37.6451 72.4 40.6 75.3549 40.6 79V80C40.6 80.6075 40.1075 81.1 39.5 81.1H28.5C27.8925 81.1 27.4 80.6075 27.4 80V79ZM25.6589 78C26.1533 73.8322 29.6992 70.6 34 70.6C38.3008 70.6 41.8467 73.8322 42.3411 78H42.4V79V80V85.3462L42.4 85.4956V85.4957C42.4005 86.4235 42.4009 87.0907 42.2234 87.6603C41.8421 88.8839 40.8839 89.8421 39.6602 90.2234C39.0907 90.4009 38.4234 90.4005 37.4956 90.4L37.3461 90.4H30.6538L30.5043 90.4C29.5765 90.4005 28.9092 90.4009 28.3397 90.2234C27.1161 89.8421 26.1579 88.8839 25.7766 87.6603C25.5991 87.0907 25.5994 86.4234 25.5999 85.4956L25.6 85.3462V80V79V78H25.6589ZM27.4 82.6841V85.3462C27.4 86.487 27.4102 86.8526 27.4951 87.1248C27.7004 87.7836 28.2163 88.2996 28.8752 88.5049C29.1474 88.5897 29.513 88.6 30.6538 88.6H37.3461C38.487 88.6 38.8526 88.5897 39.1247 88.5049C39.7836 88.2996 40.2996 87.7836 40.5049 87.1248C40.5897 86.8526 40.6 86.487 40.6 85.3462V82.6841C40.2608 82.8233 39.8893 82.9 39.5 82.9H28.5C28.1106 82.9 27.7392 82.8233 27.4 82.6841ZM23.5 79.1C23.997 79.1 24.4 79.5029 24.4 80V85C24.4 85.4971 23.997 85.9 23.5 85.9C23.0029 85.9 22.6 85.4971 22.6 85V80C22.6 79.5029 23.0029 79.1 23.5 79.1ZM45.4 80C45.4 79.5029 44.997 79.1 44.5 79.1C44.0029 79.1 43.6 79.5029 43.6 80V85C43.6 85.4971 44.0029 85.9 44.5 85.9C44.997 85.9 45.4 85.4971 45.4 85V80ZM30.5 77.25C30.5 76.8358 30.8358 76.5 31.25 76.5C31.6642 76.5 32 76.8358 32 77.25V78.25C32 78.6642 31.6642 79 31.25 79C30.8358 79 30.5 78.6642 30.5 78.25V77.25ZM36.75 76.5C36.3358 76.5 36 76.8358 36 77.25V78.25C36 78.6642 36.3358 79 36.75 79C37.1642 79 37.5 78.6642 37.5 78.25V77.25C37.5 76.8358 37.1642 76.5 36.75 76.5Z" fill="#222222"/>
</g>
<path d="M73.1875 131.383H74.6875C74.6094 132.102 74.4036 132.745 74.0703 133.312C73.737 133.88 73.2656 134.331 72.6562 134.664C72.0469 134.992 71.2865 135.156 70.375 135.156C69.7083 135.156 69.1016 135.031 68.5547 134.781C68.013 134.531 67.5469 134.177 67.1562 133.719C66.7656 133.255 66.4635 132.701 66.25 132.055C66.0417 131.404 65.9375 130.68 65.9375 129.883V128.75C65.9375 127.953 66.0417 127.232 66.25 126.586C66.4635 125.935 66.7682 125.378 67.1641 124.914C67.5651 124.451 68.0469 124.094 68.6094 123.844C69.1719 123.594 69.8047 123.469 70.5078 123.469C71.3672 123.469 72.0938 123.63 72.6875 123.953C73.2812 124.276 73.7422 124.724 74.0703 125.297C74.4036 125.865 74.6094 126.523 74.6875 127.273H73.1875C73.1146 126.742 72.9792 126.286 72.7812 125.906C72.5833 125.521 72.3021 125.224 71.9375 125.016C71.5729 124.807 71.0964 124.703 70.5078 124.703C70.0026 124.703 69.5573 124.799 69.1719 124.992C68.7917 125.185 68.4714 125.458 68.2109 125.812C67.9557 126.167 67.763 126.591 67.6328 127.086C67.5026 127.581 67.4375 128.13 67.4375 128.734V129.883C67.4375 130.44 67.4948 130.964 67.6094 131.453C67.7292 131.943 67.9089 132.372 68.1484 132.742C68.388 133.112 68.6927 133.404 69.0625 133.617C69.4323 133.826 69.8698 133.93 70.375 133.93C71.0156 133.93 71.526 133.828 71.9062 133.625C72.2865 133.422 72.5729 133.13 72.7656 132.75C72.9635 132.37 73.1042 131.914 73.1875 131.383ZM78.0938 123V135H76.6406V123H78.0938ZM83.9219 135.156C83.3333 135.156 82.7995 135.057 82.3203 134.859C81.8464 134.656 81.4375 134.372 81.0938 134.008C80.7552 133.643 80.4948 133.211 80.3125 132.711C80.1302 132.211 80.0391 131.664 80.0391 131.07V130.742C80.0391 130.055 80.1406 129.443 80.3438 128.906C80.5469 128.365 80.8229 127.906 81.1719 127.531C81.5208 127.156 81.9167 126.872 82.3594 126.68C82.8021 126.487 83.2604 126.391 83.7344 126.391C84.3385 126.391 84.8594 126.495 85.2969 126.703C85.7396 126.911 86.1016 127.203 86.3828 127.578C86.6641 127.948 86.8724 128.385 87.0078 128.891C87.1432 129.391 87.2109 129.938 87.2109 130.531V131.18H80.8984V130H85.7656V129.891C85.7448 129.516 85.6667 129.151 85.5312 128.797C85.401 128.443 85.1927 128.151 84.9062 127.922C84.6198 127.693 84.2292 127.578 83.7344 127.578C83.4062 127.578 83.1042 127.648 82.8281 127.789C82.5521 127.924 82.3151 128.128 82.1172 128.398C81.9193 128.669 81.7656 129 81.6562 129.391C81.5469 129.781 81.4922 130.232 81.4922 130.742V131.07C81.4922 131.471 81.5469 131.849 81.6562 132.203C81.7708 132.552 81.9349 132.859 82.1484 133.125C82.3672 133.391 82.6302 133.599 82.9375 133.75C83.25 133.901 83.6042 133.977 84 133.977C84.5104 133.977 84.9427 133.872 85.2969 133.664C85.651 133.456 85.9609 133.177 86.2266 132.828L87.1016 133.523C86.9193 133.799 86.6875 134.062 86.4062 134.312C86.125 134.562 85.7786 134.766 85.3672 134.922C84.9609 135.078 84.4792 135.156 83.9219 135.156ZM93.8828 133.555V129.203C93.8828 128.87 93.8151 128.581 93.6797 128.336C93.5495 128.086 93.3516 127.893 93.0859 127.758C92.8203 127.622 92.4922 127.555 92.1016 127.555C91.737 127.555 91.4167 127.617 91.1406 127.742C90.8698 127.867 90.6562 128.031 90.5 128.234C90.349 128.438 90.2734 128.656 90.2734 128.891H88.8281C88.8281 128.589 88.9062 128.289 89.0625 127.992C89.2188 127.695 89.4427 127.427 89.7344 127.188C90.0312 126.943 90.3854 126.75 90.7969 126.609C91.2135 126.464 91.6771 126.391 92.1875 126.391C92.8021 126.391 93.3438 126.495 93.8125 126.703C94.2865 126.911 94.6562 127.227 94.9219 127.648C95.1927 128.065 95.3281 128.589 95.3281 129.219V133.156C95.3281 133.438 95.3516 133.737 95.3984 134.055C95.4505 134.372 95.526 134.646 95.625 134.875V135H94.1172C94.0443 134.833 93.987 134.612 93.9453 134.336C93.9036 134.055 93.8828 133.794 93.8828 133.555ZM94.1328 129.875L94.1484 130.891H92.6875C92.276 130.891 91.9089 130.924 91.5859 130.992C91.263 131.055 90.9922 131.151 90.7734 131.281C90.5547 131.411 90.388 131.576 90.2734 131.773C90.1589 131.966 90.1016 132.193 90.1016 132.453C90.1016 132.719 90.1615 132.961 90.2812 133.18C90.401 133.398 90.5807 133.573 90.8203 133.703C91.0651 133.828 91.3646 133.891 91.7188 133.891C92.1615 133.891 92.5521 133.797 92.8906 133.609C93.2292 133.422 93.4974 133.193 93.6953 132.922C93.8984 132.651 94.0078 132.388 94.0234 132.133L94.6406 132.828C94.6042 133.047 94.5052 133.289 94.3438 133.555C94.1823 133.82 93.9661 134.076 93.6953 134.32C93.4297 134.56 93.112 134.76 92.7422 134.922C92.3776 135.078 91.9661 135.156 91.5078 135.156C90.9349 135.156 90.4323 135.044 90 134.82C89.5729 134.596 89.2396 134.297 89 133.922C88.7656 133.542 88.6484 133.117 88.6484 132.648C88.6484 132.195 88.737 131.797 88.9141 131.453C89.0911 131.104 89.3464 130.815 89.6797 130.586C90.013 130.352 90.4141 130.174 90.8828 130.055C91.3516 129.935 91.875 129.875 92.4531 129.875H94.1328ZM99.0469 127.875V135H97.6016V126.547H99.0078L99.0469 127.875ZM101.688 126.5L101.68 127.844C101.56 127.818 101.445 127.802 101.336 127.797C101.232 127.786 101.112 127.781 100.977 127.781C100.643 127.781 100.349 127.833 100.094 127.938C99.8385 128.042 99.6224 128.188 99.4453 128.375C99.2682 128.562 99.1276 128.786 99.0234 129.047C98.9245 129.302 98.8594 129.583 98.8281 129.891L98.4219 130.125C98.4219 129.615 98.4714 129.135 98.5703 128.688C98.6745 128.24 98.8333 127.844 99.0469 127.5C99.2604 127.151 99.5312 126.88 99.8594 126.688C100.193 126.49 100.589 126.391 101.047 126.391C101.151 126.391 101.271 126.404 101.406 126.43C101.542 126.451 101.635 126.474 101.688 126.5ZM114.641 128.516V129.742H108.484V128.516H114.641ZM108.719 123.625V135H107.211V123.625H108.719ZM115.953 123.625V135H114.453V123.625H115.953ZM119.984 126.547V135H118.531V126.547H119.984ZM118.422 124.305C118.422 124.07 118.492 123.872 118.633 123.711C118.779 123.549 118.992 123.469 119.273 123.469C119.549 123.469 119.76 123.549 119.906 123.711C120.057 123.872 120.133 124.07 120.133 124.305C120.133 124.529 120.057 124.721 119.906 124.883C119.76 125.039 119.549 125.117 119.273 125.117C118.992 125.117 118.779 125.039 118.633 124.883C118.492 124.721 118.422 124.529 118.422 124.305ZM127.227 132.758C127.227 132.549 127.18 132.357 127.086 132.18C126.997 131.997 126.812 131.833 126.531 131.688C126.255 131.536 125.839 131.406 125.281 131.297C124.812 131.198 124.388 131.081 124.008 130.945C123.633 130.81 123.312 130.646 123.047 130.453C122.786 130.26 122.586 130.034 122.445 129.773C122.305 129.513 122.234 129.208 122.234 128.859C122.234 128.526 122.307 128.211 122.453 127.914C122.604 127.617 122.815 127.354 123.086 127.125C123.362 126.896 123.693 126.716 124.078 126.586C124.464 126.456 124.893 126.391 125.367 126.391C126.044 126.391 126.622 126.51 127.102 126.75C127.581 126.99 127.948 127.31 128.203 127.711C128.458 128.107 128.586 128.547 128.586 129.031H127.141C127.141 128.797 127.07 128.57 126.93 128.352C126.794 128.128 126.594 127.943 126.328 127.797C126.068 127.651 125.747 127.578 125.367 127.578C124.966 127.578 124.641 127.641 124.391 127.766C124.146 127.885 123.966 128.039 123.852 128.227C123.742 128.414 123.688 128.612 123.688 128.82C123.688 128.977 123.714 129.117 123.766 129.242C123.823 129.362 123.922 129.474 124.062 129.578C124.203 129.677 124.401 129.771 124.656 129.859C124.911 129.948 125.237 130.036 125.633 130.125C126.326 130.281 126.896 130.469 127.344 130.688C127.792 130.906 128.125 131.174 128.344 131.492C128.562 131.81 128.672 132.195 128.672 132.648C128.672 133.018 128.594 133.357 128.438 133.664C128.286 133.971 128.065 134.237 127.773 134.461C127.487 134.68 127.143 134.852 126.742 134.977C126.346 135.096 125.901 135.156 125.406 135.156C124.661 135.156 124.031 135.023 123.516 134.758C123 134.492 122.609 134.148 122.344 133.727C122.078 133.305 121.945 132.859 121.945 132.391H123.398C123.419 132.786 123.534 133.102 123.742 133.336C123.951 133.565 124.206 133.729 124.508 133.828C124.81 133.922 125.109 133.969 125.406 133.969C125.802 133.969 126.133 133.917 126.398 133.812C126.669 133.708 126.875 133.565 127.016 133.383C127.156 133.201 127.227 132.992 127.227 132.758ZM134.109 126.547V127.656H129.539V126.547H134.109ZM131.086 124.492H132.531V132.906C132.531 133.193 132.576 133.409 132.664 133.555C132.753 133.701 132.867 133.797 133.008 133.844C133.148 133.891 133.299 133.914 133.461 133.914C133.581 133.914 133.706 133.904 133.836 133.883C133.971 133.857 134.073 133.836 134.141 133.82L134.148 135C134.034 135.036 133.883 135.07 133.695 135.102C133.513 135.138 133.292 135.156 133.031 135.156C132.677 135.156 132.352 135.086 132.055 134.945C131.758 134.805 131.521 134.57 131.344 134.242C131.172 133.909 131.086 133.461 131.086 132.898V124.492ZM135.266 130.867V130.688C135.266 130.078 135.354 129.513 135.531 128.992C135.708 128.466 135.964 128.01 136.297 127.625C136.63 127.234 137.034 126.932 137.508 126.719C137.982 126.5 138.513 126.391 139.102 126.391C139.695 126.391 140.229 126.5 140.703 126.719C141.182 126.932 141.589 127.234 141.922 127.625C142.26 128.01 142.518 128.466 142.695 128.992C142.872 129.513 142.961 130.078 142.961 130.688V130.867C142.961 131.477 142.872 132.042 142.695 132.562C142.518 133.083 142.26 133.539 141.922 133.93C141.589 134.315 141.185 134.617 140.711 134.836C140.242 135.049 139.711 135.156 139.117 135.156C138.523 135.156 137.99 135.049 137.516 134.836C137.042 134.617 136.635 134.315 136.297 133.93C135.964 133.539 135.708 133.083 135.531 132.562C135.354 132.042 135.266 131.477 135.266 130.867ZM136.711 130.688V130.867C136.711 131.289 136.76 131.688 136.859 132.062C136.958 132.432 137.107 132.76 137.305 133.047C137.508 133.333 137.76 133.56 138.062 133.727C138.365 133.888 138.716 133.969 139.117 133.969C139.513 133.969 139.859 133.888 140.156 133.727C140.458 133.56 140.708 133.333 140.906 133.047C141.104 132.76 141.253 132.432 141.352 132.062C141.456 131.688 141.508 131.289 141.508 130.867V130.688C141.508 130.271 141.456 129.878 141.352 129.508C141.253 129.133 141.102 128.802 140.898 128.516C140.701 128.224 140.451 127.995 140.148 127.828C139.852 127.661 139.503 127.578 139.102 127.578C138.706 127.578 138.357 127.661 138.055 127.828C137.758 127.995 137.508 128.224 137.305 128.516C137.107 128.802 136.958 129.133 136.859 129.508C136.76 129.878 136.711 130.271 136.711 130.688ZM146.219 127.875V135H144.773V126.547H146.18L146.219 127.875ZM148.859 126.5L148.852 127.844C148.732 127.818 148.617 127.802 148.508 127.797C148.404 127.786 148.284 127.781 148.148 127.781C147.815 127.781 147.521 127.833 147.266 127.938C147.01 128.042 146.794 128.188 146.617 128.375C146.44 128.562 146.299 128.786 146.195 129.047C146.096 129.302 146.031 129.583 146 129.891L145.594 130.125C145.594 129.615 145.643 129.135 145.742 128.688C145.846 128.24 146.005 127.844 146.219 127.5C146.432 127.151 146.703 126.88 147.031 126.688C147.365 126.49 147.76 126.391 148.219 126.391C148.323 126.391 148.443 126.404 148.578 126.43C148.714 126.451 148.807 126.474 148.859 126.5ZM152.711 134.125L155.062 126.547H156.609L153.219 136.305C153.141 136.513 153.036 136.737 152.906 136.977C152.781 137.221 152.62 137.453 152.422 137.672C152.224 137.891 151.984 138.068 151.703 138.203C151.427 138.344 151.096 138.414 150.711 138.414C150.596 138.414 150.451 138.398 150.273 138.367C150.096 138.336 149.971 138.31 149.898 138.289L149.891 137.117C149.932 137.122 149.997 137.128 150.086 137.133C150.18 137.143 150.245 137.148 150.281 137.148C150.609 137.148 150.888 137.104 151.117 137.016C151.346 136.932 151.539 136.789 151.695 136.586C151.857 136.388 151.995 136.115 152.109 135.766L152.711 134.125ZM150.984 126.547L153.18 133.109L153.555 134.633L152.516 135.164L149.406 126.547H150.984Z" fill="#222222"/>
<g opacity="0.52">
<path fill-rule="evenodd" clip-rule="evenodd" d="M27.4 127C27.4 123.355 30.3549 120.4 34 120.4C37.6451 120.4 40.6 123.355 40.6 127V128C40.6 128.608 40.1075 129.1 39.5 129.1H28.5C27.8925 129.1 27.4 128.608 27.4 128V127ZM25.6589 126C26.1533 121.832 29.6992 118.6 34 118.6C38.3008 118.6 41.8467 121.832 42.3411 126H42.4V127V128V133.346L42.4 133.496V133.496C42.4005 134.423 42.4009 135.091 42.2234 135.66C41.8421 136.884 40.8839 137.842 39.6602 138.223C39.0907 138.401 38.4234 138.401 37.4956 138.4L37.3461 138.4H30.6538L30.5043 138.4C29.5765 138.401 28.9092 138.401 28.3397 138.223C27.1161 137.842 26.1579 136.884 25.7766 135.66C25.5991 135.091 25.5994 134.423 25.5999 133.496L25.6 133.346V128V127V126H25.6589ZM27.4 130.684V133.346C27.4 134.487 27.4102 134.853 27.4951 135.125C27.7004 135.784 28.2163 136.3 28.8752 136.505C29.1474 136.59 29.513 136.6 30.6538 136.6H37.3461C38.487 136.6 38.8526 136.59 39.1247 136.505C39.7836 136.3 40.2996 135.784 40.5049 135.125C40.5897 134.853 40.6 134.487 40.6 133.346V130.684C40.2608 130.823 39.8893 130.9 39.5 130.9H28.5C28.1106 130.9 27.7392 130.823 27.4 130.684ZM23.5 127.1C23.997 127.1 24.4 127.503 24.4 128V133C24.4 133.497 23.997 133.9 23.5 133.9C23.0029 133.9 22.6 133.497 22.6 133V128C22.6 127.503 23.0029 127.1 23.5 127.1ZM45.4 128C45.4 127.503 44.997 127.1 44.5 127.1C44.0029 127.1 43.6 127.503 43.6 128V133C43.6 133.497 44.0029 133.9 44.5 133.9C44.997 133.9 45.4 133.497 45.4 133V128ZM30.5 125.25C30.5 124.836 30.8358 124.5 31.25 124.5C31.6642 124.5 32 124.836 32 125.25V126.25C32 126.664 31.6642 127 31.25 127C30.8358 127 30.5 126.664 30.5 126.25V125.25ZM36.75 124.5C36.3358 124.5 36 124.836 36 125.25V126.25C36 126.664 36.3358 127 36.75 127C37.1642 127 37.5 126.664 37.5 126.25V125.25C37.5 124.836 37.1642 124.5 36.75 124.5Z" fill="#222222"/>
</g>
<path d="M70.5156 178.539H67.4766V177.312H70.5156C71.1042 177.312 71.5807 177.219 71.9453 177.031C72.3099 176.844 72.5755 176.583 72.7422 176.25C72.9141 175.917 73 175.536 73 175.109C73 174.719 72.9141 174.352 72.7422 174.008C72.5755 173.664 72.3099 173.388 71.9453 173.18C71.5807 172.966 71.1042 172.859 70.5156 172.859H67.8281V183H66.3203V171.625H70.5156C71.375 171.625 72.1016 171.773 72.6953 172.07C73.2891 172.367 73.7396 172.779 74.0469 173.305C74.3542 173.826 74.5078 174.422 74.5078 175.094C74.5078 175.823 74.3542 176.445 74.0469 176.961C73.7396 177.477 73.2891 177.87 72.6953 178.141C72.1016 178.406 71.375 178.539 70.5156 178.539ZM81.0859 181.555V177.203C81.0859 176.87 81.0182 176.581 80.8828 176.336C80.7526 176.086 80.5547 175.893 80.2891 175.758C80.0234 175.622 79.6953 175.555 79.3047 175.555C78.9401 175.555 78.6198 175.617 78.3438 175.742C78.0729 175.867 77.8594 176.031 77.7031 176.234C77.5521 176.438 77.4766 176.656 77.4766 176.891H76.0312C76.0312 176.589 76.1094 176.289 76.2656 175.992C76.4219 175.695 76.6458 175.427 76.9375 175.188C77.2344 174.943 77.5885 174.75 78 174.609C78.4167 174.464 78.8802 174.391 79.3906 174.391C80.0052 174.391 80.5469 174.495 81.0156 174.703C81.4896 174.911 81.8594 175.227 82.125 175.648C82.3958 176.065 82.5312 176.589 82.5312 177.219V181.156C82.5312 181.438 82.5547 181.737 82.6016 182.055C82.6536 182.372 82.7292 182.646 82.8281 182.875V183H81.3203C81.2474 182.833 81.1901 182.612 81.1484 182.336C81.1068 182.055 81.0859 181.794 81.0859 181.555ZM81.3359 177.875L81.3516 178.891H79.8906C79.4792 178.891 79.112 178.924 78.7891 178.992C78.4661 179.055 78.1953 179.151 77.9766 179.281C77.7578 179.411 77.5911 179.576 77.4766 179.773C77.362 179.966 77.3047 180.193 77.3047 180.453C77.3047 180.719 77.3646 180.961 77.4844 181.18C77.6042 181.398 77.7839 181.573 78.0234 181.703C78.2682 181.828 78.5677 181.891 78.9219 181.891C79.3646 181.891 79.7552 181.797 80.0938 181.609C80.4323 181.422 80.7005 181.193 80.8984 180.922C81.1016 180.651 81.2109 180.388 81.2266 180.133L81.8438 180.828C81.8073 181.047 81.7083 181.289 81.5469 181.555C81.3854 181.82 81.1693 182.076 80.8984 182.32C80.6328 182.56 80.3151 182.76 79.9453 182.922C79.5807 183.078 79.1693 183.156 78.7109 183.156C78.138 183.156 77.6354 183.044 77.2031 182.82C76.776 182.596 76.4427 182.297 76.2031 181.922C75.9688 181.542 75.8516 181.117 75.8516 180.648C75.8516 180.195 75.9401 179.797 76.1172 179.453C76.2943 179.104 76.5495 178.815 76.8828 178.586C77.2161 178.352 77.6172 178.174 78.0859 178.055C78.5547 177.935 79.0781 177.875 79.6562 177.875H81.3359ZM89.7266 180.758C89.7266 180.549 89.6797 180.357 89.5859 180.18C89.4974 179.997 89.3125 179.833 89.0312 179.688C88.7552 179.536 88.3385 179.406 87.7812 179.297C87.3125 179.198 86.888 179.081 86.5078 178.945C86.1328 178.81 85.8125 178.646 85.5469 178.453C85.2865 178.26 85.0859 178.034 84.9453 177.773C84.8047 177.513 84.7344 177.208 84.7344 176.859C84.7344 176.526 84.8073 176.211 84.9531 175.914C85.1042 175.617 85.3151 175.354 85.5859 175.125C85.862 174.896 86.1927 174.716 86.5781 174.586C86.9635 174.456 87.3932 174.391 87.8672 174.391C88.5443 174.391 89.1224 174.51 89.6016 174.75C90.0807 174.99 90.4479 175.31 90.7031 175.711C90.9583 176.107 91.0859 176.547 91.0859 177.031H89.6406C89.6406 176.797 89.5703 176.57 89.4297 176.352C89.2943 176.128 89.0938 175.943 88.8281 175.797C88.5677 175.651 88.2474 175.578 87.8672 175.578C87.4661 175.578 87.1406 175.641 86.8906 175.766C86.6458 175.885 86.4661 176.039 86.3516 176.227C86.2422 176.414 86.1875 176.612 86.1875 176.82C86.1875 176.977 86.2135 177.117 86.2656 177.242C86.3229 177.362 86.4219 177.474 86.5625 177.578C86.7031 177.677 86.901 177.771 87.1562 177.859C87.4115 177.948 87.737 178.036 88.1328 178.125C88.8255 178.281 89.3958 178.469 89.8438 178.688C90.2917 178.906 90.625 179.174 90.8438 179.492C91.0625 179.81 91.1719 180.195 91.1719 180.648C91.1719 181.018 91.0938 181.357 90.9375 181.664C90.7865 181.971 90.5651 182.237 90.2734 182.461C89.987 182.68 89.6432 182.852 89.2422 182.977C88.8464 183.096 88.401 183.156 87.9062 183.156C87.1615 183.156 86.5312 183.023 86.0156 182.758C85.5 182.492 85.1094 182.148 84.8438 181.727C84.5781 181.305 84.4453 180.859 84.4453 180.391H85.8984C85.9193 180.786 86.0339 181.102 86.2422 181.336C86.4505 181.565 86.7057 181.729 87.0078 181.828C87.3099 181.922 87.6094 181.969 87.9062 181.969C88.3021 181.969 88.6328 181.917 88.8984 181.812C89.1693 181.708 89.375 181.565 89.5156 181.383C89.6562 181.201 89.7266 180.992 89.7266 180.758ZM97.9922 180.758C97.9922 180.549 97.9453 180.357 97.8516 180.18C97.763 179.997 97.5781 179.833 97.2969 179.688C97.0208 179.536 96.6042 179.406 96.0469 179.297C95.5781 179.198 95.1536 179.081 94.7734 178.945C94.3984 178.81 94.0781 178.646 93.8125 178.453C93.5521 178.26 93.3516 178.034 93.2109 177.773C93.0703 177.513 93 177.208 93 176.859C93 176.526 93.0729 176.211 93.2188 175.914C93.3698 175.617 93.5807 175.354 93.8516 175.125C94.1276 174.896 94.4583 174.716 94.8438 174.586C95.2292 174.456 95.6589 174.391 96.1328 174.391C96.8099 174.391 97.388 174.51 97.8672 174.75C98.3464 174.99 98.7135 175.31 98.9688 175.711C99.224 176.107 99.3516 176.547 99.3516 177.031H97.9062C97.9062 176.797 97.8359 176.57 97.6953 176.352C97.5599 176.128 97.3594 175.943 97.0938 175.797C96.8333 175.651 96.513 175.578 96.1328 175.578C95.7318 175.578 95.4062 175.641 95.1562 175.766C94.9115 175.885 94.7318 176.039 94.6172 176.227C94.5078 176.414 94.4531 176.612 94.4531 176.82C94.4531 176.977 94.4792 177.117 94.5312 177.242C94.5885 177.362 94.6875 177.474 94.8281 177.578C94.9688 177.677 95.1667 177.771 95.4219 177.859C95.6771 177.948 96.0026 178.036 96.3984 178.125C97.0911 178.281 97.6615 178.469 98.1094 178.688C98.5573 178.906 98.8906 179.174 99.1094 179.492C99.3281 179.81 99.4375 180.195 99.4375 180.648C99.4375 181.018 99.3594 181.357 99.2031 181.664C99.0521 181.971 98.8307 182.237 98.5391 182.461C98.2526 182.68 97.9089 182.852 97.5078 182.977C97.112 183.096 96.6667 183.156 96.1719 183.156C95.4271 183.156 94.7969 183.023 94.2812 182.758C93.7656 182.492 93.375 182.148 93.1094 181.727C92.8438 181.305 92.7109 180.859 92.7109 180.391H94.1641C94.1849 180.786 94.2995 181.102 94.5078 181.336C94.7161 181.565 94.9714 181.729 95.2734 181.828C95.5755 181.922 95.875 181.969 96.1719 181.969C96.5677 181.969 96.8984 181.917 97.1641 181.812C97.4349 181.708 97.6406 181.565 97.7812 181.383C97.9219 181.201 97.9922 180.992 97.9922 180.758ZM104.719 181.969C105.062 181.969 105.38 181.898 105.672 181.758C105.964 181.617 106.203 181.424 106.391 181.18C106.578 180.93 106.685 180.646 106.711 180.328H108.086C108.06 180.828 107.891 181.294 107.578 181.727C107.271 182.154 106.867 182.5 106.367 182.766C105.867 183.026 105.318 183.156 104.719 183.156C104.083 183.156 103.529 183.044 103.055 182.82C102.586 182.596 102.195 182.289 101.883 181.898C101.576 181.508 101.344 181.06 101.188 180.555C101.036 180.044 100.961 179.505 100.961 178.938V178.609C100.961 178.042 101.036 177.505 101.188 177C101.344 176.49 101.576 176.039 101.883 175.648C102.195 175.258 102.586 174.951 103.055 174.727C103.529 174.503 104.083 174.391 104.719 174.391C105.38 174.391 105.958 174.526 106.453 174.797C106.948 175.062 107.336 175.427 107.617 175.891C107.904 176.349 108.06 176.87 108.086 177.453H106.711C106.685 177.104 106.586 176.789 106.414 176.508C106.247 176.227 106.018 176.003 105.727 175.836C105.44 175.664 105.104 175.578 104.719 175.578C104.276 175.578 103.904 175.667 103.602 175.844C103.305 176.016 103.068 176.25 102.891 176.547C102.719 176.839 102.594 177.164 102.516 177.523C102.443 177.878 102.406 178.24 102.406 178.609V178.938C102.406 179.307 102.443 179.672 102.516 180.031C102.589 180.391 102.711 180.716 102.883 181.008C103.06 181.299 103.297 181.534 103.594 181.711C103.896 181.883 104.271 181.969 104.719 181.969ZM109.328 178.867V178.688C109.328 178.078 109.417 177.513 109.594 176.992C109.771 176.466 110.026 176.01 110.359 175.625C110.693 175.234 111.096 174.932 111.57 174.719C112.044 174.5 112.576 174.391 113.164 174.391C113.758 174.391 114.292 174.5 114.766 174.719C115.245 174.932 115.651 175.234 115.984 175.625C116.323 176.01 116.581 176.466 116.758 176.992C116.935 177.513 117.023 178.078 117.023 178.688V178.867C117.023 179.477 116.935 180.042 116.758 180.562C116.581 181.083 116.323 181.539 115.984 181.93C115.651 182.315 115.247 182.617 114.773 182.836C114.305 183.049 113.773 183.156 113.18 183.156C112.586 183.156 112.052 183.049 111.578 182.836C111.104 182.617 110.698 182.315 110.359 181.93C110.026 181.539 109.771 181.083 109.594 180.562C109.417 180.042 109.328 179.477 109.328 178.867ZM110.773 178.688V178.867C110.773 179.289 110.823 179.688 110.922 180.062C111.021 180.432 111.169 180.76 111.367 181.047C111.57 181.333 111.823 181.56 112.125 181.727C112.427 181.888 112.779 181.969 113.18 181.969C113.576 181.969 113.922 181.888 114.219 181.727C114.521 181.56 114.771 181.333 114.969 181.047C115.167 180.76 115.315 180.432 115.414 180.062C115.518 179.688 115.57 179.289 115.57 178.867V178.688C115.57 178.271 115.518 177.878 115.414 177.508C115.315 177.133 115.164 176.802 114.961 176.516C114.763 176.224 114.513 175.995 114.211 175.828C113.914 175.661 113.565 175.578 113.164 175.578C112.768 175.578 112.419 175.661 112.117 175.828C111.82 175.995 111.57 176.224 111.367 176.516C111.169 176.802 111.021 177.133 110.922 177.508C110.823 177.878 110.773 178.271 110.773 178.688ZM124.164 181.359V171H125.617V183H124.289L124.164 181.359ZM118.477 178.867V178.703C118.477 178.057 118.555 177.471 118.711 176.945C118.872 176.414 119.099 175.958 119.391 175.578C119.688 175.198 120.039 174.906 120.445 174.703C120.857 174.495 121.315 174.391 121.82 174.391C122.352 174.391 122.815 174.484 123.211 174.672C123.612 174.854 123.951 175.122 124.227 175.477C124.508 175.826 124.729 176.247 124.891 176.742C125.052 177.237 125.164 177.797 125.227 178.422V179.141C125.169 179.76 125.057 180.318 124.891 180.812C124.729 181.307 124.508 181.729 124.227 182.078C123.951 182.427 123.612 182.695 123.211 182.883C122.81 183.065 122.341 183.156 121.805 183.156C121.31 183.156 120.857 183.049 120.445 182.836C120.039 182.622 119.688 182.323 119.391 181.938C119.099 181.552 118.872 181.099 118.711 180.578C118.555 180.052 118.477 179.482 118.477 178.867ZM119.93 178.703V178.867C119.93 179.289 119.971 179.685 120.055 180.055C120.143 180.424 120.279 180.75 120.461 181.031C120.643 181.312 120.875 181.534 121.156 181.695C121.438 181.852 121.773 181.93 122.164 181.93C122.643 181.93 123.036 181.828 123.344 181.625C123.656 181.422 123.906 181.154 124.094 180.82C124.281 180.487 124.427 180.125 124.531 179.734V177.852C124.469 177.565 124.378 177.289 124.258 177.023C124.143 176.753 123.992 176.513 123.805 176.305C123.622 176.091 123.396 175.922 123.125 175.797C122.859 175.672 122.544 175.609 122.18 175.609C121.784 175.609 121.443 175.693 121.156 175.859C120.875 176.021 120.643 176.245 120.461 176.531C120.279 176.812 120.143 177.141 120.055 177.516C119.971 177.885 119.93 178.281 119.93 178.703ZM131.375 183.156C130.786 183.156 130.253 183.057 129.773 182.859C129.299 182.656 128.891 182.372 128.547 182.008C128.208 181.643 127.948 181.211 127.766 180.711C127.583 180.211 127.492 179.664 127.492 179.07V178.742C127.492 178.055 127.594 177.443 127.797 176.906C128 176.365 128.276 175.906 128.625 175.531C128.974 175.156 129.37 174.872 129.812 174.68C130.255 174.487 130.714 174.391 131.188 174.391C131.792 174.391 132.312 174.495 132.75 174.703C133.193 174.911 133.555 175.203 133.836 175.578C134.117 175.948 134.326 176.385 134.461 176.891C134.596 177.391 134.664 177.938 134.664 178.531V179.18H128.352V178H133.219V177.891C133.198 177.516 133.12 177.151 132.984 176.797C132.854 176.443 132.646 176.151 132.359 175.922C132.073 175.693 131.682 175.578 131.188 175.578C130.859 175.578 130.557 175.648 130.281 175.789C130.005 175.924 129.768 176.128 129.57 176.398C129.372 176.669 129.219 177 129.109 177.391C129 177.781 128.945 178.232 128.945 178.742V179.07C128.945 179.471 129 179.849 129.109 180.203C129.224 180.552 129.388 180.859 129.602 181.125C129.82 181.391 130.083 181.599 130.391 181.75C130.703 181.901 131.057 181.977 131.453 181.977C131.964 181.977 132.396 181.872 132.75 181.664C133.104 181.456 133.414 181.177 133.68 180.828L134.555 181.523C134.372 181.799 134.141 182.062 133.859 182.312C133.578 182.562 133.232 182.766 132.82 182.922C132.414 183.078 131.932 183.156 131.375 183.156ZM147.438 181.773V183H141.75V181.773H147.438ZM142.047 171.625V183H140.539V171.625H142.047ZM148.562 178.867V178.688C148.562 178.078 148.651 177.513 148.828 176.992C149.005 176.466 149.26 176.01 149.594 175.625C149.927 175.234 150.331 174.932 150.805 174.719C151.279 174.5 151.81 174.391 152.398 174.391C152.992 174.391 153.526 174.5 154 174.719C154.479 174.932 154.885 175.234 155.219 175.625C155.557 176.01 155.815 176.466 155.992 176.992C156.169 177.513 156.258 178.078 156.258 178.688V178.867C156.258 179.477 156.169 180.042 155.992 180.562C155.815 181.083 155.557 181.539 155.219 181.93C154.885 182.315 154.482 182.617 154.008 182.836C153.539 183.049 153.008 183.156 152.414 183.156C151.82 183.156 151.286 183.049 150.812 182.836C150.339 182.617 149.932 182.315 149.594 181.93C149.26 181.539 149.005 181.083 148.828 180.562C148.651 180.042 148.562 179.477 148.562 178.867ZM150.008 178.688V178.867C150.008 179.289 150.057 179.688 150.156 180.062C150.255 180.432 150.404 180.76 150.602 181.047C150.805 181.333 151.057 181.56 151.359 181.727C151.661 181.888 152.013 181.969 152.414 181.969C152.81 181.969 153.156 181.888 153.453 181.727C153.755 181.56 154.005 181.333 154.203 181.047C154.401 180.76 154.549 180.432 154.648 180.062C154.753 179.688 154.805 179.289 154.805 178.867V178.688C154.805 178.271 154.753 177.878 154.648 177.508C154.549 177.133 154.398 176.802 154.195 176.516C153.997 176.224 153.747 175.995 153.445 175.828C153.148 175.661 152.799 175.578 152.398 175.578C152.003 175.578 151.654 175.661 151.352 175.828C151.055 175.995 150.805 176.224 150.602 176.516C150.404 176.802 150.255 177.133 150.156 177.508C150.057 177.878 150.008 178.271 150.008 178.688ZM161.453 181.969C161.797 181.969 162.115 181.898 162.406 181.758C162.698 181.617 162.938 181.424 163.125 181.18C163.312 180.93 163.419 180.646 163.445 180.328H164.82C164.794 180.828 164.625 181.294 164.312 181.727C164.005 182.154 163.602 182.5 163.102 182.766C162.602 183.026 162.052 183.156 161.453 183.156C160.818 183.156 160.263 183.044 159.789 182.82C159.32 182.596 158.93 182.289 158.617 181.898C158.31 181.508 158.078 181.06 157.922 180.555C157.771 180.044 157.695 179.505 157.695 178.938V178.609C157.695 178.042 157.771 177.505 157.922 177C158.078 176.49 158.31 176.039 158.617 175.648C158.93 175.258 159.32 174.951 159.789 174.727C160.263 174.503 160.818 174.391 161.453 174.391C162.115 174.391 162.693 174.526 163.188 174.797C163.682 175.062 164.07 175.427 164.352 175.891C164.638 176.349 164.794 176.87 164.82 177.453H163.445C163.419 177.104 163.32 176.789 163.148 176.508C162.982 176.227 162.753 176.003 162.461 175.836C162.174 175.664 161.839 175.578 161.453 175.578C161.01 175.578 160.638 175.667 160.336 175.844C160.039 176.016 159.802 176.25 159.625 176.547C159.453 176.839 159.328 177.164 159.25 177.523C159.177 177.878 159.141 178.24 159.141 178.609V178.938C159.141 179.307 159.177 179.672 159.25 180.031C159.323 180.391 159.445 180.716 159.617 181.008C159.794 181.299 160.031 181.534 160.328 181.711C160.63 181.883 161.005 181.969 161.453 181.969ZM167.898 171V183H166.445V171H167.898ZM173.062 174.547L169.375 178.492L167.312 180.633L167.195 179.094L168.672 177.328L171.297 174.547H173.062ZM171.742 183L168.727 178.969L169.477 177.68L173.445 183H171.742Z" fill="#222222"/>
<g opacity="0.52">
<path fill-rule="evenodd" clip-rule="evenodd" d="M27.4 175C27.4 171.355 30.3549 168.4 34 168.4C37.6451 168.4 40.6 171.355 40.6 175V176C40.6 176.608 40.1075 177.1 39.5 177.1H28.5C27.8925 177.1 27.4 176.608 27.4 176V175ZM25.6589 174C26.1533 169.832 29.6992 166.6 34 166.6C38.3008 166.6 41.8467 169.832 42.3411 174H42.4V175V176V181.346L42.4 181.496V181.496C42.4005 182.423 42.4009 183.091 42.2234 183.66C41.8421 184.884 40.8839 185.842 39.6602 186.223C39.0907 186.401 38.4234 186.401 37.4956 186.4L37.3461 186.4H30.6538L30.5043 186.4C29.5765 186.401 28.9092 186.401 28.3397 186.223C27.1161 185.842 26.1579 184.884 25.7766 183.66C25.5991 183.091 25.5994 182.423 25.5999 181.496L25.6 181.346V176V175V174H25.6589ZM27.4 178.684V181.346C27.4 182.487 27.4102 182.853 27.4951 183.125C27.7004 183.784 28.2163 184.3 28.8752 184.505C29.1474 184.59 29.513 184.6 30.6538 184.6H37.3461C38.487 184.6 38.8526 184.59 39.1247 184.505C39.7836 184.3 40.2996 183.784 40.5049 183.125C40.5897 182.853 40.6 182.487 40.6 181.346V178.684C40.2608 178.823 39.8893 178.9 39.5 178.9H28.5C28.1106 178.9 27.7392 178.823 27.4 178.684ZM23.5 175.1C23.997 175.1 24.4 175.503 24.4 176V181C24.4 181.497 23.997 181.9 23.5 181.9C23.0029 181.9 22.6 181.497 22.6 181V176C22.6 175.503 23.0029 175.1 23.5 175.1ZM45.4 176C45.4 175.503 44.997 175.1 44.5 175.1C44.0029 175.1 43.6 175.503 43.6 176V181C43.6 181.497 44.0029 181.9 44.5 181.9C44.997 181.9 45.4 181.497 45.4 181V176ZM30.5 173.25C30.5 172.836 30.8358 172.5 31.25 172.5C31.6642 172.5 32 172.836 32 173.25V174.25C32 174.664 31.6642 175 31.25 175C30.8358 175 30.5 174.664 30.5 174.25V173.25ZM36.75 172.5C36.3358 172.5 36 172.836 36 173.25V174.25C36 174.664 36.3358 175 36.75 175C37.1642 175 37.5 174.664 37.5 174.25V173.25C37.5 172.836 37.1642 172.5 36.75 172.5Z" fill="#222222"/>
</g>
<path d="M69.3984 231H67.0234L67.0391 229.773H69.3984C70.2109 229.773 70.888 229.604 71.4297 229.266C71.9714 228.922 72.3776 228.443 72.6484 227.828C72.9245 227.208 73.0625 226.484 73.0625 225.656V224.961C73.0625 224.31 72.9844 223.732 72.8281 223.227C72.6719 222.716 72.4427 222.286 72.1406 221.938C71.8385 221.583 71.4688 221.315 71.0312 221.133C70.599 220.951 70.1016 220.859 69.5391 220.859H66.9766V219.625H69.5391C70.2839 219.625 70.9635 219.75 71.5781 220C72.1927 220.245 72.7214 220.602 73.1641 221.07C73.612 221.534 73.9557 222.096 74.1953 222.758C74.4349 223.414 74.5547 224.154 74.5547 224.977V225.656C74.5547 226.479 74.4349 227.221 74.1953 227.883C73.9557 228.539 73.6094 229.099 73.1562 229.562C72.7083 230.026 72.1667 230.383 71.5312 230.633C70.901 230.878 70.1901 231 69.3984 231ZM67.8281 219.625V231H66.3203V219.625H67.8281ZM80.1094 231.156C79.5208 231.156 78.987 231.057 78.5078 230.859C78.0339 230.656 77.625 230.372 77.2812 230.008C76.9427 229.643 76.6823 229.211 76.5 228.711C76.3177 228.211 76.2266 227.664 76.2266 227.07V226.742C76.2266 226.055 76.3281 225.443 76.5312 224.906C76.7344 224.365 77.0104 223.906 77.3594 223.531C77.7083 223.156 78.1042 222.872 78.5469 222.68C78.9896 222.487 79.4479 222.391 79.9219 222.391C80.526 222.391 81.0469 222.495 81.4844 222.703C81.9271 222.911 82.2891 223.203 82.5703 223.578C82.8516 223.948 83.0599 224.385 83.1953 224.891C83.3307 225.391 83.3984 225.938 83.3984 226.531V227.18H77.0859V226H81.9531V225.891C81.9323 225.516 81.8542 225.151 81.7188 224.797C81.5885 224.443 81.3802 224.151 81.0938 223.922C80.8073 223.693 80.4167 223.578 79.9219 223.578C79.5938 223.578 79.2917 223.648 79.0156 223.789C78.7396 223.924 78.5026 224.128 78.3047 224.398C78.1068 224.669 77.9531 225 77.8438 225.391C77.7344 225.781 77.6797 226.232 77.6797 226.742V227.07C77.6797 227.471 77.7344 227.849 77.8438 228.203C77.9583 228.552 78.1224 228.859 78.3359 229.125C78.5547 229.391 78.8177 229.599 79.125 229.75C79.4375 229.901 79.7917 229.977 80.1875 229.977C80.6979 229.977 81.1302 229.872 81.4844 229.664C81.8385 229.456 82.1484 229.177 82.4141 228.828L83.2891 229.523C83.1068 229.799 82.875 230.062 82.5938 230.312C82.3125 230.562 81.9661 230.766 81.5547 230.922C81.1484 231.078 80.6667 231.156 80.1094 231.156ZM86.6562 219V231H85.2031V219H86.6562ZM92.4844 231.156C91.8958 231.156 91.362 231.057 90.8828 230.859C90.4089 230.656 90 230.372 89.6562 230.008C89.3177 229.643 89.0573 229.211 88.875 228.711C88.6927 228.211 88.6016 227.664 88.6016 227.07V226.742C88.6016 226.055 88.7031 225.443 88.9062 224.906C89.1094 224.365 89.3854 223.906 89.7344 223.531C90.0833 223.156 90.4792 222.872 90.9219 222.68C91.3646 222.487 91.8229 222.391 92.2969 222.391C92.901 222.391 93.4219 222.495 93.8594 222.703C94.3021 222.911 94.6641 223.203 94.9453 223.578C95.2266 223.948 95.4349 224.385 95.5703 224.891C95.7057 225.391 95.7734 225.938 95.7734 226.531V227.18H89.4609V226H94.3281V225.891C94.3073 225.516 94.2292 225.151 94.0938 224.797C93.9635 224.443 93.7552 224.151 93.4688 223.922C93.1823 223.693 92.7917 223.578 92.2969 223.578C91.9688 223.578 91.6667 223.648 91.3906 223.789C91.1146 223.924 90.8776 224.128 90.6797 224.398C90.4818 224.669 90.3281 225 90.2188 225.391C90.1094 225.781 90.0547 226.232 90.0547 226.742V227.07C90.0547 227.471 90.1094 227.849 90.2188 228.203C90.3333 228.552 90.4974 228.859 90.7109 229.125C90.9297 229.391 91.1927 229.599 91.5 229.75C91.8125 229.901 92.1667 229.977 92.5625 229.977C93.0729 229.977 93.5052 229.872 93.8594 229.664C94.2135 229.456 94.5234 229.177 94.7891 228.828L95.6641 229.523C95.4818 229.799 95.25 230.062 94.9688 230.312C94.6875 230.562 94.3411 230.766 93.9297 230.922C93.5234 231.078 93.0417 231.156 92.4844 231.156ZM101 222.547V223.656H96.4297V222.547H101ZM97.9766 220.492H99.4219V228.906C99.4219 229.193 99.4661 229.409 99.5547 229.555C99.6432 229.701 99.7578 229.797 99.8984 229.844C100.039 229.891 100.19 229.914 100.352 229.914C100.471 229.914 100.596 229.904 100.727 229.883C100.862 229.857 100.964 229.836 101.031 229.82L101.039 231C100.924 231.036 100.773 231.07 100.586 231.102C100.404 231.138 100.182 231.156 99.9219 231.156C99.5677 231.156 99.2422 231.086 98.9453 230.945C98.6484 230.805 98.4115 230.57 98.2344 230.242C98.0625 229.909 97.9766 229.461 97.9766 228.898V220.492ZM106.203 231.156C105.615 231.156 105.081 231.057 104.602 230.859C104.128 230.656 103.719 230.372 103.375 230.008C103.036 229.643 102.776 229.211 102.594 228.711C102.411 228.211 102.32 227.664 102.32 227.07V226.742C102.32 226.055 102.422 225.443 102.625 224.906C102.828 224.365 103.104 223.906 103.453 223.531C103.802 223.156 104.198 222.872 104.641 222.68C105.083 222.487 105.542 222.391 106.016 222.391C106.62 222.391 107.141 222.495 107.578 222.703C108.021 222.911 108.383 223.203 108.664 223.578C108.945 223.948 109.154 224.385 109.289 224.891C109.424 225.391 109.492 225.938 109.492 226.531V227.18H103.18V226H108.047V225.891C108.026 225.516 107.948 225.151 107.812 224.797C107.682 224.443 107.474 224.151 107.188 223.922C106.901 223.693 106.51 223.578 106.016 223.578C105.688 223.578 105.385 223.648 105.109 223.789C104.833 223.924 104.596 224.128 104.398 224.398C104.201 224.669 104.047 225 103.938 225.391C103.828 225.781 103.773 226.232 103.773 226.742V227.07C103.773 227.471 103.828 227.849 103.938 228.203C104.052 228.552 104.216 228.859 104.43 229.125C104.648 229.391 104.911 229.599 105.219 229.75C105.531 229.901 105.885 229.977 106.281 229.977C106.792 229.977 107.224 229.872 107.578 229.664C107.932 229.456 108.242 229.177 108.508 228.828L109.383 229.523C109.201 229.799 108.969 230.062 108.688 230.312C108.406 230.562 108.06 230.766 107.648 230.922C107.242 231.078 106.76 231.156 106.203 231.156ZM120.133 229.555V225.203C120.133 224.87 120.065 224.581 119.93 224.336C119.799 224.086 119.602 223.893 119.336 223.758C119.07 223.622 118.742 223.555 118.352 223.555C117.987 223.555 117.667 223.617 117.391 223.742C117.12 223.867 116.906 224.031 116.75 224.234C116.599 224.438 116.523 224.656 116.523 224.891H115.078C115.078 224.589 115.156 224.289 115.312 223.992C115.469 223.695 115.693 223.427 115.984 223.188C116.281 222.943 116.635 222.75 117.047 222.609C117.464 222.464 117.927 222.391 118.438 222.391C119.052 222.391 119.594 222.495 120.062 222.703C120.536 222.911 120.906 223.227 121.172 223.648C121.443 224.065 121.578 224.589 121.578 225.219V229.156C121.578 229.438 121.602 229.737 121.648 230.055C121.701 230.372 121.776 230.646 121.875 230.875V231H120.367C120.294 230.833 120.237 230.612 120.195 230.336C120.154 230.055 120.133 229.794 120.133 229.555ZM120.383 225.875L120.398 226.891H118.938C118.526 226.891 118.159 226.924 117.836 226.992C117.513 227.055 117.242 227.151 117.023 227.281C116.805 227.411 116.638 227.576 116.523 227.773C116.409 227.966 116.352 228.193 116.352 228.453C116.352 228.719 116.411 228.961 116.531 229.18C116.651 229.398 116.831 229.573 117.07 229.703C117.315 229.828 117.615 229.891 117.969 229.891C118.411 229.891 118.802 229.797 119.141 229.609C119.479 229.422 119.747 229.193 119.945 228.922C120.148 228.651 120.258 228.388 120.273 228.133L120.891 228.828C120.854 229.047 120.755 229.289 120.594 229.555C120.432 229.82 120.216 230.076 119.945 230.32C119.68 230.56 119.362 230.76 118.992 230.922C118.628 231.078 118.216 231.156 117.758 231.156C117.185 231.156 116.682 231.044 116.25 230.82C115.823 230.596 115.49 230.297 115.25 229.922C115.016 229.542 114.898 229.117 114.898 228.648C114.898 228.195 114.987 227.797 115.164 227.453C115.341 227.104 115.596 226.815 115.93 226.586C116.263 226.352 116.664 226.174 117.133 226.055C117.602 225.935 118.125 225.875 118.703 225.875H120.383ZM125.297 224.352V231H123.852V222.547H125.219L125.297 224.352ZM124.953 226.453L124.352 226.43C124.357 225.852 124.443 225.318 124.609 224.828C124.776 224.333 125.01 223.904 125.312 223.539C125.615 223.174 125.974 222.893 126.391 222.695C126.812 222.492 127.279 222.391 127.789 222.391C128.206 222.391 128.581 222.448 128.914 222.562C129.247 222.672 129.531 222.849 129.766 223.094C130.005 223.339 130.188 223.656 130.312 224.047C130.438 224.432 130.5 224.904 130.5 225.461V231H129.047V225.445C129.047 225.003 128.982 224.648 128.852 224.383C128.721 224.112 128.531 223.917 128.281 223.797C128.031 223.672 127.724 223.609 127.359 223.609C127 223.609 126.672 223.685 126.375 223.836C126.083 223.987 125.831 224.195 125.617 224.461C125.409 224.727 125.245 225.031 125.125 225.375C125.01 225.714 124.953 226.073 124.953 226.453ZM138.023 229.359V219H139.477V231H138.148L138.023 229.359ZM132.336 226.867V226.703C132.336 226.057 132.414 225.471 132.57 224.945C132.732 224.414 132.958 223.958 133.25 223.578C133.547 223.198 133.898 222.906 134.305 222.703C134.716 222.495 135.174 222.391 135.68 222.391C136.211 222.391 136.674 222.484 137.07 222.672C137.471 222.854 137.81 223.122 138.086 223.477C138.367 223.826 138.589 224.247 138.75 224.742C138.911 225.237 139.023 225.797 139.086 226.422V227.141C139.029 227.76 138.917 228.318 138.75 228.812C138.589 229.307 138.367 229.729 138.086 230.078C137.81 230.427 137.471 230.695 137.07 230.883C136.669 231.065 136.201 231.156 135.664 231.156C135.169 231.156 134.716 231.049 134.305 230.836C133.898 230.622 133.547 230.323 133.25 229.938C132.958 229.552 132.732 229.099 132.57 228.578C132.414 228.052 132.336 227.482 132.336 226.867ZM133.789 226.703V226.867C133.789 227.289 133.831 227.685 133.914 228.055C134.003 228.424 134.138 228.75 134.32 229.031C134.503 229.312 134.734 229.534 135.016 229.695C135.297 229.852 135.633 229.93 136.023 229.93C136.503 229.93 136.896 229.828 137.203 229.625C137.516 229.422 137.766 229.154 137.953 228.82C138.141 228.487 138.286 228.125 138.391 227.734V225.852C138.328 225.565 138.237 225.289 138.117 225.023C138.003 224.753 137.852 224.513 137.664 224.305C137.482 224.091 137.255 223.922 136.984 223.797C136.719 223.672 136.404 223.609 136.039 223.609C135.643 223.609 135.302 223.693 135.016 223.859C134.734 224.021 134.503 224.245 134.32 224.531C134.138 224.812 134.003 225.141 133.914 225.516C133.831 225.885 133.789 226.281 133.789 226.703ZM149.969 225.68H147.086L147.07 224.469H149.688C150.12 224.469 150.497 224.396 150.82 224.25C151.143 224.104 151.393 223.896 151.57 223.625C151.753 223.349 151.844 223.021 151.844 222.641C151.844 222.224 151.763 221.885 151.602 221.625C151.445 221.359 151.203 221.167 150.875 221.047C150.552 220.922 150.141 220.859 149.641 220.859H147.422V231H145.914V219.625H149.641C150.224 219.625 150.745 219.685 151.203 219.805C151.661 219.919 152.049 220.102 152.367 220.352C152.69 220.596 152.935 220.909 153.102 221.289C153.268 221.669 153.352 222.125 153.352 222.656C153.352 223.125 153.232 223.549 152.992 223.93C152.753 224.305 152.419 224.612 151.992 224.852C151.57 225.091 151.076 225.245 150.508 225.312L149.969 225.68ZM149.898 231H146.492L147.344 229.773H149.898C150.378 229.773 150.784 229.69 151.117 229.523C151.456 229.357 151.714 229.122 151.891 228.82C152.068 228.513 152.156 228.151 152.156 227.734C152.156 227.312 152.081 226.948 151.93 226.641C151.779 226.333 151.542 226.096 151.219 225.93C150.896 225.763 150.479 225.68 149.969 225.68H147.82L147.836 224.469H150.773L151.094 224.906C151.641 224.953 152.104 225.109 152.484 225.375C152.865 225.635 153.154 225.969 153.352 226.375C153.555 226.781 153.656 227.229 153.656 227.719C153.656 228.427 153.5 229.026 153.188 229.516C152.88 230 152.445 230.37 151.883 230.625C151.32 230.875 150.659 231 149.898 231ZM157.234 219V231H155.781V219H157.234ZM159.172 226.867V226.688C159.172 226.078 159.26 225.513 159.438 224.992C159.615 224.466 159.87 224.01 160.203 223.625C160.536 223.234 160.94 222.932 161.414 222.719C161.888 222.5 162.419 222.391 163.008 222.391C163.602 222.391 164.135 222.5 164.609 222.719C165.089 222.932 165.495 223.234 165.828 223.625C166.167 224.01 166.424 224.466 166.602 224.992C166.779 225.513 166.867 226.078 166.867 226.688V226.867C166.867 227.477 166.779 228.042 166.602 228.562C166.424 229.083 166.167 229.539 165.828 229.93C165.495 230.315 165.091 230.617 164.617 230.836C164.148 231.049 163.617 231.156 163.023 231.156C162.43 231.156 161.896 231.049 161.422 230.836C160.948 230.617 160.542 230.315 160.203 229.93C159.87 229.539 159.615 229.083 159.438 228.562C159.26 228.042 159.172 227.477 159.172 226.867ZM160.617 226.688V226.867C160.617 227.289 160.667 227.688 160.766 228.062C160.865 228.432 161.013 228.76 161.211 229.047C161.414 229.333 161.667 229.56 161.969 229.727C162.271 229.888 162.622 229.969 163.023 229.969C163.419 229.969 163.766 229.888 164.062 229.727C164.365 229.56 164.615 229.333 164.812 229.047C165.01 228.76 165.159 228.432 165.258 228.062C165.362 227.688 165.414 227.289 165.414 226.867V226.688C165.414 226.271 165.362 225.878 165.258 225.508C165.159 225.133 165.008 224.802 164.805 224.516C164.607 224.224 164.357 223.995 164.055 223.828C163.758 223.661 163.409 223.578 163.008 223.578C162.612 223.578 162.263 223.661 161.961 223.828C161.664 223.995 161.414 224.224 161.211 224.516C161.013 224.802 160.865 225.133 160.766 225.508C160.667 225.878 160.617 226.271 160.617 226.688ZM172.062 229.969C172.406 229.969 172.724 229.898 173.016 229.758C173.307 229.617 173.547 229.424 173.734 229.18C173.922 228.93 174.029 228.646 174.055 228.328H175.43C175.404 228.828 175.234 229.294 174.922 229.727C174.615 230.154 174.211 230.5 173.711 230.766C173.211 231.026 172.661 231.156 172.062 231.156C171.427 231.156 170.872 231.044 170.398 230.82C169.93 230.596 169.539 230.289 169.227 229.898C168.919 229.508 168.688 229.06 168.531 228.555C168.38 228.044 168.305 227.505 168.305 226.938V226.609C168.305 226.042 168.38 225.505 168.531 225C168.688 224.49 168.919 224.039 169.227 223.648C169.539 223.258 169.93 222.951 170.398 222.727C170.872 222.503 171.427 222.391 172.062 222.391C172.724 222.391 173.302 222.526 173.797 222.797C174.292 223.062 174.68 223.427 174.961 223.891C175.247 224.349 175.404 224.87 175.43 225.453H174.055C174.029 225.104 173.93 224.789 173.758 224.508C173.591 224.227 173.362 224.003 173.07 223.836C172.784 223.664 172.448 223.578 172.062 223.578C171.62 223.578 171.247 223.667 170.945 223.844C170.648 224.016 170.411 224.25 170.234 224.547C170.062 224.839 169.938 225.164 169.859 225.523C169.786 225.878 169.75 226.24 169.75 226.609V226.938C169.75 227.307 169.786 227.672 169.859 228.031C169.932 228.391 170.055 228.716 170.227 229.008C170.404 229.299 170.641 229.534 170.938 229.711C171.24 229.883 171.615 229.969 172.062 229.969ZM178.508 219V231H177.055V219H178.508ZM183.672 222.547L179.984 226.492L177.922 228.633L177.805 227.094L179.281 225.328L181.906 222.547H183.672ZM182.352 231L179.336 226.969L180.086 225.68L184.055 231H182.352Z" fill="#B92C31"/>
<path fill-rule="evenodd" clip-rule="evenodd" d="M27.4 223C27.4 219.355 30.3549 216.4 34 216.4C37.6451 216.4 40.6 219.355 40.6 223V224C40.6 224.608 40.1075 225.1 39.5 225.1H28.5C27.8925 225.1 27.4 224.608 27.4 224V223ZM25.6589 222C26.1533 217.832 29.6992 214.6 34 214.6C38.3008 214.6 41.8467 217.832 42.3411 222H42.4V223V224V229.346L42.4 229.496V229.496C42.4005 230.423 42.4009 231.091 42.2234 231.66C41.8421 232.884 40.8839 233.842 39.6602 234.223C39.0907 234.401 38.4234 234.401 37.4956 234.4L37.3461 234.4H30.6538L30.5043 234.4C29.5765 234.401 28.9092 234.401 28.3397 234.223C27.1161 233.842 26.1579 232.884 25.7766 231.66C25.5991 231.091 25.5994 230.423 25.5999 229.496L25.6 229.346V224V223V222H25.6589ZM27.4 226.684V229.346C27.4 230.487 27.4102 230.853 27.4951 231.125C27.7004 231.784 28.2163 232.3 28.8752 232.505C29.1474 232.59 29.513 232.6 30.6538 232.6H37.3461C38.487 232.6 38.8526 232.59 39.1247 232.505C39.7836 232.3 40.2996 231.784 40.5049 231.125C40.5897 230.853 40.6 230.487 40.6 229.346V226.684C40.2608 226.823 39.8893 226.9 39.5 226.9H28.5C28.1106 226.9 27.7392 226.823 27.4 226.684ZM23.5 223.1C23.997 223.1 24.4 223.503 24.4 224V229C24.4 229.497 23.997 229.9 23.5 229.9C23.0029 229.9 22.6 229.497 22.6 229V224C22.6 223.503 23.0029 223.1 23.5 223.1ZM45.4 224C45.4 223.503 44.997 223.1 44.5 223.1C44.0029 223.1 43.6 223.503 43.6 224V229C43.6 229.497 44.0029 229.9 44.5 229.9C44.997 229.9 45.4 229.497 45.4 229V224ZM30.5 221.25C30.5 220.836 30.8358 220.5 31.25 220.5C31.6642 220.5 32 220.836 32 221.25V222.25C32 222.664 31.6642 223 31.25 223C30.8358 223 30.5 222.664 30.5 222.25V221.25ZM36.75 220.5C36.3358 220.5 36 220.836 36 221.25V222.25C36 222.664 36.3358 223 36.75 223C37.1642 223 37.5 222.664 37.5 222.25V221.25C37.5 220.836 37.1642 220.5 36.75 220.5Z" fill="#B92C31"/>
</g>
</g>
<defs>
<filter id="filter0_d_4_384" x="0.5" y="0.5" width="226" height="253" filterUnits="userSpaceOnUse" color-interpolation-filters="sRGB">
<feFlood flood-opacity="0" result="BackgroundImageFix"/>
<feColorMatrix in="SourceAlpha" type="matrix" values="0 0 0 0 0 0 0 0 0 0 0 0 0 0 0 0 0 0 127 0" result="hardAlpha"/>
<feMorphology radius="0.5" operator="dilate" in="SourceAlpha" result="effect1_dropShadow_4_384"/>
<feOffset dy="1"/>
<feGaussianBlur stdDeviation="1.5"/>
<feComposite in2="hardAlpha" operator="out"/>
<feColorMatrix type="matrix" values="0 0 0 0 0 0 0 0 0 0 0 0 0 0 0 0 0 0 0.12 0"/>
<feBlend mode="normal" in2="BackgroundImageFix" result="effect1_dropShadow_4_384"/>
<feBlend mode="normal" in="SourceGraphic" in2="effect1_dropShadow_4_384" result="shape"/>
</filter>
<clipPath id="clip0_4_384">
<rect x="4" y="3" width="219" height="246" rx="6" fill="white"/>
</clipPath>
</defs>
</svg>
