<svg width="227" height="249" viewBox="0 0 227 249" fill="none" xmlns="http://www.w3.org/2000/svg">
<g filter="url(#filter0_d_4_384)">
<g clip-path="url(#clip0_4_384)">
<rect x="4" y="3" width="219" height="241" rx="6" fill="white"/>
<path d="M43 35.4775L36.4454 28.8736M23.8403 16.1737L29.3866 21.7616M29.3866 21.7616H24.8487C24.2325 21.7616 23 22.1341 23 23.6243C23 25.1144 23 27.406 23 28.3656C23 29.0429 23.3361 30.2282 24.8487 30.2282C26.3277 30.2282 27.4818 30.2282 27.8739 30.2282C28.098 30.2282 28.7479 30.4314 29.5546 31.2442C30.3613 32.057 33.084 34.4615 34.4286 35.6468C35.1008 36.3242 36.4454 36.0194 36.4454 34.8002V33.4455C36.4454 31.549 36.4454 29.6073 36.4454 28.8736M29.3866 21.7616L36.4454 28.8736M31.9076 18.8852L34.4286 16.3452C35.1008 15.6679 36.4454 16.0066 36.4454 17.1918V18.5465V23.6243" stroke="#6D6F6E" stroke-width="1.5" stroke-linecap="round"/>
<path d="M64.7969 20.125H66.2578L69.9844 29.3984L73.7031 20.125H75.1719L70.5469 31.5H69.4062L64.7969 20.125ZM64.3203 20.125H65.6094L65.8203 27.0625V31.5H64.3203V20.125ZM74.3516 20.125H75.6406V31.5H74.1406V27.0625L74.3516 20.125ZM83.2422 29.5469V23.0469H84.6953V31.5H83.3125L83.2422 29.5469ZM83.5156 27.7656L84.1172 27.75C84.1172 28.3125 84.0573 28.8333 83.9375 29.3125C83.8229 29.7865 83.6354 30.1979 83.375 30.5469C83.1146 30.8958 82.7734 31.1693 82.3516 31.3672C81.9297 31.5599 81.4167 31.6562 80.8125 31.6562C80.401 31.6562 80.0234 31.5964 79.6797 31.4766C79.3411 31.3568 79.0495 31.1719 78.8047 30.9219C78.5599 30.6719 78.3698 30.3464 78.2344 29.9453C78.1042 29.5443 78.0391 29.0625 78.0391 28.5V23.0469H79.4844V28.5156C79.4844 28.8958 79.526 29.2109 79.6094 29.4609C79.6979 29.7057 79.8151 29.901 79.9609 30.0469C80.112 30.1875 80.2786 30.2865 80.4609 30.3438C80.6484 30.401 80.8411 30.4297 81.0391 30.4297C81.6536 30.4297 82.1406 30.3125 82.5 30.0781C82.8594 29.8385 83.1172 29.5182 83.2734 29.1172C83.4349 28.7109 83.5156 28.2604 83.5156 27.7656ZM90.4375 23.0469V24.1562H85.8672V23.0469H90.4375ZM87.4141 20.9922H88.8594V29.4062C88.8594 29.6927 88.9036 29.9089 88.9922 30.0547C89.0807 30.2005 89.1953 30.2969 89.3359 30.3438C89.4766 30.3906 89.6276 30.4141 89.7891 30.4141C89.9089 30.4141 90.0339 30.4036 90.1641 30.3828C90.2995 30.3568 90.401 30.3359 90.4688 30.3203L90.4766 31.5C90.362 31.5365 90.2109 31.5703 90.0234 31.6016C89.8411 31.638 89.6198 31.6562 89.3594 31.6562C89.0052 31.6562 88.6797 31.5859 88.3828 31.4453C88.0859 31.3047 87.849 31.0703 87.6719 30.7422C87.5 30.4089 87.4141 29.9609 87.4141 29.3984V20.9922ZM95.6406 31.6562C95.0521 31.6562 94.5182 31.5573 94.0391 31.3594C93.5651 31.1562 93.1562 30.8724 92.8125 30.5078C92.474 30.1432 92.2135 29.7109 92.0312 29.2109C91.849 28.7109 91.7578 28.1641 91.7578 27.5703V27.2422C91.7578 26.5547 91.8594 25.9427 92.0625 25.4062C92.2656 24.8646 92.5417 24.4062 92.8906 24.0312C93.2396 23.6562 93.6354 23.3724 94.0781 23.1797C94.5208 22.987 94.9792 22.8906 95.4531 22.8906C96.0573 22.8906 96.5781 22.9948 97.0156 23.2031C97.4583 23.4115 97.8203 23.7031 98.1016 24.0781C98.3828 24.4479 98.5911 24.8854 98.7266 25.3906C98.862 25.8906 98.9297 26.4375 98.9297 27.0312V27.6797H92.6172V26.5H97.4844V26.3906C97.4635 26.0156 97.3854 25.651 97.25 25.2969C97.1198 24.9427 96.9115 24.651 96.625 24.4219C96.3385 24.1927 95.9479 24.0781 95.4531 24.0781C95.125 24.0781 94.8229 24.1484 94.5469 24.2891C94.2708 24.4245 94.0339 24.6276 93.8359 24.8984C93.638 25.1693 93.4844 25.5 93.375 25.8906C93.2656 26.2812 93.2109 26.7318 93.2109 27.2422V27.5703C93.2109 27.9714 93.2656 28.349 93.375 28.7031C93.4896 29.0521 93.6536 29.3594 93.8672 29.625C94.0859 29.8906 94.349 30.099 94.6562 30.25C94.9688 30.401 95.3229 30.4766 95.7188 30.4766C96.2292 30.4766 96.6615 30.3724 97.0156 30.1641C97.3698 29.9557 97.6797 29.6771 97.9453 29.3281L98.8203 30.0234C98.638 30.2995 98.4062 30.5625 98.125 30.8125C97.8438 31.0625 97.4974 31.2656 97.0859 31.4219C96.6797 31.5781 96.1979 31.6562 95.6406 31.6562Z" fill="#222222"/>
<path d="M195.667 32.1667L201 26.5L195.667 20.8333" stroke="#616362" stroke-width="1.5" stroke-linecap="round" stroke-linejoin="round"/>
<mask id="path-5-inside-1_4_384" fill="white">
<path d="M4 50H223V56H4V50Z"/>
</mask>
<path d="M4 50H223V56H4V50Z" fill="#F0F0F0"/>
<path d="M4 50.5H223V49.5H4V50.5Z" fill="#D9D9D9" mask="url(#path-5-inside-1_4_384)"/>
<path d="M36.5345 83.3244C35.0503 84.6806 33.115 85.1923 31.8333 85.1923C29.5 85.1923 25 83.4962 25 78.0962C25 72.6962 29.5 71 31.8333 71C34.1667 71 38.6667 72.6962 38.6667 78.0962C38.6667 80.5301 37.7525 82.2116 36.5345 83.3244ZM36.5345 83.3244L42 89" stroke="#868686" stroke-width="1.5" stroke-linecap="round"/>
<path d="M70.3828 81.625C70.3828 81.3594 70.3411 81.125 70.2578 80.9219C70.1797 80.7135 70.0391 80.526 69.8359 80.3594C69.638 80.1927 69.362 80.0339 69.0078 79.8828C68.6589 79.7318 68.2161 79.5781 67.6797 79.4219C67.1172 79.2552 66.6094 79.0703 66.1562 78.8672C65.7031 78.6589 65.3151 78.4219 64.9922 78.1562C64.6693 77.8906 64.4219 77.5859 64.25 77.2422C64.0781 76.8984 63.9922 76.5052 63.9922 76.0625C63.9922 75.6198 64.0833 75.2109 64.2656 74.8359C64.4479 74.4609 64.7083 74.1354 65.0469 73.8594C65.3906 73.5781 65.7995 73.3594 66.2734 73.2031C66.7474 73.0469 67.276 72.9688 67.8594 72.9688C68.7135 72.9688 69.4375 73.1328 70.0312 73.4609C70.6302 73.7839 71.0859 74.2083 71.3984 74.7344C71.7109 75.2552 71.8672 75.8125 71.8672 76.4062H70.3672C70.3672 75.9792 70.276 75.6016 70.0938 75.2734C69.9115 74.9401 69.6354 74.6797 69.2656 74.4922C68.8958 74.2995 68.4271 74.2031 67.8594 74.2031C67.3229 74.2031 66.8802 74.2839 66.5312 74.4453C66.1823 74.6068 65.9219 74.8255 65.75 75.1016C65.5833 75.3776 65.5 75.6927 65.5 76.0469C65.5 76.2865 65.5495 76.5052 65.6484 76.7031C65.7526 76.8958 65.9115 77.0755 66.125 77.2422C66.3438 77.4089 66.6198 77.5625 66.9531 77.7031C67.2917 77.8438 67.6953 77.9792 68.1641 78.1094C68.8099 78.2917 69.3672 78.4948 69.8359 78.7188C70.3047 78.9427 70.6901 79.1953 70.9922 79.4766C71.2995 79.7526 71.526 80.0677 71.6719 80.4219C71.8229 80.7708 71.8984 81.1667 71.8984 81.6094C71.8984 82.0729 71.8047 82.4922 71.6172 82.8672C71.4297 83.2422 71.1615 83.5625 70.8125 83.8281C70.4635 84.0938 70.0443 84.2995 69.5547 84.4453C69.0703 84.5859 68.5286 84.6562 67.9297 84.6562C67.4036 84.6562 66.8854 84.5833 66.375 84.4375C65.8698 84.2917 65.4089 84.0729 64.9922 83.7812C64.5807 83.4896 64.25 83.1302 64 82.7031C63.7552 82.2708 63.6328 81.7708 63.6328 81.2031H65.1328C65.1328 81.5938 65.2083 81.9297 65.3594 82.2109C65.5104 82.487 65.7161 82.7161 65.9766 82.8984C66.2422 83.0807 66.5417 83.2161 66.875 83.3047C67.2135 83.388 67.5651 83.4297 67.9297 83.4297C68.4557 83.4297 68.901 83.3568 69.2656 83.2109C69.6302 83.0651 69.9062 82.8568 70.0938 82.5859C70.2865 82.3151 70.3828 81.9948 70.3828 81.625ZM77.1094 84.6562C76.5208 84.6562 75.987 84.5573 75.5078 84.3594C75.0339 84.1562 74.625 83.8724 74.2812 83.5078C73.9427 83.1432 73.6823 82.7109 73.5 82.2109C73.3177 81.7109 73.2266 81.1641 73.2266 80.5703V80.2422C73.2266 79.5547 73.3281 78.9427 73.5312 78.4062C73.7344 77.8646 74.0104 77.4062 74.3594 77.0312C74.7083 76.6562 75.1042 76.3724 75.5469 76.1797C75.9896 75.987 76.4479 75.8906 76.9219 75.8906C77.526 75.8906 78.0469 75.9948 78.4844 76.2031C78.9271 76.4115 79.2891 76.7031 79.5703 77.0781C79.8516 77.4479 80.0599 77.8854 80.1953 78.3906C80.3307 78.8906 80.3984 79.4375 80.3984 80.0312V80.6797H74.0859V79.5H78.9531V79.3906C78.9323 79.0156 78.8542 78.651 78.7188 78.2969C78.5885 77.9427 78.3802 77.651 78.0938 77.4219C77.8073 77.1927 77.4167 77.0781 76.9219 77.0781C76.5938 77.0781 76.2917 77.1484 76.0156 77.2891C75.7396 77.4245 75.5026 77.6276 75.3047 77.8984C75.1068 78.1693 74.9531 78.5 74.8438 78.8906C74.7344 79.2812 74.6797 79.7318 74.6797 80.2422V80.5703C74.6797 80.9714 74.7344 81.349 74.8438 81.7031C74.9583 82.0521 75.1224 82.3594 75.3359 82.625C75.5547 82.8906 75.8177 83.099 76.125 83.25C76.4375 83.401 76.7917 83.4766 77.1875 83.4766C77.6979 83.4766 78.1302 83.3724 78.4844 83.1641C78.8385 82.9557 79.1484 82.6771 79.4141 82.3281L80.2891 83.0234C80.1068 83.2995 79.875 83.5625 79.5938 83.8125C79.3125 84.0625 78.9661 84.2656 78.5547 84.4219C78.1484 84.5781 77.6667 84.6562 77.1094 84.6562ZM87.0703 83.0547V78.7031C87.0703 78.3698 87.0026 78.0807 86.8672 77.8359C86.737 77.5859 86.5391 77.3932 86.2734 77.2578C86.0078 77.1224 85.6797 77.0547 85.2891 77.0547C84.9245 77.0547 84.6042 77.1172 84.3281 77.2422C84.0573 77.3672 83.8438 77.5312 83.6875 77.7344C83.5365 77.9375 83.4609 78.1562 83.4609 78.3906H82.0156C82.0156 78.0885 82.0938 77.7891 82.25 77.4922C82.4062 77.1953 82.6302 76.9271 82.9219 76.6875C83.2188 76.4427 83.5729 76.25 83.9844 76.1094C84.401 75.9635 84.8646 75.8906 85.375 75.8906C85.9896 75.8906 86.5312 75.9948 87 76.2031C87.474 76.4115 87.8438 76.7266 88.1094 77.1484C88.3802 77.5651 88.5156 78.0885 88.5156 78.7188V82.6562C88.5156 82.9375 88.5391 83.237 88.5859 83.5547C88.638 83.8724 88.7135 84.1458 88.8125 84.375V84.5H87.3047C87.2318 84.3333 87.1745 84.112 87.1328 83.8359C87.0911 83.5547 87.0703 83.2943 87.0703 83.0547ZM87.3203 79.375L87.3359 80.3906H85.875C85.4635 80.3906 85.0964 80.4245 84.7734 80.4922C84.4505 80.5547 84.1797 80.651 83.9609 80.7812C83.7422 80.9115 83.5755 81.0755 83.4609 81.2734C83.3464 81.4661 83.2891 81.6927 83.2891 81.9531C83.2891 82.2188 83.349 82.4609 83.4688 82.6797C83.5885 82.8984 83.7682 83.0729 84.0078 83.2031C84.2526 83.3281 84.5521 83.3906 84.9062 83.3906C85.349 83.3906 85.7396 83.2969 86.0781 83.1094C86.4167 82.9219 86.6849 82.6927 86.8828 82.4219C87.0859 82.151 87.1953 81.888 87.2109 81.6328L87.8281 82.3281C87.7917 82.5469 87.6927 82.7891 87.5312 83.0547C87.3698 83.3203 87.1536 83.5755 86.8828 83.8203C86.6172 84.0599 86.2995 84.2604 85.9297 84.4219C85.5651 84.5781 85.1536 84.6562 84.6953 84.6562C84.1224 84.6562 83.6198 84.5443 83.1875 84.3203C82.7604 84.0964 82.4271 83.7969 82.1875 83.4219C81.9531 83.0417 81.8359 82.6172 81.8359 82.1484C81.8359 81.6953 81.9245 81.2969 82.1016 80.9531C82.2786 80.6042 82.5339 80.3151 82.8672 80.0859C83.2005 79.8516 83.6016 79.6745 84.0703 79.5547C84.5391 79.4349 85.0625 79.375 85.6406 79.375H87.3203ZM92.2344 77.375V84.5H90.7891V76.0469H92.1953L92.2344 77.375ZM94.875 76L94.8672 77.3438C94.7474 77.3177 94.6328 77.3021 94.5234 77.2969C94.4193 77.2865 94.2995 77.2812 94.1641 77.2812C93.8307 77.2812 93.5365 77.3333 93.2812 77.4375C93.026 77.5417 92.8099 77.6875 92.6328 77.875C92.4557 78.0625 92.3151 78.2865 92.2109 78.5469C92.112 78.8021 92.0469 79.0833 92.0156 79.3906L91.6094 79.625C91.6094 79.1146 91.6589 78.6354 91.7578 78.1875C91.862 77.7396 92.0208 77.3438 92.2344 77C92.4479 76.651 92.7188 76.3802 93.0469 76.1875C93.3802 75.9896 93.776 75.8906 94.2344 75.8906C94.3385 75.8906 94.4583 75.9036 94.5938 75.9297C94.7292 75.9505 94.8229 75.974 94.875 76ZM99.4375 83.4688C99.7812 83.4688 100.099 83.3984 100.391 83.2578C100.682 83.1172 100.922 82.9245 101.109 82.6797C101.297 82.4297 101.404 82.1458 101.43 81.8281H102.805C102.779 82.3281 102.609 82.7943 102.297 83.2266C101.99 83.6536 101.586 84 101.086 84.2656C100.586 84.526 100.036 84.6562 99.4375 84.6562C98.8021 84.6562 98.2474 84.5443 97.7734 84.3203C97.3047 84.0964 96.9141 83.7891 96.6016 83.3984C96.2943 83.0078 96.0625 82.5599 95.9062 82.0547C95.7552 81.5443 95.6797 81.0052 95.6797 80.4375V80.1094C95.6797 79.5417 95.7552 79.0052 95.9062 78.5C96.0625 77.9896 96.2943 77.5391 96.6016 77.1484C96.9141 76.7578 97.3047 76.4505 97.7734 76.2266C98.2474 76.0026 98.8021 75.8906 99.4375 75.8906C100.099 75.8906 100.677 76.026 101.172 76.2969C101.667 76.5625 102.055 76.9271 102.336 77.3906C102.622 77.849 102.779 78.3698 102.805 78.9531H101.43C101.404 78.6042 101.305 78.2891 101.133 78.0078C100.966 77.7266 100.737 77.5026 100.445 77.3359C100.159 77.1641 99.8229 77.0781 99.4375 77.0781C98.9948 77.0781 98.6224 77.1667 98.3203 77.3438C98.0234 77.5156 97.7865 77.75 97.6094 78.0469C97.4375 78.3385 97.3125 78.6641 97.2344 79.0234C97.1615 79.3776 97.125 79.7396 97.125 80.1094V80.4375C97.125 80.8073 97.1615 81.1719 97.2344 81.5312C97.3073 81.8906 97.4297 82.2161 97.6016 82.5078C97.7786 82.7995 98.0156 83.0339 98.3125 83.2109C98.6146 83.3828 98.9896 83.4688 99.4375 83.4688ZM105.875 72.5V84.5H104.43V72.5H105.875ZM105.531 79.9531L104.93 79.9297C104.935 79.3516 105.021 78.8177 105.188 78.3281C105.354 77.8333 105.589 77.4036 105.891 77.0391C106.193 76.6745 106.552 76.3932 106.969 76.1953C107.391 75.9922 107.857 75.8906 108.367 75.8906C108.784 75.8906 109.159 75.9479 109.492 76.0625C109.826 76.1719 110.109 76.349 110.344 76.5938C110.583 76.8385 110.766 77.1562 110.891 77.5469C111.016 77.9323 111.078 78.4036 111.078 78.9609V84.5H109.625V78.9453C109.625 78.5026 109.56 78.1484 109.43 77.8828C109.299 77.612 109.109 77.4167 108.859 77.2969C108.609 77.1719 108.302 77.1094 107.938 77.1094C107.578 77.1094 107.25 77.1849 106.953 77.3359C106.661 77.487 106.409 77.6953 106.195 77.9609C105.987 78.2266 105.823 78.5312 105.703 78.875C105.589 79.2135 105.531 79.5729 105.531 79.9531Z" fill="#222222"/>
<path d="M43 117L37 125.966M37 125.966C37.8333 126.828 38.1667 128.207 37.5 129.586C36.8333 130.966 34.1667 137 31.3333 137C28.5 137 23 131.828 23 128.897C22.9992 128.842 24.333 128.874 25 128.897C29 128.897 32.8889 126.943 34.3333 125.966C34.5882 125.793 35.1667 125.448 35.6667 125.448C36 125.448 36.5857 125.537 37 125.966Z" stroke="#868686" stroke-width="1.5" stroke-linecap="round"/>
<path d="M71.1875 127.883H72.6875C72.6094 128.602 72.4036 129.245 72.0703 129.812C71.737 130.38 71.2656 130.831 70.6562 131.164C70.0469 131.492 69.2865 131.656 68.375 131.656C67.7083 131.656 67.1016 131.531 66.5547 131.281C66.013 131.031 65.5469 130.677 65.1562 130.219C64.7656 129.755 64.4635 129.201 64.25 128.555C64.0417 127.904 63.9375 127.18 63.9375 126.383V125.25C63.9375 124.453 64.0417 123.732 64.25 123.086C64.4635 122.435 64.7682 121.878 65.1641 121.414C65.5651 120.951 66.0469 120.594 66.6094 120.344C67.1719 120.094 67.8047 119.969 68.5078 119.969C69.3672 119.969 70.0938 120.13 70.6875 120.453C71.2812 120.776 71.7422 121.224 72.0703 121.797C72.4036 122.365 72.6094 123.023 72.6875 123.773H71.1875C71.1146 123.242 70.9792 122.786 70.7812 122.406C70.5833 122.021 70.3021 121.724 69.9375 121.516C69.5729 121.307 69.0964 121.203 68.5078 121.203C68.0026 121.203 67.5573 121.299 67.1719 121.492C66.7917 121.685 66.4714 121.958 66.2109 122.312C65.9557 122.667 65.763 123.091 65.6328 123.586C65.5026 124.081 65.4375 124.63 65.4375 125.234V126.383C65.4375 126.94 65.4948 127.464 65.6094 127.953C65.7292 128.443 65.9089 128.872 66.1484 129.242C66.388 129.612 66.6927 129.904 67.0625 130.117C67.4323 130.326 67.8698 130.43 68.375 130.43C69.0156 130.43 69.526 130.328 69.9062 130.125C70.2865 129.922 70.5729 129.63 70.7656 129.25C70.9635 128.87 71.1042 128.414 71.1875 127.883ZM76.0938 119.5V131.5H74.6406V119.5H76.0938ZM81.9219 131.656C81.3333 131.656 80.7995 131.557 80.3203 131.359C79.8464 131.156 79.4375 130.872 79.0938 130.508C78.7552 130.143 78.4948 129.711 78.3125 129.211C78.1302 128.711 78.0391 128.164 78.0391 127.57V127.242C78.0391 126.555 78.1406 125.943 78.3438 125.406C78.5469 124.865 78.8229 124.406 79.1719 124.031C79.5208 123.656 79.9167 123.372 80.3594 123.18C80.8021 122.987 81.2604 122.891 81.7344 122.891C82.3385 122.891 82.8594 122.995 83.2969 123.203C83.7396 123.411 84.1016 123.703 84.3828 124.078C84.6641 124.448 84.8724 124.885 85.0078 125.391C85.1432 125.891 85.2109 126.438 85.2109 127.031V127.68H78.8984V126.5H83.7656V126.391C83.7448 126.016 83.6667 125.651 83.5312 125.297C83.401 124.943 83.1927 124.651 82.9062 124.422C82.6198 124.193 82.2292 124.078 81.7344 124.078C81.4062 124.078 81.1042 124.148 80.8281 124.289C80.5521 124.424 80.3151 124.628 80.1172 124.898C79.9193 125.169 79.7656 125.5 79.6562 125.891C79.5469 126.281 79.4922 126.732 79.4922 127.242V127.57C79.4922 127.971 79.5469 128.349 79.6562 128.703C79.7708 129.052 79.9349 129.359 80.1484 129.625C80.3672 129.891 80.6302 130.099 80.9375 130.25C81.25 130.401 81.6042 130.477 82 130.477C82.5104 130.477 82.9427 130.372 83.2969 130.164C83.651 129.956 83.9609 129.677 84.2266 129.328L85.1016 130.023C84.9193 130.299 84.6875 130.562 84.4062 130.812C84.125 131.062 83.7786 131.266 83.3672 131.422C82.9609 131.578 82.4792 131.656 81.9219 131.656ZM91.8828 130.055V125.703C91.8828 125.37 91.8151 125.081 91.6797 124.836C91.5495 124.586 91.3516 124.393 91.0859 124.258C90.8203 124.122 90.4922 124.055 90.1016 124.055C89.737 124.055 89.4167 124.117 89.1406 124.242C88.8698 124.367 88.6562 124.531 88.5 124.734C88.349 124.938 88.2734 125.156 88.2734 125.391H86.8281C86.8281 125.089 86.9062 124.789 87.0625 124.492C87.2188 124.195 87.4427 123.927 87.7344 123.688C88.0312 123.443 88.3854 123.25 88.7969 123.109C89.2135 122.964 89.6771 122.891 90.1875 122.891C90.8021 122.891 91.3438 122.995 91.8125 123.203C92.2865 123.411 92.6562 123.727 92.9219 124.148C93.1927 124.565 93.3281 125.089 93.3281 125.719V129.656C93.3281 129.938 93.3516 130.237 93.3984 130.555C93.4505 130.872 93.526 131.146 93.625 131.375V131.5H92.1172C92.0443 131.333 91.987 131.112 91.9453 130.836C91.9036 130.555 91.8828 130.294 91.8828 130.055ZM92.1328 126.375L92.1484 127.391H90.6875C90.276 127.391 89.9089 127.424 89.5859 127.492C89.263 127.555 88.9922 127.651 88.7734 127.781C88.5547 127.911 88.388 128.076 88.2734 128.273C88.1589 128.466 88.1016 128.693 88.1016 128.953C88.1016 129.219 88.1615 129.461 88.2812 129.68C88.401 129.898 88.5807 130.073 88.8203 130.203C89.0651 130.328 89.3646 130.391 89.7188 130.391C90.1615 130.391 90.5521 130.297 90.8906 130.109C91.2292 129.922 91.4974 129.693 91.6953 129.422C91.8984 129.151 92.0078 128.888 92.0234 128.633L92.6406 129.328C92.6042 129.547 92.5052 129.789 92.3438 130.055C92.1823 130.32 91.9661 130.576 91.6953 130.82C91.4297 131.06 91.112 131.26 90.7422 131.422C90.3776 131.578 89.9661 131.656 89.5078 131.656C88.9349 131.656 88.4323 131.544 88 131.32C87.5729 131.096 87.2396 130.797 87 130.422C86.7656 130.042 86.6484 129.617 86.6484 129.148C86.6484 128.695 86.737 128.297 86.9141 127.953C87.0911 127.604 87.3464 127.315 87.6797 127.086C88.013 126.852 88.4141 126.674 88.8828 126.555C89.3516 126.435 89.875 126.375 90.4531 126.375H92.1328ZM97.0469 124.375V131.5H95.6016V123.047H97.0078L97.0469 124.375ZM99.6875 123L99.6797 124.344C99.5599 124.318 99.4453 124.302 99.3359 124.297C99.2318 124.286 99.112 124.281 98.9766 124.281C98.6432 124.281 98.349 124.333 98.0938 124.438C97.8385 124.542 97.6224 124.688 97.4453 124.875C97.2682 125.062 97.1276 125.286 97.0234 125.547C96.9245 125.802 96.8594 126.083 96.8281 126.391L96.4219 126.625C96.4219 126.115 96.4714 125.635 96.5703 125.188C96.6745 124.74 96.8333 124.344 97.0469 124C97.2604 123.651 97.5312 123.38 97.8594 123.188C98.1927 122.99 98.5885 122.891 99.0469 122.891C99.151 122.891 99.2708 122.904 99.4062 122.93C99.5417 122.951 99.6354 122.974 99.6875 123ZM106.438 119.5V131.5H104.992V119.5H106.438ZM106.094 126.953L105.492 126.93C105.497 126.352 105.583 125.818 105.75 125.328C105.917 124.833 106.151 124.404 106.453 124.039C106.755 123.674 107.115 123.393 107.531 123.195C107.953 122.992 108.419 122.891 108.93 122.891C109.346 122.891 109.721 122.948 110.055 123.062C110.388 123.172 110.672 123.349 110.906 123.594C111.146 123.839 111.328 124.156 111.453 124.547C111.578 124.932 111.641 125.404 111.641 125.961V131.5H110.188V125.945C110.188 125.503 110.122 125.148 109.992 124.883C109.862 124.612 109.672 124.417 109.422 124.297C109.172 124.172 108.865 124.109 108.5 124.109C108.141 124.109 107.812 124.185 107.516 124.336C107.224 124.487 106.971 124.695 106.758 124.961C106.549 125.227 106.385 125.531 106.266 125.875C106.151 126.214 106.094 126.573 106.094 126.953ZM115.375 123.047V131.5H113.922V123.047H115.375ZM113.812 120.805C113.812 120.57 113.883 120.372 114.023 120.211C114.169 120.049 114.383 119.969 114.664 119.969C114.94 119.969 115.151 120.049 115.297 120.211C115.448 120.372 115.523 120.57 115.523 120.805C115.523 121.029 115.448 121.221 115.297 121.383C115.151 121.539 114.94 121.617 114.664 121.617C114.383 121.617 114.169 121.539 114.023 121.383C113.883 121.221 113.812 121.029 113.812 120.805ZM122.617 129.258C122.617 129.049 122.57 128.857 122.477 128.68C122.388 128.497 122.203 128.333 121.922 128.188C121.646 128.036 121.229 127.906 120.672 127.797C120.203 127.698 119.779 127.581 119.398 127.445C119.023 127.31 118.703 127.146 118.438 126.953C118.177 126.76 117.977 126.534 117.836 126.273C117.695 126.013 117.625 125.708 117.625 125.359C117.625 125.026 117.698 124.711 117.844 124.414C117.995 124.117 118.206 123.854 118.477 123.625C118.753 123.396 119.083 123.216 119.469 123.086C119.854 122.956 120.284 122.891 120.758 122.891C121.435 122.891 122.013 123.01 122.492 123.25C122.971 123.49 123.339 123.81 123.594 124.211C123.849 124.607 123.977 125.047 123.977 125.531H122.531C122.531 125.297 122.461 125.07 122.32 124.852C122.185 124.628 121.984 124.443 121.719 124.297C121.458 124.151 121.138 124.078 120.758 124.078C120.357 124.078 120.031 124.141 119.781 124.266C119.536 124.385 119.357 124.539 119.242 124.727C119.133 124.914 119.078 125.112 119.078 125.32C119.078 125.477 119.104 125.617 119.156 125.742C119.214 125.862 119.312 125.974 119.453 126.078C119.594 126.177 119.792 126.271 120.047 126.359C120.302 126.448 120.628 126.536 121.023 126.625C121.716 126.781 122.286 126.969 122.734 127.188C123.182 127.406 123.516 127.674 123.734 127.992C123.953 128.31 124.062 128.695 124.062 129.148C124.062 129.518 123.984 129.857 123.828 130.164C123.677 130.471 123.456 130.737 123.164 130.961C122.878 131.18 122.534 131.352 122.133 131.477C121.737 131.596 121.292 131.656 120.797 131.656C120.052 131.656 119.422 131.523 118.906 131.258C118.391 130.992 118 130.648 117.734 130.227C117.469 129.805 117.336 129.359 117.336 128.891H118.789C118.81 129.286 118.924 129.602 119.133 129.836C119.341 130.065 119.596 130.229 119.898 130.328C120.201 130.422 120.5 130.469 120.797 130.469C121.193 130.469 121.523 130.417 121.789 130.312C122.06 130.208 122.266 130.065 122.406 129.883C122.547 129.701 122.617 129.492 122.617 129.258ZM129.5 123.047V124.156H124.93V123.047H129.5ZM126.477 120.992H127.922V129.406C127.922 129.693 127.966 129.909 128.055 130.055C128.143 130.201 128.258 130.297 128.398 130.344C128.539 130.391 128.69 130.414 128.852 130.414C128.971 130.414 129.096 130.404 129.227 130.383C129.362 130.357 129.464 130.336 129.531 130.32L129.539 131.5C129.424 131.536 129.273 131.57 129.086 131.602C128.904 131.638 128.682 131.656 128.422 131.656C128.068 131.656 127.742 131.586 127.445 131.445C127.148 131.305 126.911 131.07 126.734 130.742C126.562 130.409 126.477 129.961 126.477 129.398V120.992ZM130.656 127.367V127.188C130.656 126.578 130.745 126.013 130.922 125.492C131.099 124.966 131.354 124.51 131.688 124.125C132.021 123.734 132.424 123.432 132.898 123.219C133.372 123 133.904 122.891 134.492 122.891C135.086 122.891 135.62 123 136.094 123.219C136.573 123.432 136.979 123.734 137.312 124.125C137.651 124.51 137.909 124.966 138.086 125.492C138.263 126.013 138.352 126.578 138.352 127.188V127.367C138.352 127.977 138.263 128.542 138.086 129.062C137.909 129.583 137.651 130.039 137.312 130.43C136.979 130.815 136.576 131.117 136.102 131.336C135.633 131.549 135.102 131.656 134.508 131.656C133.914 131.656 133.38 131.549 132.906 131.336C132.432 131.117 132.026 130.815 131.688 130.43C131.354 130.039 131.099 129.583 130.922 129.062C130.745 128.542 130.656 127.977 130.656 127.367ZM132.102 127.188V127.367C132.102 127.789 132.151 128.188 132.25 128.562C132.349 128.932 132.497 129.26 132.695 129.547C132.898 129.833 133.151 130.06 133.453 130.227C133.755 130.388 134.107 130.469 134.508 130.469C134.904 130.469 135.25 130.388 135.547 130.227C135.849 130.06 136.099 129.833 136.297 129.547C136.495 129.26 136.643 128.932 136.742 128.562C136.846 128.188 136.898 127.789 136.898 127.367V127.188C136.898 126.771 136.846 126.378 136.742 126.008C136.643 125.633 136.492 125.302 136.289 125.016C136.091 124.724 135.841 124.495 135.539 124.328C135.242 124.161 134.893 124.078 134.492 124.078C134.096 124.078 133.747 124.161 133.445 124.328C133.148 124.495 132.898 124.724 132.695 125.016C132.497 125.302 132.349 125.633 132.25 126.008C132.151 126.378 132.102 126.771 132.102 127.188ZM141.609 124.375V131.5H140.164V123.047H141.57L141.609 124.375ZM144.25 123L144.242 124.344C144.122 124.318 144.008 124.302 143.898 124.297C143.794 124.286 143.674 124.281 143.539 124.281C143.206 124.281 142.911 124.333 142.656 124.438C142.401 124.542 142.185 124.688 142.008 124.875C141.831 125.062 141.69 125.286 141.586 125.547C141.487 125.802 141.422 126.083 141.391 126.391L140.984 126.625C140.984 126.115 141.034 125.635 141.133 125.188C141.237 124.74 141.396 124.344 141.609 124C141.823 123.651 142.094 123.38 142.422 123.188C142.755 122.99 143.151 122.891 143.609 122.891C143.714 122.891 143.833 122.904 143.969 122.93C144.104 122.951 144.198 122.974 144.25 123ZM148.102 130.625L150.453 123.047H152L148.609 132.805C148.531 133.013 148.427 133.237 148.297 133.477C148.172 133.721 148.01 133.953 147.812 134.172C147.615 134.391 147.375 134.568 147.094 134.703C146.818 134.844 146.487 134.914 146.102 134.914C145.987 134.914 145.841 134.898 145.664 134.867C145.487 134.836 145.362 134.81 145.289 134.789L145.281 133.617C145.323 133.622 145.388 133.628 145.477 133.633C145.57 133.643 145.635 133.648 145.672 133.648C146 133.648 146.279 133.604 146.508 133.516C146.737 133.432 146.93 133.289 147.086 133.086C147.247 132.888 147.385 132.615 147.5 132.266L148.102 130.625ZM146.375 123.047L148.57 129.609L148.945 131.133L147.906 131.664L144.797 123.047H146.375Z" fill="#222222"/>
<path d="M36.4955 178.029C40.0878 178.029 43 175.112 43 171.514C43 167.917 40.0878 165 36.4955 165C32.9032 165 29.991 167.917 29.991 171.514C29.991 172.233 30.1073 172.925 30.322 173.571L24.1712 179.229C24.1141 179.286 24 179.606 24 180.429V181.8C24 182.76 24.7988 183 25.1982 183H27.5946C28.5532 183 29.1351 181.8 29.1351 181.114C29.1351 180.714 29.3748 179.914 30.3333 179.914H32.045C32.3303 179.914 32.9009 179.743 32.9009 179.057C32.9009 178.371 33.7094 177.791 34 177.5C34.8486 177.906 35.4921 178.029 36.4955 178.029Z" stroke="#868686" stroke-width="1.5"/>
<path d="M37.8649 170.657C37.8649 170.941 37.635 171.171 37.3514 171.171C37.0678 171.171 36.8379 170.941 36.8379 170.657C36.8379 170.373 37.0678 170.143 37.3514 170.143C37.635 170.143 37.8649 170.373 37.8649 170.657Z" fill="#868686" stroke="#868686" stroke-width="1.5"/>
<path d="M68.5156 174.039H65.4766V172.812H68.5156C69.1042 172.812 69.5807 172.719 69.9453 172.531C70.3099 172.344 70.5755 172.083 70.7422 171.75C70.9141 171.417 71 171.036 71 170.609C71 170.219 70.9141 169.852 70.7422 169.508C70.5755 169.164 70.3099 168.888 69.9453 168.68C69.5807 168.466 69.1042 168.359 68.5156 168.359H65.8281V178.5H64.3203V167.125H68.5156C69.375 167.125 70.1016 167.273 70.6953 167.57C71.2891 167.867 71.7396 168.279 72.0469 168.805C72.3542 169.326 72.5078 169.922 72.5078 170.594C72.5078 171.323 72.3542 171.945 72.0469 172.461C71.7396 172.977 71.2891 173.37 70.6953 173.641C70.1016 173.906 69.375 174.039 68.5156 174.039ZM79.0859 177.055V172.703C79.0859 172.37 79.0182 172.081 78.8828 171.836C78.7526 171.586 78.5547 171.393 78.2891 171.258C78.0234 171.122 77.6953 171.055 77.3047 171.055C76.9401 171.055 76.6198 171.117 76.3438 171.242C76.0729 171.367 75.8594 171.531 75.7031 171.734C75.5521 171.938 75.4766 172.156 75.4766 172.391H74.0312C74.0312 172.089 74.1094 171.789 74.2656 171.492C74.4219 171.195 74.6458 170.927 74.9375 170.688C75.2344 170.443 75.5885 170.25 76 170.109C76.4167 169.964 76.8802 169.891 77.3906 169.891C78.0052 169.891 78.5469 169.995 79.0156 170.203C79.4896 170.411 79.8594 170.727 80.125 171.148C80.3958 171.565 80.5312 172.089 80.5312 172.719V176.656C80.5312 176.938 80.5547 177.237 80.6016 177.555C80.6536 177.872 80.7292 178.146 80.8281 178.375V178.5H79.3203C79.2474 178.333 79.1901 178.112 79.1484 177.836C79.1068 177.555 79.0859 177.294 79.0859 177.055ZM79.3359 173.375L79.3516 174.391H77.8906C77.4792 174.391 77.112 174.424 76.7891 174.492C76.4661 174.555 76.1953 174.651 75.9766 174.781C75.7578 174.911 75.5911 175.076 75.4766 175.273C75.362 175.466 75.3047 175.693 75.3047 175.953C75.3047 176.219 75.3646 176.461 75.4844 176.68C75.6042 176.898 75.7839 177.073 76.0234 177.203C76.2682 177.328 76.5677 177.391 76.9219 177.391C77.3646 177.391 77.7552 177.297 78.0938 177.109C78.4323 176.922 78.7005 176.693 78.8984 176.422C79.1016 176.151 79.2109 175.888 79.2266 175.633L79.8438 176.328C79.8073 176.547 79.7083 176.789 79.5469 177.055C79.3854 177.32 79.1693 177.576 78.8984 177.82C78.6328 178.06 78.3151 178.26 77.9453 178.422C77.5807 178.578 77.1693 178.656 76.7109 178.656C76.138 178.656 75.6354 178.544 75.2031 178.32C74.776 178.096 74.4427 177.797 74.2031 177.422C73.9688 177.042 73.8516 176.617 73.8516 176.148C73.8516 175.695 73.9401 175.297 74.1172 174.953C74.2943 174.604 74.5495 174.315 74.8828 174.086C75.2161 173.852 75.6172 173.674 76.0859 173.555C76.5547 173.435 77.0781 173.375 77.6562 173.375H79.3359ZM87.7266 176.258C87.7266 176.049 87.6797 175.857 87.5859 175.68C87.4974 175.497 87.3125 175.333 87.0312 175.188C86.7552 175.036 86.3385 174.906 85.7812 174.797C85.3125 174.698 84.888 174.581 84.5078 174.445C84.1328 174.31 83.8125 174.146 83.5469 173.953C83.2865 173.76 83.0859 173.534 82.9453 173.273C82.8047 173.013 82.7344 172.708 82.7344 172.359C82.7344 172.026 82.8073 171.711 82.9531 171.414C83.1042 171.117 83.3151 170.854 83.5859 170.625C83.862 170.396 84.1927 170.216 84.5781 170.086C84.9635 169.956 85.3932 169.891 85.8672 169.891C86.5443 169.891 87.1224 170.01 87.6016 170.25C88.0807 170.49 88.4479 170.81 88.7031 171.211C88.9583 171.607 89.0859 172.047 89.0859 172.531H87.6406C87.6406 172.297 87.5703 172.07 87.4297 171.852C87.2943 171.628 87.0938 171.443 86.8281 171.297C86.5677 171.151 86.2474 171.078 85.8672 171.078C85.4661 171.078 85.1406 171.141 84.8906 171.266C84.6458 171.385 84.4661 171.539 84.3516 171.727C84.2422 171.914 84.1875 172.112 84.1875 172.32C84.1875 172.477 84.2135 172.617 84.2656 172.742C84.3229 172.862 84.4219 172.974 84.5625 173.078C84.7031 173.177 84.901 173.271 85.1562 173.359C85.4115 173.448 85.737 173.536 86.1328 173.625C86.8255 173.781 87.3958 173.969 87.8438 174.188C88.2917 174.406 88.625 174.674 88.8438 174.992C89.0625 175.31 89.1719 175.695 89.1719 176.148C89.1719 176.518 89.0938 176.857 88.9375 177.164C88.7865 177.471 88.5651 177.737 88.2734 177.961C87.987 178.18 87.6432 178.352 87.2422 178.477C86.8464 178.596 86.401 178.656 85.9062 178.656C85.1615 178.656 84.5312 178.523 84.0156 178.258C83.5 177.992 83.1094 177.648 82.8438 177.227C82.5781 176.805 82.4453 176.359 82.4453 175.891H83.8984C83.9193 176.286 84.0339 176.602 84.2422 176.836C84.4505 177.065 84.7057 177.229 85.0078 177.328C85.3099 177.422 85.6094 177.469 85.9062 177.469C86.3021 177.469 86.6328 177.417 86.8984 177.312C87.1693 177.208 87.375 177.065 87.5156 176.883C87.6562 176.701 87.7266 176.492 87.7266 176.258ZM95.9922 176.258C95.9922 176.049 95.9453 175.857 95.8516 175.68C95.763 175.497 95.5781 175.333 95.2969 175.188C95.0208 175.036 94.6042 174.906 94.0469 174.797C93.5781 174.698 93.1536 174.581 92.7734 174.445C92.3984 174.31 92.0781 174.146 91.8125 173.953C91.5521 173.76 91.3516 173.534 91.2109 173.273C91.0703 173.013 91 172.708 91 172.359C91 172.026 91.0729 171.711 91.2188 171.414C91.3698 171.117 91.5807 170.854 91.8516 170.625C92.1276 170.396 92.4583 170.216 92.8438 170.086C93.2292 169.956 93.6589 169.891 94.1328 169.891C94.8099 169.891 95.388 170.01 95.8672 170.25C96.3464 170.49 96.7135 170.81 96.9688 171.211C97.224 171.607 97.3516 172.047 97.3516 172.531H95.9062C95.9062 172.297 95.8359 172.07 95.6953 171.852C95.5599 171.628 95.3594 171.443 95.0938 171.297C94.8333 171.151 94.513 171.078 94.1328 171.078C93.7318 171.078 93.4062 171.141 93.1562 171.266C92.9115 171.385 92.7318 171.539 92.6172 171.727C92.5078 171.914 92.4531 172.112 92.4531 172.32C92.4531 172.477 92.4792 172.617 92.5312 172.742C92.5885 172.862 92.6875 172.974 92.8281 173.078C92.9688 173.177 93.1667 173.271 93.4219 173.359C93.6771 173.448 94.0026 173.536 94.3984 173.625C95.0911 173.781 95.6615 173.969 96.1094 174.188C96.5573 174.406 96.8906 174.674 97.1094 174.992C97.3281 175.31 97.4375 175.695 97.4375 176.148C97.4375 176.518 97.3594 176.857 97.2031 177.164C97.0521 177.471 96.8307 177.737 96.5391 177.961C96.2526 178.18 95.9089 178.352 95.5078 178.477C95.112 178.596 94.6667 178.656 94.1719 178.656C93.4271 178.656 92.7969 178.523 92.2812 178.258C91.7656 177.992 91.375 177.648 91.1094 177.227C90.8438 176.805 90.7109 176.359 90.7109 175.891H92.1641C92.1849 176.286 92.2995 176.602 92.5078 176.836C92.7161 177.065 92.9714 177.229 93.2734 177.328C93.5755 177.422 93.875 177.469 94.1719 177.469C94.5677 177.469 94.8984 177.417 95.1641 177.312C95.4349 177.208 95.6406 177.065 95.7812 176.883C95.9219 176.701 95.9922 176.492 95.9922 176.258ZM102.719 177.469C103.062 177.469 103.38 177.398 103.672 177.258C103.964 177.117 104.203 176.924 104.391 176.68C104.578 176.43 104.685 176.146 104.711 175.828H106.086C106.06 176.328 105.891 176.794 105.578 177.227C105.271 177.654 104.867 178 104.367 178.266C103.867 178.526 103.318 178.656 102.719 178.656C102.083 178.656 101.529 178.544 101.055 178.32C100.586 178.096 100.195 177.789 99.8828 177.398C99.5755 177.008 99.3438 176.56 99.1875 176.055C99.0365 175.544 98.9609 175.005 98.9609 174.438V174.109C98.9609 173.542 99.0365 173.005 99.1875 172.5C99.3438 171.99 99.5755 171.539 99.8828 171.148C100.195 170.758 100.586 170.451 101.055 170.227C101.529 170.003 102.083 169.891 102.719 169.891C103.38 169.891 103.958 170.026 104.453 170.297C104.948 170.562 105.336 170.927 105.617 171.391C105.904 171.849 106.06 172.37 106.086 172.953H104.711C104.685 172.604 104.586 172.289 104.414 172.008C104.247 171.727 104.018 171.503 103.727 171.336C103.44 171.164 103.104 171.078 102.719 171.078C102.276 171.078 101.904 171.167 101.602 171.344C101.305 171.516 101.068 171.75 100.891 172.047C100.719 172.339 100.594 172.664 100.516 173.023C100.443 173.378 100.406 173.74 100.406 174.109V174.438C100.406 174.807 100.443 175.172 100.516 175.531C100.589 175.891 100.711 176.216 100.883 176.508C101.06 176.799 101.297 177.034 101.594 177.211C101.896 177.383 102.271 177.469 102.719 177.469ZM107.328 174.367V174.188C107.328 173.578 107.417 173.013 107.594 172.492C107.771 171.966 108.026 171.51 108.359 171.125C108.693 170.734 109.096 170.432 109.57 170.219C110.044 170 110.576 169.891 111.164 169.891C111.758 169.891 112.292 170 112.766 170.219C113.245 170.432 113.651 170.734 113.984 171.125C114.323 171.51 114.581 171.966 114.758 172.492C114.935 173.013 115.023 173.578 115.023 174.188V174.367C115.023 174.977 114.935 175.542 114.758 176.062C114.581 176.583 114.323 177.039 113.984 177.43C113.651 177.815 113.247 178.117 112.773 178.336C112.305 178.549 111.773 178.656 111.18 178.656C110.586 178.656 110.052 178.549 109.578 178.336C109.104 178.117 108.698 177.815 108.359 177.43C108.026 177.039 107.771 176.583 107.594 176.062C107.417 175.542 107.328 174.977 107.328 174.367ZM108.773 174.188V174.367C108.773 174.789 108.823 175.188 108.922 175.562C109.021 175.932 109.169 176.26 109.367 176.547C109.57 176.833 109.823 177.06 110.125 177.227C110.427 177.388 110.779 177.469 111.18 177.469C111.576 177.469 111.922 177.388 112.219 177.227C112.521 177.06 112.771 176.833 112.969 176.547C113.167 176.26 113.315 175.932 113.414 175.562C113.518 175.188 113.57 174.789 113.57 174.367V174.188C113.57 173.771 113.518 173.378 113.414 173.008C113.315 172.633 113.164 172.302 112.961 172.016C112.763 171.724 112.513 171.495 112.211 171.328C111.914 171.161 111.565 171.078 111.164 171.078C110.768 171.078 110.419 171.161 110.117 171.328C109.82 171.495 109.57 171.724 109.367 172.016C109.169 172.302 109.021 172.633 108.922 173.008C108.823 173.378 108.773 173.771 108.773 174.188ZM122.164 176.859V166.5H123.617V178.5H122.289L122.164 176.859ZM116.477 174.367V174.203C116.477 173.557 116.555 172.971 116.711 172.445C116.872 171.914 117.099 171.458 117.391 171.078C117.688 170.698 118.039 170.406 118.445 170.203C118.857 169.995 119.315 169.891 119.82 169.891C120.352 169.891 120.815 169.984 121.211 170.172C121.612 170.354 121.951 170.622 122.227 170.977C122.508 171.326 122.729 171.747 122.891 172.242C123.052 172.737 123.164 173.297 123.227 173.922V174.641C123.169 175.26 123.057 175.818 122.891 176.312C122.729 176.807 122.508 177.229 122.227 177.578C121.951 177.927 121.612 178.195 121.211 178.383C120.81 178.565 120.341 178.656 119.805 178.656C119.31 178.656 118.857 178.549 118.445 178.336C118.039 178.122 117.688 177.823 117.391 177.438C117.099 177.052 116.872 176.599 116.711 176.078C116.555 175.552 116.477 174.982 116.477 174.367ZM117.93 174.203V174.367C117.93 174.789 117.971 175.185 118.055 175.555C118.143 175.924 118.279 176.25 118.461 176.531C118.643 176.812 118.875 177.034 119.156 177.195C119.438 177.352 119.773 177.43 120.164 177.43C120.643 177.43 121.036 177.328 121.344 177.125C121.656 176.922 121.906 176.654 122.094 176.32C122.281 175.987 122.427 175.625 122.531 175.234V173.352C122.469 173.065 122.378 172.789 122.258 172.523C122.143 172.253 121.992 172.013 121.805 171.805C121.622 171.591 121.396 171.422 121.125 171.297C120.859 171.172 120.544 171.109 120.18 171.109C119.784 171.109 119.443 171.193 119.156 171.359C118.875 171.521 118.643 171.745 118.461 172.031C118.279 172.312 118.143 172.641 118.055 173.016C117.971 173.385 117.93 173.781 117.93 174.203ZM129.375 178.656C128.786 178.656 128.253 178.557 127.773 178.359C127.299 178.156 126.891 177.872 126.547 177.508C126.208 177.143 125.948 176.711 125.766 176.211C125.583 175.711 125.492 175.164 125.492 174.57V174.242C125.492 173.555 125.594 172.943 125.797 172.406C126 171.865 126.276 171.406 126.625 171.031C126.974 170.656 127.37 170.372 127.812 170.18C128.255 169.987 128.714 169.891 129.188 169.891C129.792 169.891 130.312 169.995 130.75 170.203C131.193 170.411 131.555 170.703 131.836 171.078C132.117 171.448 132.326 171.885 132.461 172.391C132.596 172.891 132.664 173.438 132.664 174.031V174.68H126.352V173.5H131.219V173.391C131.198 173.016 131.12 172.651 130.984 172.297C130.854 171.943 130.646 171.651 130.359 171.422C130.073 171.193 129.682 171.078 129.188 171.078C128.859 171.078 128.557 171.148 128.281 171.289C128.005 171.424 127.768 171.628 127.57 171.898C127.372 172.169 127.219 172.5 127.109 172.891C127 173.281 126.945 173.732 126.945 174.242V174.57C126.945 174.971 127 175.349 127.109 175.703C127.224 176.052 127.388 176.359 127.602 176.625C127.82 176.891 128.083 177.099 128.391 177.25C128.703 177.401 129.057 177.477 129.453 177.477C129.964 177.477 130.396 177.372 130.75 177.164C131.104 176.956 131.414 176.677 131.68 176.328L132.555 177.023C132.372 177.299 132.141 177.562 131.859 177.812C131.578 178.062 131.232 178.266 130.82 178.422C130.414 178.578 129.932 178.656 129.375 178.656ZM139.891 166.5V178.5H138.438V166.5H139.891ZM141.828 174.367V174.188C141.828 173.578 141.917 173.013 142.094 172.492C142.271 171.966 142.526 171.51 142.859 171.125C143.193 170.734 143.596 170.432 144.07 170.219C144.544 170 145.076 169.891 145.664 169.891C146.258 169.891 146.792 170 147.266 170.219C147.745 170.432 148.151 170.734 148.484 171.125C148.823 171.51 149.081 171.966 149.258 172.492C149.435 173.013 149.523 173.578 149.523 174.188V174.367C149.523 174.977 149.435 175.542 149.258 176.062C149.081 176.583 148.823 177.039 148.484 177.43C148.151 177.815 147.747 178.117 147.273 178.336C146.805 178.549 146.273 178.656 145.68 178.656C145.086 178.656 144.552 178.549 144.078 178.336C143.604 178.117 143.198 177.815 142.859 177.43C142.526 177.039 142.271 176.583 142.094 176.062C141.917 175.542 141.828 174.977 141.828 174.367ZM143.273 174.188V174.367C143.273 174.789 143.323 175.188 143.422 175.562C143.521 175.932 143.669 176.26 143.867 176.547C144.07 176.833 144.323 177.06 144.625 177.227C144.927 177.388 145.279 177.469 145.68 177.469C146.076 177.469 146.422 177.388 146.719 177.227C147.021 177.06 147.271 176.833 147.469 176.547C147.667 176.26 147.815 175.932 147.914 175.562C148.018 175.188 148.07 174.789 148.07 174.367V174.188C148.07 173.771 148.018 173.378 147.914 173.008C147.815 172.633 147.664 172.302 147.461 172.016C147.263 171.724 147.013 171.495 146.711 171.328C146.414 171.161 146.065 171.078 145.664 171.078C145.268 171.078 144.919 171.161 144.617 171.328C144.32 171.495 144.07 171.724 143.867 172.016C143.669 172.302 143.521 172.633 143.422 173.008C143.323 173.378 143.273 173.771 143.273 174.188ZM154.719 177.469C155.062 177.469 155.38 177.398 155.672 177.258C155.964 177.117 156.203 176.924 156.391 176.68C156.578 176.43 156.685 176.146 156.711 175.828H158.086C158.06 176.328 157.891 176.794 157.578 177.227C157.271 177.654 156.867 178 156.367 178.266C155.867 178.526 155.318 178.656 154.719 178.656C154.083 178.656 153.529 178.544 153.055 178.32C152.586 178.096 152.195 177.789 151.883 177.398C151.576 177.008 151.344 176.56 151.188 176.055C151.036 175.544 150.961 175.005 150.961 174.438V174.109C150.961 173.542 151.036 173.005 151.188 172.5C151.344 171.99 151.576 171.539 151.883 171.148C152.195 170.758 152.586 170.451 153.055 170.227C153.529 170.003 154.083 169.891 154.719 169.891C155.38 169.891 155.958 170.026 156.453 170.297C156.948 170.562 157.336 170.927 157.617 171.391C157.904 171.849 158.06 172.37 158.086 172.953H156.711C156.685 172.604 156.586 172.289 156.414 172.008C156.247 171.727 156.018 171.503 155.727 171.336C155.44 171.164 155.104 171.078 154.719 171.078C154.276 171.078 153.904 171.167 153.602 171.344C153.305 171.516 153.068 171.75 152.891 172.047C152.719 172.339 152.594 172.664 152.516 173.023C152.443 173.378 152.406 173.74 152.406 174.109V174.438C152.406 174.807 152.443 175.172 152.516 175.531C152.589 175.891 152.711 176.216 152.883 176.508C153.06 176.799 153.297 177.034 153.594 177.211C153.896 177.383 154.271 177.469 154.719 177.469ZM161.164 166.5V178.5H159.711V166.5H161.164ZM166.328 170.047L162.641 173.992L160.578 176.133L160.461 174.594L161.938 172.828L164.562 170.047H166.328ZM165.008 178.5L161.992 174.469L162.742 173.18L166.711 178.5H165.008Z" fill="#222222"/>
<rect width="219" height="47" transform="translate(4 197)" fill="white"/>
<rect width="27" height="27" transform="translate(20 207)" fill="white"/>
<path d="M27.351 220.166C27.351 220.581 27.6867 220.916 28.101 220.916C28.5152 220.916 28.851 220.581 28.851 220.166H27.351ZM31.202 212.5L31.952 212.5V212.5H31.202ZM30.4519 219.5C30.4519 219.914 30.7877 220.25 31.2019 220.25C31.6161 220.25 31.9519 219.914 31.9519 219.5H30.4519ZM33.5529 219.5C33.5529 219.914 33.8887 220.25 34.3029 220.25C34.7171 220.25 35.0529 219.914 35.0529 219.5H33.5529ZM35.5 232V232.75H35.5002L35.5 232ZM38.5 229.5L38.0594 228.893L37.9888 228.944L37.9318 229.011L38.5 229.5ZM40.3326 219.667L39.7398 219.207L39.7138 219.241L39.6917 219.277L40.3326 219.667ZM42.5253 219.394L42.0038 219.933L42.5253 219.394ZM42.7444 221.666L42.0781 221.322L42.7444 221.666ZM29.4703 231.25C28.8545 231.25 27.9326 230.7 27.1088 229.534C26.3162 228.412 25.75 226.894 25.75 225.333H24.25C24.25 227.239 24.9338 229.055 25.8837 230.399C26.8025 231.7 28.1158 232.75 29.4703 232.75V231.25ZM25.75 225.333V215.833H24.25V225.333H25.75ZM25.75 215.833C25.75 215.442 26.0848 215.083 26.5505 215.083V213.583C25.3036 213.583 24.25 214.567 24.25 215.833H25.75ZM26.5505 215.083C27.0162 215.083 27.351 215.442 27.351 215.833H28.851C28.851 214.567 27.7974 213.583 26.5505 213.583V215.083ZM27.351 215.833V220.166H28.851V215.833H27.351ZM28.851 213.333C28.851 212.942 29.1857 212.583 29.6514 212.583V211.083C28.4045 211.083 27.351 212.067 27.351 213.333H28.851ZM29.6514 212.583C30.1171 212.583 30.4519 212.942 30.4519 213.333H31.9519C31.9519 212.067 30.8983 211.083 29.6514 211.083V212.583ZM28.851 215.833V213.333H27.351V215.833H28.851ZM31.952 212.5C31.952 212.109 32.2867 211.75 32.7524 211.75V210.25C31.5055 210.25 30.452 211.234 30.452 212.5H31.952ZM32.7524 211.75C33.2181 211.75 33.5529 212.109 33.5529 212.5H35.0529C35.0529 211.234 33.9994 210.25 32.7524 210.25V211.75ZM30.4519 213.333V219.5H31.9519V213.333H30.4519ZM33.5529 212.5V219.5H35.0529V212.5H33.5529ZM35.0529 214.833C35.0529 214.442 35.3877 214.083 35.8534 214.083V212.583C34.6065 212.583 33.5529 213.567 33.5529 214.833H35.0529ZM35.8534 214.083C36.3191 214.083 36.6539 214.442 36.6539 214.833H38.1539C38.1539 213.567 37.1003 212.583 35.8534 212.583V214.083ZM36.6539 214.833V220.666H38.1539V214.833H36.6539ZM35.5002 232.75C35.7435 232.75 35.9562 232.652 36.0684 232.596C36.2078 232.526 36.3525 232.435 36.4918 232.339C36.7724 232.145 37.0915 231.888 37.4047 231.617C38.0292 231.076 38.6927 230.425 39.0682 229.989L37.9318 229.011C37.6182 229.375 37.0114 229.974 36.423 230.483C36.1298 230.737 35.8568 230.955 35.6395 231.105C35.5299 231.18 35.4491 231.228 35.3967 231.255C35.317 231.295 35.3714 231.25 35.4998 231.25L35.5002 232.75ZM40.9253 220.126C41.0649 219.946 41.2807 219.822 41.4968 219.788C41.7021 219.756 41.8748 219.808 42.0038 219.933L43.0468 218.855C41.998 217.84 40.4518 218.289 39.7398 219.207L40.9253 220.126ZM42.0038 219.933C42.2849 220.205 42.3482 220.8 42.0781 221.322L43.4107 222.011C43.8578 221.146 43.9767 219.754 43.0468 218.855L42.0038 219.933ZM42.0781 221.322C41.5367 222.37 40.7124 224.206 39.954 225.743C39.5633 226.534 39.1802 227.269 38.8319 227.849C38.6576 228.139 38.4984 228.381 38.3572 228.566C38.2093 228.761 38.109 228.857 38.0594 228.893L38.9406 230.107C39.1666 229.943 39.3717 229.71 39.5512 229.474C39.7374 229.229 39.9278 228.938 40.1179 228.621C40.4983 227.988 40.9028 227.21 41.2991 226.407C42.1144 224.754 42.861 223.074 43.4107 222.011L42.0781 221.322ZM40.3326 219.667C39.6917 219.277 39.6917 219.277 39.6918 219.277C39.6917 219.277 39.6918 219.277 39.6917 219.277C39.6917 219.277 39.6917 219.277 39.6916 219.277C39.6915 219.277 39.6912 219.278 39.6909 219.278C39.6902 219.279 39.6891 219.281 39.6876 219.284C39.6846 219.288 39.68 219.296 39.674 219.306C39.6618 219.326 39.6438 219.355 39.6204 219.393C39.5737 219.468 39.506 219.576 39.4231 219.706C39.2569 219.966 39.0315 220.311 38.7919 220.653C38.5495 221 38.3047 221.327 38.0984 221.561C37.9936 221.68 37.9165 221.754 37.8683 221.793C37.8444 221.812 37.8439 221.809 37.8647 221.799C37.8791 221.791 37.9624 221.75 38.093 221.75V223.25C38.2881 223.25 38.4455 223.186 38.5419 223.137C38.6447 223.085 38.7343 223.021 38.8069 222.963C38.9519 222.847 39.0941 222.7 39.2235 222.553C39.4856 222.256 39.7683 221.875 40.0212 221.513C40.2769 221.147 40.5145 220.784 40.6874 220.513C40.7741 220.377 40.8451 220.264 40.8946 220.184C40.9194 220.144 40.9388 220.113 40.9522 220.091C40.9589 220.08 40.964 220.071 40.9676 220.066C40.9694 220.063 40.9708 220.06 40.9717 220.059C40.9722 220.058 40.9726 220.057 40.9729 220.057C40.973 220.057 40.9731 220.057 40.9732 220.056C40.9733 220.056 40.9733 220.056 40.9733 220.056C40.9734 220.056 40.9734 220.056 40.3326 219.667ZM38.093 221.75C38.048 221.75 38.0993 221.741 38.1738 221.789C38.2532 221.841 38.2673 221.896 38.253 221.86C38.2349 221.814 38.2063 221.707 38.1851 221.497C38.1645 221.292 38.1539 221.022 38.1539 220.666H36.6539C36.6539 221.386 36.6898 221.981 36.8562 222.407C36.9496 222.645 37.1036 222.884 37.3608 223.05C37.6129 223.212 37.8795 223.25 38.093 223.25V221.75ZM30.452 212.5L30.4519 213.333L31.9519 213.333L31.952 212.5L30.452 212.5ZM29.4703 232.75H32.4852V231.25H29.4703V232.75ZM32.4852 232.75H35.5V231.25H32.4852V232.75Z" fill="#B92C31"/>
<path d="M68.3984 225.5H66.0234L66.0391 224.273H68.3984C69.2109 224.273 69.888 224.104 70.4297 223.766C70.9714 223.422 71.3776 222.943 71.6484 222.328C71.9245 221.708 72.0625 220.984 72.0625 220.156V219.461C72.0625 218.81 71.9844 218.232 71.8281 217.727C71.6719 217.216 71.4427 216.786 71.1406 216.438C70.8385 216.083 70.4688 215.815 70.0312 215.633C69.599 215.451 69.1016 215.359 68.5391 215.359H65.9766V214.125H68.5391C69.2839 214.125 69.9635 214.25 70.5781 214.5C71.1927 214.745 71.7214 215.102 72.1641 215.57C72.612 216.034 72.9557 216.596 73.1953 217.258C73.4349 217.914 73.5547 218.654 73.5547 219.477V220.156C73.5547 220.979 73.4349 221.721 73.1953 222.383C72.9557 223.039 72.6094 223.599 72.1562 224.062C71.7083 224.526 71.1667 224.883 70.5312 225.133C69.901 225.378 69.1901 225.5 68.3984 225.5ZM66.8281 214.125V225.5H65.3203V214.125H66.8281ZM79.1094 225.656C78.5208 225.656 77.987 225.557 77.5078 225.359C77.0339 225.156 76.625 224.872 76.2812 224.508C75.9427 224.143 75.6823 223.711 75.5 223.211C75.3177 222.711 75.2266 222.164 75.2266 221.57V221.242C75.2266 220.555 75.3281 219.943 75.5312 219.406C75.7344 218.865 76.0104 218.406 76.3594 218.031C76.7083 217.656 77.1042 217.372 77.5469 217.18C77.9896 216.987 78.4479 216.891 78.9219 216.891C79.526 216.891 80.0469 216.995 80.4844 217.203C80.9271 217.411 81.2891 217.703 81.5703 218.078C81.8516 218.448 82.0599 218.885 82.1953 219.391C82.3307 219.891 82.3984 220.438 82.3984 221.031V221.68H76.0859V220.5H80.9531V220.391C80.9323 220.016 80.8542 219.651 80.7188 219.297C80.5885 218.943 80.3802 218.651 80.0938 218.422C79.8073 218.193 79.4167 218.078 78.9219 218.078C78.5938 218.078 78.2917 218.148 78.0156 218.289C77.7396 218.424 77.5026 218.628 77.3047 218.898C77.1068 219.169 76.9531 219.5 76.8438 219.891C76.7344 220.281 76.6797 220.732 76.6797 221.242V221.57C76.6797 221.971 76.7344 222.349 76.8438 222.703C76.9583 223.052 77.1224 223.359 77.3359 223.625C77.5547 223.891 77.8177 224.099 78.125 224.25C78.4375 224.401 78.7917 224.477 79.1875 224.477C79.6979 224.477 80.1302 224.372 80.4844 224.164C80.8385 223.956 81.1484 223.677 81.4141 223.328L82.2891 224.023C82.1068 224.299 81.875 224.562 81.5938 224.812C81.3125 225.062 80.9661 225.266 80.5547 225.422C80.1484 225.578 79.6667 225.656 79.1094 225.656ZM85.6562 213.5V225.5H84.2031V213.5H85.6562ZM91.4844 225.656C90.8958 225.656 90.362 225.557 89.8828 225.359C89.4089 225.156 89 224.872 88.6562 224.508C88.3177 224.143 88.0573 223.711 87.875 223.211C87.6927 222.711 87.6016 222.164 87.6016 221.57V221.242C87.6016 220.555 87.7031 219.943 87.9062 219.406C88.1094 218.865 88.3854 218.406 88.7344 218.031C89.0833 217.656 89.4792 217.372 89.9219 217.18C90.3646 216.987 90.8229 216.891 91.2969 216.891C91.901 216.891 92.4219 216.995 92.8594 217.203C93.3021 217.411 93.6641 217.703 93.9453 218.078C94.2266 218.448 94.4349 218.885 94.5703 219.391C94.7057 219.891 94.7734 220.438 94.7734 221.031V221.68H88.4609V220.5H93.3281V220.391C93.3073 220.016 93.2292 219.651 93.0938 219.297C92.9635 218.943 92.7552 218.651 92.4688 218.422C92.1823 218.193 91.7917 218.078 91.2969 218.078C90.9688 218.078 90.6667 218.148 90.3906 218.289C90.1146 218.424 89.8776 218.628 89.6797 218.898C89.4818 219.169 89.3281 219.5 89.2188 219.891C89.1094 220.281 89.0547 220.732 89.0547 221.242V221.57C89.0547 221.971 89.1094 222.349 89.2188 222.703C89.3333 223.052 89.4974 223.359 89.7109 223.625C89.9297 223.891 90.1927 224.099 90.5 224.25C90.8125 224.401 91.1667 224.477 91.5625 224.477C92.0729 224.477 92.5052 224.372 92.8594 224.164C93.2135 223.956 93.5234 223.677 93.7891 223.328L94.6641 224.023C94.4818 224.299 94.25 224.562 93.9688 224.812C93.6875 225.062 93.3411 225.266 92.9297 225.422C92.5234 225.578 92.0417 225.656 91.4844 225.656ZM100 217.047V218.156H95.4297V217.047H100ZM96.9766 214.992H98.4219V223.406C98.4219 223.693 98.4661 223.909 98.5547 224.055C98.6432 224.201 98.7578 224.297 98.8984 224.344C99.0391 224.391 99.1901 224.414 99.3516 224.414C99.4714 224.414 99.5964 224.404 99.7266 224.383C99.862 224.357 99.9635 224.336 100.031 224.32L100.039 225.5C99.9245 225.536 99.7734 225.57 99.5859 225.602C99.4036 225.638 99.1823 225.656 98.9219 225.656C98.5677 225.656 98.2422 225.586 97.9453 225.445C97.6484 225.305 97.4115 225.07 97.2344 224.742C97.0625 224.409 96.9766 223.961 96.9766 223.398V214.992ZM105.203 225.656C104.615 225.656 104.081 225.557 103.602 225.359C103.128 225.156 102.719 224.872 102.375 224.508C102.036 224.143 101.776 223.711 101.594 223.211C101.411 222.711 101.32 222.164 101.32 221.57V221.242C101.32 220.555 101.422 219.943 101.625 219.406C101.828 218.865 102.104 218.406 102.453 218.031C102.802 217.656 103.198 217.372 103.641 217.18C104.083 216.987 104.542 216.891 105.016 216.891C105.62 216.891 106.141 216.995 106.578 217.203C107.021 217.411 107.383 217.703 107.664 218.078C107.945 218.448 108.154 218.885 108.289 219.391C108.424 219.891 108.492 220.438 108.492 221.031V221.68H102.18V220.5H107.047V220.391C107.026 220.016 106.948 219.651 106.812 219.297C106.682 218.943 106.474 218.651 106.188 218.422C105.901 218.193 105.51 218.078 105.016 218.078C104.688 218.078 104.385 218.148 104.109 218.289C103.833 218.424 103.596 218.628 103.398 218.898C103.201 219.169 103.047 219.5 102.938 219.891C102.828 220.281 102.773 220.732 102.773 221.242V221.57C102.773 221.971 102.828 222.349 102.938 222.703C103.052 223.052 103.216 223.359 103.43 223.625C103.648 223.891 103.911 224.099 104.219 224.25C104.531 224.401 104.885 224.477 105.281 224.477C105.792 224.477 106.224 224.372 106.578 224.164C106.932 223.956 107.242 223.677 107.508 223.328L108.383 224.023C108.201 224.299 107.969 224.562 107.688 224.812C107.406 225.062 107.06 225.266 106.648 225.422C106.242 225.578 105.76 225.656 105.203 225.656ZM119.133 224.055V219.703C119.133 219.37 119.065 219.081 118.93 218.836C118.799 218.586 118.602 218.393 118.336 218.258C118.07 218.122 117.742 218.055 117.352 218.055C116.987 218.055 116.667 218.117 116.391 218.242C116.12 218.367 115.906 218.531 115.75 218.734C115.599 218.938 115.523 219.156 115.523 219.391H114.078C114.078 219.089 114.156 218.789 114.312 218.492C114.469 218.195 114.693 217.927 114.984 217.688C115.281 217.443 115.635 217.25 116.047 217.109C116.464 216.964 116.927 216.891 117.438 216.891C118.052 216.891 118.594 216.995 119.062 217.203C119.536 217.411 119.906 217.727 120.172 218.148C120.443 218.565 120.578 219.089 120.578 219.719V223.656C120.578 223.938 120.602 224.237 120.648 224.555C120.701 224.872 120.776 225.146 120.875 225.375V225.5H119.367C119.294 225.333 119.237 225.112 119.195 224.836C119.154 224.555 119.133 224.294 119.133 224.055ZM119.383 220.375L119.398 221.391H117.938C117.526 221.391 117.159 221.424 116.836 221.492C116.513 221.555 116.242 221.651 116.023 221.781C115.805 221.911 115.638 222.076 115.523 222.273C115.409 222.466 115.352 222.693 115.352 222.953C115.352 223.219 115.411 223.461 115.531 223.68C115.651 223.898 115.831 224.073 116.07 224.203C116.315 224.328 116.615 224.391 116.969 224.391C117.411 224.391 117.802 224.297 118.141 224.109C118.479 223.922 118.747 223.693 118.945 223.422C119.148 223.151 119.258 222.888 119.273 222.633L119.891 223.328C119.854 223.547 119.755 223.789 119.594 224.055C119.432 224.32 119.216 224.576 118.945 224.82C118.68 225.06 118.362 225.26 117.992 225.422C117.628 225.578 117.216 225.656 116.758 225.656C116.185 225.656 115.682 225.544 115.25 225.32C114.823 225.096 114.49 224.797 114.25 224.422C114.016 224.042 113.898 223.617 113.898 223.148C113.898 222.695 113.987 222.297 114.164 221.953C114.341 221.604 114.596 221.315 114.93 221.086C115.263 220.852 115.664 220.674 116.133 220.555C116.602 220.435 117.125 220.375 117.703 220.375H119.383ZM124.297 218.852V225.5H122.852V217.047H124.219L124.297 218.852ZM123.953 220.953L123.352 220.93C123.357 220.352 123.443 219.818 123.609 219.328C123.776 218.833 124.01 218.404 124.312 218.039C124.615 217.674 124.974 217.393 125.391 217.195C125.812 216.992 126.279 216.891 126.789 216.891C127.206 216.891 127.581 216.948 127.914 217.062C128.247 217.172 128.531 217.349 128.766 217.594C129.005 217.839 129.188 218.156 129.312 218.547C129.438 218.932 129.5 219.404 129.5 219.961V225.5H128.047V219.945C128.047 219.503 127.982 219.148 127.852 218.883C127.721 218.612 127.531 218.417 127.281 218.297C127.031 218.172 126.724 218.109 126.359 218.109C126 218.109 125.672 218.185 125.375 218.336C125.083 218.487 124.831 218.695 124.617 218.961C124.409 219.227 124.245 219.531 124.125 219.875C124.01 220.214 123.953 220.573 123.953 220.953ZM137.023 223.859V213.5H138.477V225.5H137.148L137.023 223.859ZM131.336 221.367V221.203C131.336 220.557 131.414 219.971 131.57 219.445C131.732 218.914 131.958 218.458 132.25 218.078C132.547 217.698 132.898 217.406 133.305 217.203C133.716 216.995 134.174 216.891 134.68 216.891C135.211 216.891 135.674 216.984 136.07 217.172C136.471 217.354 136.81 217.622 137.086 217.977C137.367 218.326 137.589 218.747 137.75 219.242C137.911 219.737 138.023 220.297 138.086 220.922V221.641C138.029 222.26 137.917 222.818 137.75 223.312C137.589 223.807 137.367 224.229 137.086 224.578C136.81 224.927 136.471 225.195 136.07 225.383C135.669 225.565 135.201 225.656 134.664 225.656C134.169 225.656 133.716 225.549 133.305 225.336C132.898 225.122 132.547 224.823 132.25 224.438C131.958 224.052 131.732 223.599 131.57 223.078C131.414 222.552 131.336 221.982 131.336 221.367ZM132.789 221.203V221.367C132.789 221.789 132.831 222.185 132.914 222.555C133.003 222.924 133.138 223.25 133.32 223.531C133.503 223.812 133.734 224.034 134.016 224.195C134.297 224.352 134.633 224.43 135.023 224.43C135.503 224.43 135.896 224.328 136.203 224.125C136.516 223.922 136.766 223.654 136.953 223.32C137.141 222.987 137.286 222.625 137.391 222.234V220.352C137.328 220.065 137.237 219.789 137.117 219.523C137.003 219.253 136.852 219.013 136.664 218.805C136.482 218.591 136.255 218.422 135.984 218.297C135.719 218.172 135.404 218.109 135.039 218.109C134.643 218.109 134.302 218.193 134.016 218.359C133.734 218.521 133.503 218.745 133.32 219.031C133.138 219.312 133.003 219.641 132.914 220.016C132.831 220.385 132.789 220.781 132.789 221.203ZM148.969 220.18H146.086L146.07 218.969H148.688C149.12 218.969 149.497 218.896 149.82 218.75C150.143 218.604 150.393 218.396 150.57 218.125C150.753 217.849 150.844 217.521 150.844 217.141C150.844 216.724 150.763 216.385 150.602 216.125C150.445 215.859 150.203 215.667 149.875 215.547C149.552 215.422 149.141 215.359 148.641 215.359H146.422V225.5H144.914V214.125H148.641C149.224 214.125 149.745 214.185 150.203 214.305C150.661 214.419 151.049 214.602 151.367 214.852C151.69 215.096 151.935 215.409 152.102 215.789C152.268 216.169 152.352 216.625 152.352 217.156C152.352 217.625 152.232 218.049 151.992 218.43C151.753 218.805 151.419 219.112 150.992 219.352C150.57 219.591 150.076 219.745 149.508 219.812L148.969 220.18ZM148.898 225.5H145.492L146.344 224.273H148.898C149.378 224.273 149.784 224.19 150.117 224.023C150.456 223.857 150.714 223.622 150.891 223.32C151.068 223.013 151.156 222.651 151.156 222.234C151.156 221.812 151.081 221.448 150.93 221.141C150.779 220.833 150.542 220.596 150.219 220.43C149.896 220.263 149.479 220.18 148.969 220.18H146.82L146.836 218.969H149.773L150.094 219.406C150.641 219.453 151.104 219.609 151.484 219.875C151.865 220.135 152.154 220.469 152.352 220.875C152.555 221.281 152.656 221.729 152.656 222.219C152.656 222.927 152.5 223.526 152.188 224.016C151.88 224.5 151.445 224.87 150.883 225.125C150.32 225.375 149.659 225.5 148.898 225.5ZM156.234 213.5V225.5H154.781V213.5H156.234ZM158.172 221.367V221.188C158.172 220.578 158.26 220.013 158.438 219.492C158.615 218.966 158.87 218.51 159.203 218.125C159.536 217.734 159.94 217.432 160.414 217.219C160.888 217 161.419 216.891 162.008 216.891C162.602 216.891 163.135 217 163.609 217.219C164.089 217.432 164.495 217.734 164.828 218.125C165.167 218.51 165.424 218.966 165.602 219.492C165.779 220.013 165.867 220.578 165.867 221.188V221.367C165.867 221.977 165.779 222.542 165.602 223.062C165.424 223.583 165.167 224.039 164.828 224.43C164.495 224.815 164.091 225.117 163.617 225.336C163.148 225.549 162.617 225.656 162.023 225.656C161.43 225.656 160.896 225.549 160.422 225.336C159.948 225.117 159.542 224.815 159.203 224.43C158.87 224.039 158.615 223.583 158.438 223.062C158.26 222.542 158.172 221.977 158.172 221.367ZM159.617 221.188V221.367C159.617 221.789 159.667 222.188 159.766 222.562C159.865 222.932 160.013 223.26 160.211 223.547C160.414 223.833 160.667 224.06 160.969 224.227C161.271 224.388 161.622 224.469 162.023 224.469C162.419 224.469 162.766 224.388 163.062 224.227C163.365 224.06 163.615 223.833 163.812 223.547C164.01 223.26 164.159 222.932 164.258 222.562C164.362 222.188 164.414 221.789 164.414 221.367V221.188C164.414 220.771 164.362 220.378 164.258 220.008C164.159 219.633 164.008 219.302 163.805 219.016C163.607 218.724 163.357 218.495 163.055 218.328C162.758 218.161 162.409 218.078 162.008 218.078C161.612 218.078 161.263 218.161 160.961 218.328C160.664 218.495 160.414 218.724 160.211 219.016C160.013 219.302 159.865 219.633 159.766 220.008C159.667 220.378 159.617 220.771 159.617 221.188ZM171.062 224.469C171.406 224.469 171.724 224.398 172.016 224.258C172.307 224.117 172.547 223.924 172.734 223.68C172.922 223.43 173.029 223.146 173.055 222.828H174.43C174.404 223.328 174.234 223.794 173.922 224.227C173.615 224.654 173.211 225 172.711 225.266C172.211 225.526 171.661 225.656 171.062 225.656C170.427 225.656 169.872 225.544 169.398 225.32C168.93 225.096 168.539 224.789 168.227 224.398C167.919 224.008 167.688 223.56 167.531 223.055C167.38 222.544 167.305 222.005 167.305 221.438V221.109C167.305 220.542 167.38 220.005 167.531 219.5C167.688 218.99 167.919 218.539 168.227 218.148C168.539 217.758 168.93 217.451 169.398 217.227C169.872 217.003 170.427 216.891 171.062 216.891C171.724 216.891 172.302 217.026 172.797 217.297C173.292 217.562 173.68 217.927 173.961 218.391C174.247 218.849 174.404 219.37 174.43 219.953H173.055C173.029 219.604 172.93 219.289 172.758 219.008C172.591 218.727 172.362 218.503 172.07 218.336C171.784 218.164 171.448 218.078 171.062 218.078C170.62 218.078 170.247 218.167 169.945 218.344C169.648 218.516 169.411 218.75 169.234 219.047C169.062 219.339 168.938 219.664 168.859 220.023C168.786 220.378 168.75 220.74 168.75 221.109V221.438C168.75 221.807 168.786 222.172 168.859 222.531C168.932 222.891 169.055 223.216 169.227 223.508C169.404 223.799 169.641 224.034 169.938 224.211C170.24 224.383 170.615 224.469 171.062 224.469ZM177.508 213.5V225.5H176.055V213.5H177.508ZM182.672 217.047L178.984 220.992L176.922 223.133L176.805 221.594L178.281 219.828L180.906 217.047H182.672ZM181.352 225.5L178.336 221.469L179.086 220.18L183.055 225.5H181.352Z" fill="#B92C31"/>
</g>
</g>
<defs>
<filter id="filter0_d_4_384" x="0.5" y="0.5" width="226" height="248" filterUnits="userSpaceOnUse" color-interpolation-filters="sRGB">
<feFlood flood-opacity="0" result="BackgroundImageFix"/>
<feColorMatrix in="SourceAlpha" type="matrix" values="0 0 0 0 0 0 0 0 0 0 0 0 0 0 0 0 0 0 127 0" result="hardAlpha"/>
<feMorphology radius="0.5" operator="dilate" in="SourceAlpha" result="effect1_dropShadow_4_384"/>
<feOffset dy="1"/>
<feGaussianBlur stdDeviation="1.5"/>
<feComposite in2="hardAlpha" operator="out"/>
<feColorMatrix type="matrix" values="0 0 0 0 0 0 0 0 0 0 0 0 0 0 0 0 0 0 0.12 0"/>
<feBlend mode="normal" in2="BackgroundImageFix" result="effect1_dropShadow_4_384"/>
<feBlend mode="normal" in="SourceGraphic" in2="effect1_dropShadow_4_384" result="shape"/>
</filter>
<clipPath id="clip0_4_384">
<rect x="4" y="3" width="219" height="241" rx="6" fill="white"/>
</clipPath>
</defs>
</svg>
