<svg width="340" height="206" viewBox="0 0 340 206" fill="none" xmlns="http://www.w3.org/2000/svg">
<g clip-path="url(#clip0_7_84)">
<rect width="109.333" height="47" rx="6" fill="#F2F2F2"/>
<path d="M28.8763 14.8438V32H26.7083V17.5508L22.3372 19.1445V17.1875L28.5365 14.8438H28.8763Z" fill="black"/>
<rect x="115.333" width="109.333" height="47" rx="6" fill="#F2F2F2"/>
<path d="M148.264 30.2188V32H137.096V30.4414L142.686 24.2188C143.374 23.4531 143.905 22.8047 144.28 22.2734C144.663 21.7344 144.928 21.2539 145.077 20.832C145.233 20.4023 145.311 19.9648 145.311 19.5195C145.311 18.957 145.194 18.4492 144.96 17.9961C144.733 17.5352 144.397 17.168 143.952 16.8945C143.506 16.6211 142.967 16.4844 142.335 16.4844C141.577 16.4844 140.944 16.6328 140.436 16.9297C139.936 17.2188 139.561 17.625 139.311 18.1484C139.061 18.6719 138.936 19.2734 138.936 19.9531H136.768C136.768 18.9922 136.979 18.1133 137.401 17.3164C137.823 16.5195 138.448 15.8867 139.276 15.418C140.104 14.9414 141.124 14.7031 142.335 14.7031C143.413 14.7031 144.335 14.8945 145.1 15.2773C145.866 15.6523 146.452 16.1836 146.858 16.8711C147.272 17.5508 147.479 18.3477 147.479 19.2617C147.479 19.7617 147.393 20.2695 147.221 20.7852C147.057 21.293 146.827 21.8008 146.53 22.3086C146.241 22.8164 145.901 23.3164 145.51 23.8086C145.128 24.3008 144.717 24.7852 144.28 25.2617L139.71 30.2188H148.264Z" fill="black"/>
<path d="M181.936 19.9287L178.641 29H177.294L181.088 19.0469H181.956L181.936 19.9287ZM184.697 29L181.396 19.9287L181.375 19.0469H182.243L186.051 29H184.697ZM184.527 25.3154V26.3955H178.935V25.3154H184.527ZM190.932 24.3447H188.409L188.396 23.2852H190.686C191.064 23.2852 191.394 23.2214 191.677 23.0938C191.96 22.9661 192.178 22.7839 192.333 22.5469C192.493 22.3053 192.572 22.0182 192.572 21.6855C192.572 21.321 192.502 21.0247 192.361 20.7969C192.224 20.5645 192.012 20.3958 191.725 20.291C191.442 20.1816 191.082 20.127 190.645 20.127H188.703V29H187.384V19.0469H190.645C191.155 19.0469 191.611 19.0993 192.012 19.2041C192.413 19.3044 192.752 19.4639 193.03 19.6826C193.313 19.8968 193.527 20.1702 193.673 20.5029C193.819 20.8356 193.892 21.2344 193.892 21.6992C193.892 22.1094 193.787 22.4808 193.577 22.8135C193.368 23.1416 193.076 23.4105 192.702 23.6201C192.333 23.8298 191.9 23.9642 191.404 24.0234L190.932 24.3447ZM190.87 29H187.89L188.635 27.9268H190.87C191.29 27.9268 191.645 27.8538 191.937 27.708C192.233 27.5622 192.459 27.3571 192.613 27.0928C192.768 26.8239 192.846 26.5072 192.846 26.1426C192.846 25.7734 192.78 25.4544 192.648 25.1855C192.516 24.9167 192.308 24.7093 192.026 24.5635C191.743 24.4176 191.378 24.3447 190.932 24.3447H189.052L189.066 23.2852H191.636L191.916 23.668C192.395 23.709 192.8 23.8457 193.133 24.0781C193.466 24.306 193.719 24.5977 193.892 24.9531C194.07 25.3086 194.158 25.7005 194.158 26.1289C194.158 26.7487 194.022 27.2728 193.748 27.7012C193.479 28.125 193.099 28.4486 192.607 28.6719C192.114 28.8906 191.536 29 190.87 29ZM202.115 25.835H203.428C203.36 26.4639 203.18 27.0267 202.888 27.5234C202.596 28.0202 202.184 28.4144 201.651 28.7061C201.117 28.9932 200.452 29.1367 199.655 29.1367C199.071 29.1367 198.54 29.0273 198.062 28.8086C197.588 28.5898 197.18 28.2799 196.838 27.8789C196.496 27.4733 196.232 26.988 196.045 26.4229C195.863 25.8532 195.772 25.2197 195.772 24.5225V23.5312C195.772 22.834 195.863 22.2028 196.045 21.6377C196.232 21.068 196.499 20.5804 196.845 20.1748C197.196 19.7692 197.617 19.457 198.11 19.2383C198.602 19.0195 199.155 18.9102 199.771 18.9102C200.523 18.9102 201.158 19.0514 201.678 19.334C202.197 19.6165 202.601 20.0085 202.888 20.5098C203.18 21.0065 203.36 21.583 203.428 22.2393H202.115C202.052 21.7744 201.933 21.3757 201.76 21.043C201.587 20.7057 201.341 20.446 201.022 20.2637C200.703 20.0814 200.286 19.9902 199.771 19.9902C199.329 19.9902 198.939 20.0745 198.602 20.2432C198.269 20.4118 197.989 20.651 197.761 20.9609C197.538 21.2708 197.369 21.6423 197.255 22.0752C197.141 22.5081 197.084 22.9889 197.084 23.5176V24.5225C197.084 25.0101 197.134 25.4681 197.235 25.8965C197.339 26.3249 197.497 26.7008 197.706 27.0244C197.916 27.348 198.182 27.6032 198.506 27.79C198.83 27.9723 199.212 28.0635 199.655 28.0635C200.215 28.0635 200.662 27.9746 200.994 27.7969C201.327 27.6191 201.578 27.3639 201.746 27.0312C201.919 26.6986 202.043 26.2998 202.115 25.835Z" fill="#A8A8A8"/>
<rect x="230.667" width="109.333" height="47" rx="6" fill="#F2F2F2"/>
<path d="M255.582 22.4023H257.129C257.887 22.4023 258.512 22.2773 259.004 22.0273C259.504 21.7695 259.875 21.4219 260.117 20.9844C260.367 20.5391 260.492 20.0391 260.492 19.4844C260.492 18.8281 260.383 18.2773 260.164 17.832C259.945 17.3867 259.617 17.0508 259.18 16.8242C258.742 16.5977 258.188 16.4844 257.516 16.4844C256.906 16.4844 256.367 16.6055 255.899 16.8477C255.438 17.082 255.074 17.418 254.809 17.8555C254.551 18.293 254.422 18.8086 254.422 19.4023H252.254C252.254 18.5352 252.473 17.7461 252.91 17.0352C253.348 16.3242 253.961 15.7578 254.75 15.3359C255.547 14.9141 256.469 14.7031 257.516 14.7031C258.547 14.7031 259.449 14.8867 260.223 15.2539C260.996 15.6133 261.598 16.1523 262.027 16.8711C262.457 17.582 262.672 18.4688 262.672 19.5312C262.672 19.9609 262.57 20.4219 262.367 20.9141C262.172 21.3984 261.863 21.8516 261.441 22.2734C261.027 22.6953 260.488 23.043 259.824 23.3164C259.16 23.582 258.363 23.7148 257.434 23.7148H255.582V22.4023ZM255.582 24.1836V22.8828H257.434C258.52 22.8828 259.418 23.0117 260.129 23.2695C260.84 23.5273 261.399 23.8711 261.805 24.3008C262.219 24.7305 262.508 25.2031 262.672 25.7188C262.844 26.2266 262.93 26.7344 262.93 27.2422C262.93 28.0391 262.793 28.7461 262.52 29.3633C262.254 29.9805 261.875 30.5039 261.383 30.9336C260.899 31.3633 260.328 31.6875 259.672 31.9062C259.016 32.125 258.301 32.2344 257.527 32.2344C256.785 32.2344 256.086 32.1289 255.43 31.918C254.781 31.707 254.207 31.4023 253.707 31.0039C253.207 30.5977 252.816 30.1016 252.535 29.5156C252.254 28.9219 252.113 28.2461 252.113 27.4883H254.281C254.281 28.082 254.41 28.6016 254.668 29.0469C254.934 29.4922 255.309 29.8398 255.793 30.0898C256.285 30.332 256.863 30.4531 257.527 30.4531C258.191 30.4531 258.762 30.3398 259.238 30.1133C259.723 29.8789 260.094 29.5273 260.352 29.0586C260.617 28.5898 260.75 28 260.75 27.2891C260.75 26.5781 260.602 25.9961 260.305 25.543C260.008 25.082 259.586 24.7422 259.039 24.5234C258.5 24.2969 257.863 24.1836 257.129 24.1836H255.582Z" fill="black"/>
<path d="M297.324 29H295.246L295.259 27.9268H297.324C298.035 27.9268 298.627 27.7786 299.101 27.4824C299.575 27.1816 299.931 26.7624 300.168 26.2246C300.409 25.6823 300.53 25.0488 300.53 24.3242V23.7158C300.53 23.1462 300.462 22.6403 300.325 22.1982C300.188 21.7516 299.988 21.3757 299.723 21.0703C299.459 20.7604 299.135 20.5257 298.753 20.3662C298.374 20.2067 297.939 20.127 297.447 20.127H295.205V19.0469H297.447C298.099 19.0469 298.693 19.1562 299.231 19.375C299.769 19.5892 300.231 19.9014 300.619 20.3115C301.011 20.7171 301.312 21.2093 301.521 21.7881C301.731 22.3623 301.836 23.0094 301.836 23.7295V24.3242C301.836 25.0443 301.731 25.6937 301.521 26.2725C301.312 26.8467 301.009 27.3366 300.612 27.7422C300.22 28.1478 299.746 28.46 299.19 28.6787C298.639 28.8929 298.017 29 297.324 29ZM295.95 19.0469V29H294.631V19.0469H295.95ZM310.141 27.9268V29H304.871V27.9268H310.141ZM305.137 19.0469V29H303.818V19.0469H305.137ZM309.444 23.3262V24.3994H304.871V23.3262H309.444ZM310.073 19.0469V20.127H304.871V19.0469H310.073ZM313.094 19.0469V29H311.775V19.0469H313.094ZM317.264 23.5244V24.6045H312.807V23.5244H317.264ZM317.941 19.0469V20.127H312.807V19.0469H317.941Z" fill="#A8A8A8"/>
<rect y="53" width="109.333" height="47" rx="6" fill="#F2F2F2"/>
<path d="M33.2826 79.2578V81.0391H20.9544V79.7617L28.5951 67.9375H30.3646L28.4661 71.3594L23.4154 79.2578H33.2826ZM30.9036 67.9375V85H28.7357V67.9375H30.9036Z" fill="black"/>
<path d="M72.0849 77.0439V80.6875C71.9619 80.8698 71.7659 81.0749 71.497 81.3027C71.2282 81.526 70.8567 81.722 70.3828 81.8906C69.9134 82.0547 69.3073 82.1367 68.5644 82.1367C67.9583 82.1367 67.4 82.0319 66.8896 81.8223C66.3837 81.6081 65.944 81.2982 65.5703 80.8926C65.2011 80.4824 64.914 79.9857 64.7089 79.4023C64.5084 78.8145 64.4082 78.1491 64.4082 77.4062V76.6338C64.4082 75.891 64.4948 75.2279 64.6679 74.6445C64.8457 74.0612 65.1054 73.5667 65.4472 73.1611C65.789 72.751 66.2083 72.4411 66.705 72.2314C67.2018 72.0173 67.7714 71.9102 68.414 71.9102C69.1751 71.9102 69.8108 72.0423 70.3212 72.3066C70.8362 72.5664 71.2373 72.9264 71.5244 73.3867C71.816 73.847 72.0029 74.3711 72.0849 74.959H70.7656C70.7063 74.599 70.5879 74.2708 70.4101 73.9746C70.2369 73.6784 69.9886 73.4414 69.665 73.2637C69.3414 73.0814 68.9244 72.9902 68.414 72.9902C67.9537 72.9902 67.555 73.0745 67.2177 73.2432C66.8805 73.4118 66.6025 73.6533 66.3837 73.9678C66.165 74.2822 66.0009 74.6628 65.8916 75.1094C65.7867 75.556 65.7343 76.0596 65.7343 76.6201V77.4062C65.7343 77.9805 65.8004 78.4932 65.9326 78.9443C66.0693 79.3955 66.263 79.7806 66.5136 80.0996C66.7643 80.4141 67.0628 80.6533 67.4091 80.8174C67.7601 80.9814 68.1474 81.0635 68.5712 81.0635C69.0407 81.0635 69.4212 81.0247 69.7129 80.9473C70.0045 80.8652 70.2324 80.7695 70.3964 80.6602C70.5605 80.5462 70.6858 80.4391 70.7724 80.3389V78.1104H68.4687V77.0439H72.0849ZM80.7734 76.3262V77.3994H75.3867V76.3262H80.7734ZM75.5918 72.0469V82H74.2724V72.0469H75.5918ZM81.9218 72.0469V82H80.6093V72.0469H81.9218ZM85.6816 72.0469V82H84.3623V72.0469H85.6816Z" fill="#A8A8A8"/>
<rect x="115.333" y="53" width="109.333" height="47" rx="6" fill="#F2F2F2"/>
<path d="M139.827 76.8789L138.092 76.4336L138.948 67.9375H147.702V69.9414H140.788L140.272 74.582C140.585 74.4023 140.979 74.2344 141.456 74.0781C141.94 73.9219 142.495 73.8438 143.12 73.8438C143.909 73.8438 144.616 73.9805 145.241 74.2539C145.866 74.5195 146.397 74.9023 146.835 75.4023C147.28 75.9023 147.62 76.5039 147.854 77.207C148.088 77.9102 148.206 78.6953 148.206 79.5625C148.206 80.3828 148.092 81.1367 147.866 81.8242C147.647 82.5117 147.315 83.1133 146.87 83.6289C146.424 84.1367 145.862 84.5312 145.182 84.8125C144.51 85.0938 143.717 85.2344 142.803 85.2344C142.116 85.2344 141.463 85.1406 140.846 84.9531C140.237 84.7578 139.69 84.4648 139.206 84.0742C138.729 83.6758 138.338 83.1836 138.034 82.5977C137.737 82.0039 137.549 81.3086 137.471 80.5117H139.534C139.628 81.1523 139.815 81.6914 140.096 82.1289C140.378 82.5664 140.745 82.8984 141.198 83.125C141.659 83.3438 142.194 83.4531 142.803 83.4531C143.319 83.4531 143.776 83.3633 144.174 83.1836C144.573 83.0039 144.909 82.7461 145.182 82.4102C145.456 82.0742 145.663 81.668 145.803 81.1914C145.952 80.7148 146.026 80.1797 146.026 79.5859C146.026 79.0469 145.952 78.5469 145.803 78.0859C145.655 77.625 145.432 77.2227 145.135 76.8789C144.846 76.5352 144.491 76.2695 144.069 76.082C143.647 75.8867 143.163 75.7891 142.616 75.7891C141.889 75.7891 141.338 75.8867 140.963 76.082C140.596 76.2773 140.217 76.543 139.827 76.8789Z" fill="black"/>
<path d="M183.884 79.0947V72.0469H185.196V79.0947C185.196 79.751 185.062 80.3047 184.793 80.7559C184.524 81.207 184.153 81.5511 183.679 81.7881C183.21 82.0205 182.669 82.1367 182.059 82.1367C181.448 82.1367 180.906 82.0319 180.432 81.8223C179.958 81.6126 179.586 81.2936 179.318 80.8652C179.049 80.4368 178.914 79.8968 178.914 79.2451H180.234C180.234 79.6644 180.311 80.0085 180.466 80.2773C180.621 80.5462 180.835 80.7445 181.109 80.8721C181.387 80.9997 181.703 81.0635 182.059 81.0635C182.405 81.0635 182.715 80.9906 182.988 80.8447C183.266 80.6943 183.485 80.4733 183.645 80.1816C183.804 79.8854 183.884 79.5231 183.884 79.0947ZM188.751 72.0469V82H187.432V72.0469H188.751ZM194.76 72.0469L190.624 76.6885L188.3 79.1016L188.081 77.6934L189.831 75.7656L193.174 72.0469H194.76ZM193.488 82L189.804 77.1465L190.59 76.1006L195.061 82H193.488ZM202.259 80.9268V82H197.282V80.9268H202.259ZM197.542 72.0469V82H196.223V72.0469H197.542Z" fill="#A8A8A8"/>
<rect x="230.667" y="53" width="109.333" height="47" rx="6" fill="#F2F2F2"/>
<path d="M260.738 67.9141H260.926V69.7539H260.738C259.59 69.7539 258.629 69.9414 257.856 70.3164C257.082 70.6836 256.469 71.1797 256.016 71.8047C255.563 72.4219 255.234 73.1172 255.031 73.8906C254.836 74.6641 254.738 75.4492 254.738 76.2461V78.7539C254.738 79.5117 254.828 80.1836 255.008 80.7695C255.188 81.3477 255.434 81.8359 255.746 82.2344C256.059 82.6328 256.41 82.9336 256.801 83.1367C257.199 83.3398 257.613 83.4414 258.043 83.4414C258.543 83.4414 258.988 83.3477 259.379 83.1602C259.77 82.9648 260.098 82.6953 260.363 82.3516C260.637 82 260.844 81.5859 260.984 81.1094C261.125 80.6328 261.195 80.1094 261.195 79.5391C261.195 79.0312 261.133 78.543 261.008 78.0742C260.883 77.5977 260.691 77.1758 260.434 76.8086C260.176 76.4336 259.852 76.1406 259.461 75.9297C259.078 75.7109 258.621 75.6016 258.09 75.6016C257.488 75.6016 256.926 75.75 256.402 76.0469C255.887 76.3359 255.461 76.7188 255.125 77.1953C254.797 77.6641 254.609 78.1758 254.563 78.7305L253.414 78.7188C253.524 77.8438 253.727 77.0977 254.024 76.4805C254.328 75.8555 254.703 75.3477 255.149 74.957C255.602 74.5586 256.106 74.2695 256.66 74.0898C257.223 73.9023 257.816 73.8086 258.441 73.8086C259.293 73.8086 260.027 73.9688 260.645 74.2891C261.262 74.6094 261.77 75.0391 262.168 75.5781C262.566 76.1094 262.859 76.7109 263.047 77.3828C263.242 78.0469 263.34 78.7305 263.34 79.4336C263.34 80.2383 263.227 80.9922 263 81.6953C262.774 82.3984 262.434 83.0156 261.981 83.5469C261.535 84.0781 260.984 84.4922 260.328 84.7891C259.672 85.0859 258.91 85.2344 258.043 85.2344C257.121 85.2344 256.316 85.0469 255.629 84.6719C254.941 84.2891 254.371 83.7812 253.918 83.1484C253.465 82.5156 253.125 81.8125 252.899 81.0391C252.672 80.2656 252.559 79.4805 252.559 78.6836V77.6641C252.559 76.4609 252.68 75.2812 252.922 74.125C253.164 72.9688 253.582 71.9219 254.176 70.9844C254.777 70.0469 255.609 69.3008 256.672 68.7461C257.734 68.1914 259.09 67.9141 260.738 67.9141Z" fill="black"/>
<path d="M291.561 72.0469H292.84L296.1 80.1611L299.354 72.0469H300.639L296.592 82H295.594L291.561 72.0469ZM291.144 72.0469H292.272L292.457 78.1172V82H291.144V72.0469ZM299.922 72.0469H301.05V82H299.737V78.1172L299.922 72.0469ZM311.023 72.0469V82H309.697L304.686 74.3232V82H303.367V72.0469H304.686L309.717 79.7441V72.0469H311.023ZM321.024 76.709V77.3379C321.024 78.0853 320.931 78.7552 320.744 79.3477C320.557 79.9401 320.288 80.4437 319.937 80.8584C319.586 81.2731 319.165 81.5898 318.673 81.8086C318.185 82.0273 317.638 82.1367 317.032 82.1367C316.444 82.1367 315.904 82.0273 315.412 81.8086C314.924 81.5898 314.5 81.2731 314.14 80.8584C313.785 80.4437 313.509 79.9401 313.313 79.3477C313.117 78.7552 313.019 78.0853 313.019 77.3379V76.709C313.019 75.9616 313.115 75.2939 313.306 74.7061C313.502 74.1136 313.778 73.61 314.134 73.1953C314.489 72.776 314.911 72.457 315.398 72.2383C315.89 72.0195 316.43 71.9102 317.018 71.9102C317.624 71.9102 318.171 72.0195 318.659 72.2383C319.151 72.457 319.573 72.776 319.924 73.1953C320.279 73.61 320.55 74.1136 320.737 74.7061C320.928 75.2939 321.024 75.9616 321.024 76.709ZM319.718 77.3379V76.6953C319.718 76.1029 319.657 75.5788 319.534 75.123C319.415 74.6673 319.24 74.2845 319.008 73.9746C318.775 73.6647 318.49 73.43 318.153 73.2705C317.82 73.111 317.442 73.0312 317.018 73.0312C316.608 73.0312 316.237 73.111 315.904 73.2705C315.576 73.43 315.293 73.6647 315.056 73.9746C314.824 74.2845 314.644 74.6673 314.516 75.123C314.389 75.5788 314.325 76.1029 314.325 76.6953V77.3379C314.325 77.9349 314.389 78.4635 314.516 78.9238C314.644 79.3796 314.826 79.7646 315.063 80.0791C315.305 80.389 315.59 80.6237 315.918 80.7832C316.25 80.9427 316.622 81.0225 317.032 81.0225C317.46 81.0225 317.841 80.9427 318.174 80.7832C318.506 80.6237 318.786 80.389 319.014 80.0791C319.247 79.7646 319.422 79.3796 319.541 78.9238C319.659 78.4635 319.718 77.9349 319.718 77.3379Z" fill="#A8A8A8"/>
<rect y="106" width="109.333" height="47" rx="6" fill="#F2F2F2"/>
<path d="M32.7786 120.938V122.156L25.7122 138H23.4271L30.4818 122.719H21.2474V120.938H32.7786Z" fill="black"/>
<path d="M62.3711 131.097H59.7119V130.023H62.3711C62.886 130.023 63.303 129.941 63.622 129.777C63.941 129.613 64.1735 129.385 64.3193 129.094C64.4697 128.802 64.5449 128.469 64.5449 128.096C64.5449 127.754 64.4697 127.433 64.3193 127.132C64.1735 126.831 63.941 126.59 63.622 126.407C63.303 126.22 62.886 126.127 62.3711 126.127H60.0195V135H58.7002V125.047H62.3711C63.123 125.047 63.7587 125.177 64.2783 125.437C64.7978 125.696 65.192 126.056 65.4609 126.517C65.7298 126.972 65.8642 127.494 65.8642 128.082C65.8642 128.72 65.7298 129.265 65.4609 129.716C65.192 130.167 64.7978 130.511 64.2783 130.748C63.7587 130.98 63.123 131.097 62.3711 131.097ZM72.6386 133.858L75.1679 135.861L74.2793 136.682L71.791 134.706L72.6386 133.858ZM75.1337 129.709V130.338C75.1337 131.085 75.0403 131.755 74.8535 132.348C74.6666 132.94 74.3977 133.444 74.0468 133.858C73.6959 134.273 73.2744 134.59 72.7822 134.809C72.2946 135.027 71.7477 135.137 71.1416 135.137C70.5537 135.137 70.0136 135.027 69.5214 134.809C69.0338 134.59 68.61 134.273 68.25 133.858C67.8945 133.444 67.6188 132.94 67.4228 132.348C67.2268 131.755 67.1289 131.085 67.1289 130.338V129.709C67.1289 128.962 67.2246 128.294 67.416 127.706C67.6119 127.114 67.8877 126.61 68.2431 126.195C68.5986 125.776 69.0201 125.457 69.5078 125.238C70 125.02 70.54 124.91 71.1279 124.91C71.734 124.91 72.2832 125.02 72.7754 125.238C73.2675 125.457 73.6891 125.776 74.04 126.195C74.3909 126.61 74.6598 127.114 74.8466 127.706C75.038 128.294 75.1337 128.962 75.1337 129.709ZM73.8281 130.338V129.695C73.8281 129.103 73.7666 128.579 73.6435 128.123C73.525 127.667 73.3496 127.285 73.1171 126.975C72.8847 126.665 72.6022 126.43 72.2695 126.271C71.9368 126.111 71.5563 126.031 71.1279 126.031C70.7223 126.031 70.3532 126.111 70.0205 126.271C69.6923 126.43 69.4098 126.665 69.1728 126.975C68.9358 127.285 68.7535 127.667 68.6259 128.123C68.4983 128.579 68.4345 129.103 68.4345 129.695V130.338C68.4345 130.935 68.4983 131.464 68.6259 131.924C68.7535 132.38 68.9358 132.765 69.1728 133.079C69.4143 133.389 69.7015 133.624 70.0341 133.783C70.3668 133.943 70.736 134.022 71.1416 134.022C71.5699 134.022 71.9505 133.943 72.2832 133.783C72.6158 133.624 72.8961 133.389 73.124 133.079C73.3564 132.765 73.5319 132.38 73.6504 131.924C73.7688 131.464 73.8281 130.935 73.8281 130.338ZM77.1709 125.047H80.4658C81.2132 125.047 81.8444 125.161 82.3593 125.389C82.8789 125.617 83.2731 125.954 83.542 126.4C83.8154 126.842 83.9521 127.387 83.9521 128.034C83.9521 128.49 83.8587 128.907 83.6718 129.285C83.4895 129.659 83.2252 129.978 82.8789 130.242C82.5371 130.502 82.1269 130.696 81.6484 130.823L81.2793 130.967H78.1826L78.1689 129.894H80.5068C80.9808 129.894 81.375 129.812 81.6894 129.647C82.0039 129.479 82.2408 129.253 82.4004 128.971C82.5599 128.688 82.6396 128.376 82.6396 128.034C82.6396 127.651 82.5644 127.316 82.414 127.029C82.2636 126.742 82.0267 126.521 81.7031 126.366C81.3841 126.207 80.9716 126.127 80.4658 126.127H78.4902V135H77.1709V125.047ZM82.9882 135L80.5683 130.488L81.9423 130.481L84.3964 134.918V135H82.9882ZM91.1025 132.484C91.1025 132.252 91.066 132.047 90.9931 131.869C90.9248 131.687 90.8017 131.523 90.624 131.377C90.4508 131.231 90.2093 131.092 89.8994 130.96C89.594 130.828 89.2067 130.693 88.7373 130.557C88.2451 130.411 87.8007 130.249 87.4043 130.071C87.0078 129.889 86.6683 129.682 86.3857 129.449C86.1032 129.217 85.8867 128.95 85.7363 128.649C85.5859 128.349 85.5107 128.005 85.5107 127.617C85.5107 127.23 85.5905 126.872 85.75 126.544C85.9095 126.216 86.1373 125.931 86.4336 125.689C86.7343 125.443 87.0921 125.252 87.5068 125.115C87.9215 124.979 88.3841 124.91 88.8945 124.91C89.6419 124.91 90.2754 125.054 90.7949 125.341C91.319 125.623 91.7177 125.995 91.9912 126.455C92.2646 126.911 92.4013 127.398 92.4013 127.918H91.0888C91.0888 127.544 91.0091 127.214 90.8496 126.927C90.6901 126.635 90.4485 126.407 90.125 126.243C89.8014 126.075 89.3912 125.99 88.8945 125.99C88.4251 125.99 88.0377 126.061 87.7324 126.202C87.427 126.343 87.1992 126.535 87.0488 126.776C86.903 127.018 86.83 127.294 86.83 127.604C86.83 127.813 86.8733 128.005 86.9599 128.178C87.0511 128.346 87.1901 128.504 87.3769 128.649C87.5683 128.795 87.8099 128.93 88.1015 129.053C88.3977 129.176 88.7509 129.294 89.1611 129.408C89.7262 129.568 90.2138 129.745 90.624 129.941C91.0341 130.137 91.3714 130.358 91.6357 130.604C91.9046 130.846 92.1028 131.122 92.2304 131.432C92.3626 131.737 92.4287 132.083 92.4287 132.471C92.4287 132.876 92.3466 133.243 92.1826 133.571C92.0185 133.899 91.7838 134.18 91.4785 134.412C91.1731 134.645 90.8063 134.825 90.3779 134.952C89.9541 135.075 89.4801 135.137 88.956 135.137C88.4957 135.137 88.0423 135.073 87.5957 134.945C87.1536 134.818 86.7503 134.626 86.3857 134.371C86.0257 134.116 85.7363 133.801 85.5175 133.428C85.3033 133.049 85.1963 132.612 85.1963 132.115H86.5088C86.5088 132.457 86.5748 132.751 86.707 132.997C86.8392 133.239 87.0192 133.439 87.247 133.599C87.4795 133.758 87.7415 133.877 88.0332 133.954C88.3294 134.027 88.637 134.063 88.956 134.063C89.4163 134.063 89.806 134 90.125 133.872C90.444 133.744 90.6855 133.562 90.8496 133.325C91.0182 133.088 91.1025 132.808 91.1025 132.484Z" fill="#A8A8A8"/>
<rect x="115.333" y="106" width="109.333" height="47" rx="6" fill="#F2F2F2"/>
<path d="M147.842 133.383C147.842 134.422 147.6 135.305 147.116 136.031C146.639 136.75 145.991 137.297 145.17 137.672C144.358 138.047 143.44 138.234 142.417 138.234C141.393 138.234 140.471 138.047 139.651 137.672C138.831 137.297 138.182 136.75 137.706 136.031C137.229 135.305 136.991 134.422 136.991 133.383C136.991 132.703 137.12 132.082 137.378 131.52C137.643 130.949 138.014 130.453 138.491 130.031C138.975 129.609 139.545 129.285 140.202 129.059C140.866 128.824 141.596 128.707 142.393 128.707C143.44 128.707 144.374 128.91 145.194 129.316C146.014 129.715 146.659 130.266 147.128 130.969C147.604 131.672 147.842 132.477 147.842 133.383ZM145.663 133.336C145.663 132.703 145.526 132.145 145.253 131.66C144.979 131.168 144.596 130.785 144.104 130.512C143.612 130.238 143.042 130.102 142.393 130.102C141.729 130.102 141.155 130.238 140.67 130.512C140.194 130.785 139.823 131.168 139.557 131.66C139.292 132.145 139.159 132.703 139.159 133.336C139.159 133.992 139.288 134.555 139.545 135.023C139.811 135.484 140.186 135.84 140.67 136.09C141.163 136.332 141.745 136.453 142.417 136.453C143.088 136.453 143.667 136.332 144.151 136.09C144.635 135.84 145.006 135.484 145.264 135.023C145.53 134.555 145.663 133.992 145.663 133.336ZM147.444 125.379C147.444 126.207 147.225 126.953 146.788 127.617C146.35 128.281 145.753 128.805 144.995 129.188C144.237 129.57 143.378 129.762 142.417 129.762C141.44 129.762 140.569 129.57 139.803 129.188C139.045 128.805 138.452 128.281 138.022 127.617C137.592 126.953 137.378 126.207 137.378 125.379C137.378 124.387 137.592 123.543 138.022 122.848C138.46 122.152 139.057 121.621 139.815 121.254C140.573 120.887 141.436 120.703 142.405 120.703C143.381 120.703 144.249 120.887 145.006 121.254C145.764 121.621 146.358 122.152 146.788 122.848C147.225 123.543 147.444 124.387 147.444 125.379ZM145.276 125.414C145.276 124.844 145.155 124.34 144.913 123.902C144.67 123.465 144.335 123.121 143.905 122.871C143.475 122.613 142.975 122.484 142.405 122.484C141.835 122.484 141.335 122.605 140.905 122.848C140.483 123.082 140.151 123.418 139.909 123.855C139.674 124.293 139.557 124.812 139.557 125.414C139.557 126 139.674 126.512 139.909 126.949C140.151 127.387 140.487 127.727 140.917 127.969C141.346 128.211 141.846 128.332 142.417 128.332C142.987 128.332 143.483 128.211 143.905 127.969C144.335 127.727 144.67 127.387 144.913 126.949C145.155 126.512 145.276 126 145.276 125.414Z" fill="black"/>
<path d="M182.243 125.047V135H180.945V125.047H182.243ZM185.443 125.047V126.127H177.752V125.047H185.443ZM192.613 125.047H193.926V131.78C193.926 132.528 193.76 133.15 193.427 133.646C193.094 134.143 192.652 134.517 192.101 134.768C191.554 135.014 190.959 135.137 190.317 135.137C189.642 135.137 189.031 135.014 188.485 134.768C187.942 134.517 187.512 134.143 187.193 133.646C186.878 133.15 186.721 132.528 186.721 131.78V125.047H188.027V131.78C188.027 132.3 188.122 132.728 188.314 133.065C188.505 133.403 188.772 133.653 189.113 133.817C189.46 133.981 189.861 134.063 190.317 134.063C190.777 134.063 191.178 133.981 191.52 133.817C191.866 133.653 192.135 133.403 192.326 133.065C192.518 132.728 192.613 132.3 192.613 131.78V125.047ZM199.21 133.489L202.143 125.047H203.571L199.887 135H198.868L199.21 133.489ZM196.469 125.047L199.374 133.489L199.737 135H198.718L195.04 125.047H196.469Z" fill="#A8A8A8"/>
<rect x="230.667" y="106" width="109.333" height="47" rx="6" fill="#F2F2F2"/>
<path d="M254.574 136.184H254.797C256.047 136.184 257.063 136.008 257.844 135.656C258.625 135.305 259.227 134.832 259.649 134.238C260.07 133.645 260.359 132.977 260.516 132.234C260.672 131.484 260.75 130.715 260.75 129.926V127.312C260.75 126.539 260.66 125.852 260.481 125.25C260.309 124.648 260.066 124.145 259.754 123.738C259.449 123.332 259.102 123.023 258.711 122.812C258.32 122.602 257.906 122.496 257.469 122.496C256.969 122.496 256.52 122.598 256.121 122.801C255.731 122.996 255.399 123.273 255.125 123.633C254.859 123.992 254.656 124.414 254.516 124.898C254.375 125.383 254.305 125.91 254.305 126.48C254.305 126.988 254.367 127.48 254.492 127.957C254.617 128.434 254.809 128.863 255.066 129.246C255.324 129.629 255.645 129.934 256.027 130.16C256.418 130.379 256.875 130.488 257.399 130.488C257.883 130.488 258.336 130.395 258.758 130.207C259.188 130.012 259.566 129.75 259.895 129.422C260.231 129.086 260.496 128.707 260.691 128.285C260.895 127.863 261.012 127.422 261.043 126.961H262.074C262.074 127.609 261.945 128.25 261.688 128.883C261.438 129.508 261.086 130.078 260.633 130.594C260.18 131.109 259.649 131.523 259.039 131.836C258.43 132.141 257.766 132.293 257.047 132.293C256.203 132.293 255.473 132.129 254.856 131.801C254.238 131.473 253.731 131.035 253.332 130.488C252.941 129.941 252.649 129.332 252.453 128.66C252.266 127.98 252.172 127.293 252.172 126.598C252.172 125.785 252.285 125.023 252.512 124.312C252.738 123.602 253.074 122.977 253.52 122.438C253.965 121.891 254.516 121.465 255.172 121.16C255.836 120.855 256.602 120.703 257.469 120.703C258.445 120.703 259.277 120.898 259.965 121.289C260.652 121.68 261.211 122.203 261.641 122.859C262.078 123.516 262.399 124.254 262.602 125.074C262.805 125.895 262.906 126.738 262.906 127.605V128.391C262.906 129.273 262.848 130.172 262.731 131.086C262.621 131.992 262.406 132.859 262.086 133.688C261.774 134.516 261.316 135.258 260.715 135.914C260.113 136.562 259.328 137.078 258.359 137.461C257.399 137.836 256.211 138.023 254.797 138.023H254.574V136.184Z" fill="black"/>
<path d="M290.686 131.992L292.662 125.047H293.619L293.065 127.747L290.939 135H289.989L290.686 131.992ZM288.642 125.047L290.215 131.855L290.686 135H289.743L287.33 125.047H288.642ZM296.175 131.849L297.714 125.047H299.033L296.627 135H295.683L296.175 131.849ZM293.762 125.047L295.683 131.992L296.381 135H295.43L293.38 127.747L292.819 125.047H293.762ZM301.35 125.047L303.743 128.861L306.135 125.047H307.674L304.529 129.976L307.749 135H306.197L303.743 131.11L301.289 135H299.737L302.957 129.976L299.812 125.047H301.35ZM309.731 125.047L312.315 130.044L314.906 125.047H316.403L312.971 131.281V135H311.652V131.281L308.22 125.047H309.731ZM324.36 133.927V135H317.62V133.927H324.36ZM324.141 126.004L317.934 135H317.121V134.016L323.321 125.047H324.141V126.004ZM323.581 125.047V126.127H317.21V125.047H323.581Z" fill="#A8A8A8"/>
<rect x="115.333" y="159" width="109.333" height="47" rx="6" fill="#F2F2F2"/>
<path d="M147.795 181.109V183.711C147.795 185.109 147.67 186.289 147.42 187.25C147.17 188.211 146.811 188.984 146.342 189.57C145.874 190.156 145.307 190.582 144.643 190.848C143.987 191.105 143.245 191.234 142.417 191.234C141.76 191.234 141.155 191.152 140.6 190.988C140.045 190.824 139.545 190.562 139.1 190.203C138.663 189.836 138.288 189.359 137.975 188.773C137.663 188.188 137.424 187.477 137.26 186.641C137.096 185.805 137.014 184.828 137.014 183.711V181.109C137.014 179.711 137.139 178.539 137.389 177.594C137.647 176.648 138.01 175.891 138.479 175.32C138.948 174.742 139.51 174.328 140.167 174.078C140.831 173.828 141.573 173.703 142.393 173.703C143.057 173.703 143.667 173.785 144.221 173.949C144.784 174.105 145.284 174.359 145.721 174.711C146.159 175.055 146.53 175.516 146.835 176.094C147.147 176.664 147.385 177.363 147.549 178.191C147.713 179.02 147.795 179.992 147.795 181.109ZM145.616 184.062V180.746C145.616 179.98 145.569 179.309 145.475 178.73C145.389 178.145 145.26 177.645 145.088 177.23C144.917 176.816 144.698 176.48 144.432 176.223C144.174 175.965 143.874 175.777 143.53 175.66C143.194 175.535 142.815 175.473 142.393 175.473C141.878 175.473 141.42 175.57 141.022 175.766C140.624 175.953 140.288 176.254 140.014 176.668C139.749 177.082 139.545 177.625 139.405 178.297C139.264 178.969 139.194 179.785 139.194 180.746V184.062C139.194 184.828 139.237 185.504 139.323 186.09C139.417 186.676 139.553 187.184 139.733 187.613C139.913 188.035 140.131 188.383 140.389 188.656C140.647 188.93 140.944 189.133 141.28 189.266C141.624 189.391 142.003 189.453 142.417 189.453C142.948 189.453 143.413 189.352 143.811 189.148C144.21 188.945 144.542 188.629 144.807 188.199C145.081 187.762 145.284 187.203 145.417 186.523C145.549 185.836 145.616 185.016 145.616 184.062Z" fill="black"/>
<path d="M193.967 181.661V182.851H187.145V181.661H193.967ZM191.192 178.756V186.002H189.927V178.756H191.192Z" fill="#A8A8A8"/>
<rect x="230.667" y="159" width="109.333" height="47" rx="6" fill="#F2F2F2"/>
<path d="M283 186L289.5 179.5M283 179.5L289.5 186M279.525 189.288L275.621 183.431C275.397 183.096 275.285 182.928 275.245 182.747C275.209 182.588 275.212 182.422 275.255 182.264C275.304 182.085 275.423 181.923 275.662 181.597L280.021 175.654C280.196 175.414 280.284 175.294 280.396 175.208C280.496 175.131 280.609 175.074 280.729 175.039C280.865 175 281.014 175 281.311 175H291.8C292.92 175 293.48 175 293.908 175.218C294.284 175.41 294.59 175.716 294.782 176.092C295 176.52 295 177.08 295 178.2V186.8C295 187.92 295 188.48 294.782 188.908C294.59 189.284 294.284 189.59 293.908 189.782C293.48 190 292.92 190 291.8 190H280.856C280.543 190 280.387 190 280.245 189.957C280.119 189.919 280.002 189.856 279.9 189.773C279.786 189.678 279.699 189.548 279.525 189.288Z" stroke="#3D3E40" stroke-width="1.75" stroke-linecap="round"/>
</g>
<defs>
<clipPath id="clip0_7_84">
<rect width="340" height="206" fill="white"/>
</clipPath>
</defs>
</svg>
