<svg width="340" height="181" viewBox="0 0 340 181" fill="none" xmlns="http://www.w3.org/2000/svg">
<g clip-path="url(#clip0_7_84)">
<rect width="109.333" height="40" rx="6" fill="#F2F2F2"/>
<path d="M28.5775 12.7031V27H26.7708V14.959L23.1283 16.2871V14.6562L28.2943 12.7031H28.5775Z" fill="black"/>
<rect x="115.333" width="109.333" height="40" rx="6" fill="#F2F2F2"/>
<path d="M147.29 25.5156V27H137.983V25.7012L142.641 20.5156C143.214 19.8776 143.657 19.3372 143.969 18.8945C144.288 18.4453 144.51 18.0449 144.633 17.6934C144.764 17.3353 144.829 16.9707 144.829 16.5996C144.829 16.1309 144.731 15.7077 144.536 15.3301C144.347 14.946 144.067 14.64 143.696 14.4121C143.325 14.1842 142.876 14.0703 142.348 14.0703C141.717 14.0703 141.189 14.194 140.766 14.4414C140.35 14.6823 140.037 15.0208 139.829 15.457C139.62 15.8932 139.516 16.3945 139.516 16.9609H137.71C137.71 16.1602 137.885 15.4277 138.237 14.7637C138.588 14.0996 139.109 13.5723 139.799 13.1816C140.49 12.7845 141.339 12.5859 142.348 12.5859C143.247 12.5859 144.015 12.7454 144.653 13.0645C145.291 13.377 145.779 13.8197 146.118 14.3926C146.463 14.959 146.635 15.623 146.635 16.3848C146.635 16.8014 146.564 17.2246 146.42 17.6543C146.284 18.0775 146.092 18.5007 145.844 18.9238C145.603 19.347 145.32 19.7637 144.995 20.1738C144.676 20.584 144.334 20.9876 143.969 21.3848L140.161 25.5156H147.29Z" fill="black"/>
<path d="M181.936 16.9287L178.641 26H177.294L181.088 16.0469H181.956L181.936 16.9287ZM184.697 26L181.396 16.9287L181.375 16.0469H182.243L186.051 26H184.697ZM184.527 22.3154V23.3955H178.935V22.3154H184.527ZM190.932 21.3447H188.409L188.396 20.2852H190.686C191.064 20.2852 191.394 20.2214 191.677 20.0938C191.96 19.9661 192.178 19.7839 192.333 19.5469C192.493 19.3053 192.572 19.0182 192.572 18.6855C192.572 18.321 192.502 18.0247 192.361 17.7969C192.224 17.5645 192.012 17.3958 191.725 17.291C191.442 17.1816 191.082 17.127 190.645 17.127H188.703V26H187.384V16.0469H190.645C191.155 16.0469 191.611 16.0993 192.012 16.2041C192.413 16.3044 192.752 16.4639 193.03 16.6826C193.313 16.8968 193.527 17.1702 193.673 17.5029C193.819 17.8356 193.892 18.2344 193.892 18.6992C193.892 19.1094 193.787 19.4808 193.577 19.8135C193.368 20.1416 193.076 20.4105 192.702 20.6201C192.333 20.8298 191.9 20.9642 191.404 21.0234L190.932 21.3447ZM190.87 26H187.89L188.635 24.9268H190.87C191.29 24.9268 191.645 24.8538 191.937 24.708C192.233 24.5622 192.459 24.3571 192.613 24.0928C192.768 23.8239 192.846 23.5072 192.846 23.1426C192.846 22.7734 192.78 22.4544 192.648 22.1855C192.516 21.9167 192.308 21.7093 192.026 21.5635C191.743 21.4176 191.378 21.3447 190.932 21.3447H189.052L189.066 20.2852H191.636L191.916 20.668C192.395 20.709 192.8 20.8457 193.133 21.0781C193.466 21.306 193.719 21.5977 193.892 21.9531C194.07 22.3086 194.158 22.7005 194.158 23.1289C194.158 23.7487 194.022 24.2728 193.748 24.7012C193.479 25.125 193.099 25.4486 192.607 25.6719C192.114 25.8906 191.536 26 190.87 26ZM202.115 22.835H203.428C203.36 23.4639 203.18 24.0267 202.888 24.5234C202.596 25.0202 202.184 25.4144 201.651 25.7061C201.117 25.9932 200.452 26.1367 199.655 26.1367C199.071 26.1367 198.54 26.0273 198.062 25.8086C197.588 25.5898 197.18 25.2799 196.838 24.8789C196.496 24.4733 196.232 23.988 196.045 23.4229C195.863 22.8532 195.772 22.2197 195.772 21.5225V20.5312C195.772 19.834 195.863 19.2028 196.045 18.6377C196.232 18.068 196.499 17.5804 196.845 17.1748C197.196 16.7692 197.617 16.457 198.11 16.2383C198.602 16.0195 199.155 15.9102 199.771 15.9102C200.523 15.9102 201.158 16.0514 201.678 16.334C202.197 16.6165 202.601 17.0085 202.888 17.5098C203.18 18.0065 203.36 18.583 203.428 19.2393H202.115C202.052 18.7744 201.933 18.3757 201.76 18.043C201.587 17.7057 201.341 17.446 201.022 17.2637C200.703 17.0814 200.286 16.9902 199.771 16.9902C199.329 16.9902 198.939 17.0745 198.602 17.2432C198.269 17.4118 197.989 17.651 197.761 17.9609C197.538 18.2708 197.369 18.6423 197.255 19.0752C197.141 19.5081 197.084 19.9889 197.084 20.5176V21.5225C197.084 22.0101 197.134 22.4681 197.235 22.8965C197.339 23.3249 197.497 23.7008 197.706 24.0244C197.916 24.348 198.182 24.6032 198.506 24.79C198.83 24.9723 199.212 25.0635 199.655 25.0635C200.215 25.0635 200.662 24.9746 200.994 24.7969C201.327 24.6191 201.578 24.3639 201.746 24.0312C201.919 23.6986 202.043 23.2998 202.115 22.835Z" fill="#A8A8A8"/>
<rect x="230.667" width="109.333" height="40" rx="6" fill="#F2F2F2"/>
<path d="M255.943 19.002H257.233C257.864 19.002 258.385 18.8978 258.795 18.6895C259.212 18.4746 259.521 18.1849 259.723 17.8203C259.931 17.4492 260.035 17.0326 260.035 16.5703C260.035 16.0234 259.944 15.5645 259.762 15.1934C259.58 14.8223 259.306 14.5423 258.941 14.3535C258.577 14.1647 258.115 14.0703 257.555 14.0703C257.047 14.0703 256.598 14.1712 256.207 14.373C255.823 14.5684 255.52 14.8483 255.299 15.2129C255.084 15.5775 254.977 16.0072 254.977 16.502H253.17C253.17 15.7793 253.352 15.1217 253.717 14.5293C254.081 13.9368 254.593 13.4648 255.25 13.1133C255.914 12.7617 256.682 12.5859 257.555 12.5859C258.414 12.5859 259.166 12.7389 259.811 13.0449C260.455 13.3444 260.956 13.7936 261.315 14.3926C261.673 14.985 261.852 15.724 261.852 16.6094C261.852 16.9674 261.767 17.3516 261.598 17.7617C261.435 18.1654 261.178 18.543 260.826 18.8945C260.481 19.2461 260.032 19.5358 259.479 19.7637C258.925 19.985 258.261 20.0957 257.486 20.0957H255.943V19.002ZM255.943 20.4863V19.4023H257.486C258.391 19.4023 259.14 19.5098 259.733 19.7246C260.325 19.9395 260.79 20.2259 261.129 20.584C261.474 20.9421 261.715 21.3359 261.852 21.7656C261.995 22.1888 262.066 22.612 262.066 23.0352C262.066 23.6992 261.953 24.2884 261.725 24.8027C261.503 25.3171 261.188 25.7533 260.777 26.1113C260.374 26.4694 259.899 26.7396 259.352 26.9219C258.805 27.1042 258.209 27.1953 257.565 27.1953C256.946 27.1953 256.363 27.1074 255.816 26.9316C255.276 26.7559 254.798 26.502 254.381 26.1699C253.964 25.8314 253.639 25.418 253.404 24.9297C253.17 24.4349 253.053 23.8717 253.053 23.2402H254.859C254.859 23.735 254.967 24.168 255.182 24.5391C255.403 24.9102 255.716 25.1999 256.119 25.4082C256.529 25.61 257.011 25.7109 257.565 25.7109C258.118 25.7109 258.593 25.6165 258.99 25.4277C259.394 25.2324 259.703 24.9395 259.918 24.5488C260.139 24.1582 260.25 23.6667 260.25 23.0742C260.25 22.4818 260.126 21.9967 259.879 21.6191C259.632 21.235 259.28 20.9518 258.824 20.7695C258.375 20.5807 257.844 20.4863 257.233 20.4863H255.943Z" fill="black"/>
<path d="M297.324 26H295.246L295.259 24.9268H297.324C298.035 24.9268 298.627 24.7786 299.101 24.4824C299.575 24.1816 299.931 23.7624 300.168 23.2246C300.409 22.6823 300.53 22.0488 300.53 21.3242V20.7158C300.53 20.1462 300.462 19.6403 300.325 19.1982C300.188 18.7516 299.988 18.3757 299.723 18.0703C299.459 17.7604 299.135 17.5257 298.753 17.3662C298.374 17.2067 297.939 17.127 297.447 17.127H295.205V16.0469H297.447C298.099 16.0469 298.693 16.1562 299.231 16.375C299.769 16.5892 300.231 16.9014 300.619 17.3115C301.011 17.7171 301.312 18.2093 301.521 18.7881C301.731 19.3623 301.836 20.0094 301.836 20.7295V21.3242C301.836 22.0443 301.731 22.6937 301.521 23.2725C301.312 23.8467 301.009 24.3366 300.612 24.7422C300.22 25.1478 299.746 25.46 299.19 25.6787C298.639 25.8929 298.017 26 297.324 26ZM295.95 16.0469V26H294.631V16.0469H295.95ZM310.141 24.9268V26H304.871V24.9268H310.141ZM305.137 16.0469V26H303.818V16.0469H305.137ZM309.444 20.3262V21.3994H304.871V20.3262H309.444ZM310.073 16.0469V17.127H304.871V16.0469H310.073ZM313.094 16.0469V26H311.775V16.0469H313.094ZM317.264 20.5244V21.6045H312.807V20.5244H317.264ZM317.941 16.0469V17.127H312.807V16.0469H317.941Z" fill="#A8A8A8"/>
<rect y="47" width="109.333" height="40" rx="6" fill="#F2F2F2"/>
<path d="M32.2493 69.2148V70.6992H21.9759V69.6348L28.3431 59.7812H29.8177L28.2357 62.6328L24.0267 69.2148H32.2493ZM30.2669 59.7812V74H28.4603V59.7812H30.2669Z" fill="black"/>
<path d="M72.0849 68.0439V71.6875C71.9619 71.8698 71.7659 72.0749 71.497 72.3027C71.2282 72.526 70.8567 72.722 70.3828 72.8906C69.9134 73.0547 69.3073 73.1367 68.5644 73.1367C67.9583 73.1367 67.4 73.0319 66.8896 72.8223C66.3837 72.6081 65.944 72.2982 65.5703 71.8926C65.2011 71.4824 64.914 70.9857 64.7089 70.4023C64.5084 69.8145 64.4082 69.1491 64.4082 68.4062V67.6338C64.4082 66.891 64.4948 66.2279 64.6679 65.6445C64.8457 65.0612 65.1054 64.5667 65.4472 64.1611C65.789 63.751 66.2083 63.4411 66.705 63.2314C67.2018 63.0173 67.7714 62.9102 68.414 62.9102C69.1751 62.9102 69.8108 63.0423 70.3212 63.3066C70.8362 63.5664 71.2373 63.9264 71.5244 64.3867C71.816 64.847 72.0029 65.3711 72.0849 65.959H70.7656C70.7063 65.599 70.5879 65.2708 70.4101 64.9746C70.2369 64.6784 69.9886 64.4414 69.665 64.2637C69.3414 64.0814 68.9244 63.9902 68.414 63.9902C67.9537 63.9902 67.555 64.0745 67.2177 64.2432C66.8805 64.4118 66.6025 64.6533 66.3837 64.9678C66.165 65.2822 66.0009 65.6628 65.8916 66.1094C65.7867 66.556 65.7343 67.0596 65.7343 67.6201V68.4062C65.7343 68.9805 65.8004 69.4932 65.9326 69.9443C66.0693 70.3955 66.263 70.7806 66.5136 71.0996C66.7643 71.4141 67.0628 71.6533 67.4091 71.8174C67.7601 71.9814 68.1474 72.0635 68.5712 72.0635C69.0407 72.0635 69.4212 72.0247 69.7129 71.9473C70.0045 71.8652 70.2324 71.7695 70.3964 71.6602C70.5605 71.5462 70.6858 71.4391 70.7724 71.3389V69.1104H68.4687V68.0439H72.0849ZM80.7734 67.3262V68.3994H75.3867V67.3262H80.7734ZM75.5918 63.0469V73H74.2724V63.0469H75.5918ZM81.9218 63.0469V73H80.6093V63.0469H81.9218ZM85.6816 63.0469V73H84.3623V63.0469H85.6816Z" fill="#A8A8A8"/>
<rect x="115.333" y="47" width="109.333" height="40" rx="6" fill="#F2F2F2"/>
<path d="M140.258 67.2324L138.813 66.8613L139.526 59.7812H146.821V61.4512H141.059L140.629 65.3184C140.89 65.1686 141.219 65.0286 141.616 64.8984C142.019 64.7682 142.482 64.7031 143.003 64.7031C143.66 64.7031 144.249 64.8171 144.77 65.0449C145.291 65.2663 145.734 65.5853 146.098 66.002C146.469 66.4186 146.753 66.9199 146.948 67.5059C147.143 68.0918 147.241 68.7461 147.241 69.4688C147.241 70.1523 147.146 70.7806 146.958 71.3535C146.775 71.9264 146.499 72.4277 146.128 72.8574C145.756 73.2806 145.288 73.6094 144.721 73.8438C144.161 74.0781 143.501 74.1953 142.739 74.1953C142.166 74.1953 141.622 74.1172 141.108 73.9609C140.6 73.7982 140.144 73.554 139.741 73.2285C139.344 72.8965 139.018 72.4863 138.764 71.998C138.517 71.5033 138.361 70.9238 138.295 70.2598H140.014C140.092 70.7936 140.249 71.2428 140.483 71.6074C140.717 71.972 141.023 72.2487 141.401 72.4375C141.785 72.6198 142.231 72.7109 142.739 72.7109C143.169 72.7109 143.549 72.6361 143.881 72.4863C144.213 72.3366 144.493 72.1217 144.721 71.8418C144.949 71.5618 145.122 71.2233 145.239 70.8262C145.363 70.429 145.424 69.9831 145.424 69.4883C145.424 69.0391 145.363 68.6224 145.239 68.2383C145.115 67.8542 144.93 67.5189 144.682 67.2324C144.441 66.946 144.145 66.7246 143.794 66.5684C143.442 66.4056 143.038 66.3242 142.583 66.3242C141.977 66.3242 141.518 66.4056 141.206 66.5684C140.9 66.7311 140.584 66.9525 140.258 67.2324Z" fill="black"/>
<path d="M183.884 70.0947V63.0469H185.196V70.0947C185.196 70.751 185.062 71.3047 184.793 71.7559C184.524 72.207 184.153 72.5511 183.679 72.7881C183.21 73.0205 182.669 73.1367 182.059 73.1367C181.448 73.1367 180.906 73.0319 180.432 72.8223C179.958 72.6126 179.586 72.2936 179.318 71.8652C179.049 71.4368 178.914 70.8968 178.914 70.2451H180.234C180.234 70.6644 180.311 71.0085 180.466 71.2773C180.621 71.5462 180.835 71.7445 181.109 71.8721C181.387 71.9997 181.703 72.0635 182.059 72.0635C182.405 72.0635 182.715 71.9906 182.988 71.8447C183.266 71.6943 183.485 71.4733 183.645 71.1816C183.804 70.8854 183.884 70.5231 183.884 70.0947ZM188.751 63.0469V73H187.432V63.0469H188.751ZM194.76 63.0469L190.624 67.6885L188.3 70.1016L188.081 68.6934L189.831 66.7656L193.174 63.0469H194.76ZM193.488 73L189.804 68.1465L190.59 67.1006L195.061 73H193.488ZM202.259 71.9268V73H197.282V71.9268H202.259ZM197.542 63.0469V73H196.223V63.0469H197.542Z" fill="#A8A8A8"/>
<rect x="230.667" y="47" width="109.333" height="40" rx="6" fill="#F2F2F2"/>
<path d="M260.24 59.7617H260.397V61.2949H260.24C259.283 61.2949 258.483 61.4512 257.838 61.7637C257.193 62.0697 256.682 62.4831 256.305 63.0039C255.927 63.5182 255.654 64.0977 255.484 64.7422C255.322 65.3867 255.24 66.041 255.24 66.7051V68.7949C255.24 69.4264 255.315 69.9863 255.465 70.4746C255.615 70.9564 255.82 71.3633 256.08 71.6953C256.341 72.0273 256.634 72.278 256.959 72.4473C257.291 72.6165 257.636 72.7012 257.994 72.7012C258.411 72.7012 258.782 72.623 259.108 72.4668C259.433 72.304 259.706 72.0794 259.928 71.793C260.156 71.5 260.328 71.1549 260.445 70.7578C260.563 70.3607 260.621 69.9245 260.621 69.4492C260.621 69.026 260.569 68.6191 260.465 68.2285C260.361 67.8314 260.201 67.4798 259.986 67.1738C259.772 66.8613 259.501 66.6172 259.176 66.4414C258.857 66.2591 258.476 66.168 258.033 66.168C257.532 66.168 257.063 66.2917 256.627 66.5391C256.197 66.7799 255.843 67.099 255.563 67.4961C255.289 67.8867 255.133 68.3132 255.094 68.7754L254.137 68.7656C254.228 68.0365 254.397 67.4147 254.645 66.9004C254.899 66.3796 255.211 65.9564 255.582 65.6309C255.96 65.2988 256.38 65.0579 256.842 64.9082C257.311 64.752 257.805 64.6738 258.326 64.6738C259.036 64.6738 259.648 64.8073 260.162 65.0742C260.677 65.3411 261.1 65.6992 261.432 66.1484C261.764 66.5911 262.008 67.0924 262.164 67.6523C262.327 68.2057 262.408 68.7754 262.408 69.3613C262.408 70.0319 262.314 70.6602 262.125 71.2461C261.936 71.832 261.653 72.3464 261.275 72.7891C260.904 73.2318 260.445 73.5768 259.899 73.8242C259.352 74.0716 258.717 74.1953 257.994 74.1953C257.226 74.1953 256.555 74.0391 255.983 73.7266C255.41 73.4076 254.934 72.9844 254.557 72.457C254.179 71.9297 253.896 71.3438 253.707 70.6992C253.518 70.0547 253.424 69.4004 253.424 68.7363V67.8867C253.424 66.8841 253.525 65.901 253.727 64.9375C253.928 63.974 254.277 63.1016 254.772 62.3203C255.273 61.5391 255.966 60.9173 256.852 60.4551C257.737 59.9928 258.867 59.7617 260.24 59.7617Z" fill="black"/>
<path d="M291.561 63.0469H292.84L296.1 71.1611L299.354 63.0469H300.639L296.592 73H295.594L291.561 63.0469ZM291.144 63.0469H292.272L292.457 69.1172V73H291.144V63.0469ZM299.922 63.0469H301.05V73H299.737V69.1172L299.922 63.0469ZM311.023 63.0469V73H309.697L304.686 65.3232V73H303.367V63.0469H304.686L309.717 70.7441V63.0469H311.023ZM321.024 67.709V68.3379C321.024 69.0853 320.931 69.7552 320.744 70.3477C320.557 70.9401 320.288 71.4437 319.937 71.8584C319.586 72.2731 319.165 72.5898 318.673 72.8086C318.185 73.0273 317.638 73.1367 317.032 73.1367C316.444 73.1367 315.904 73.0273 315.412 72.8086C314.924 72.5898 314.5 72.2731 314.14 71.8584C313.785 71.4437 313.509 70.9401 313.313 70.3477C313.117 69.7552 313.019 69.0853 313.019 68.3379V67.709C313.019 66.9616 313.115 66.2939 313.306 65.7061C313.502 65.1136 313.778 64.61 314.134 64.1953C314.489 63.776 314.911 63.457 315.398 63.2383C315.89 63.0195 316.43 62.9102 317.018 62.9102C317.624 62.9102 318.171 63.0195 318.659 63.2383C319.151 63.457 319.573 63.776 319.924 64.1953C320.279 64.61 320.55 65.1136 320.737 65.7061C320.928 66.2939 321.024 66.9616 321.024 67.709ZM319.718 68.3379V67.6953C319.718 67.1029 319.657 66.5788 319.534 66.123C319.415 65.6673 319.24 65.2845 319.008 64.9746C318.775 64.6647 318.49 64.43 318.153 64.2705C317.82 64.111 317.442 64.0312 317.018 64.0312C316.608 64.0312 316.237 64.111 315.904 64.2705C315.576 64.43 315.293 64.6647 315.056 64.9746C314.824 65.2845 314.644 65.6673 314.516 66.123C314.389 66.5788 314.325 67.1029 314.325 67.6953V68.3379C314.325 68.9349 314.389 69.4635 314.516 69.9238C314.644 70.3796 314.826 70.7646 315.063 71.0791C315.305 71.389 315.59 71.6237 315.918 71.7832C316.25 71.9427 316.622 72.0225 317.032 72.0225C317.46 72.0225 317.841 71.9427 318.174 71.7832C318.506 71.6237 318.786 71.389 319.014 71.0791C319.247 70.7646 319.422 70.3796 319.541 69.9238C319.659 69.4635 319.718 68.9349 319.718 68.3379Z" fill="#A8A8A8"/>
<rect y="94" width="109.333" height="40" rx="6" fill="#F2F2F2"/>
<path d="M31.8294 106.781V107.797L25.9408 121H24.0365L29.9154 108.266H22.2201V106.781H31.8294Z" fill="black"/>
<path d="M62.3711 116.097H59.7119V115.023H62.3711C62.886 115.023 63.303 114.941 63.622 114.777C63.941 114.613 64.1735 114.385 64.3193 114.094C64.4697 113.802 64.5449 113.469 64.5449 113.096C64.5449 112.754 64.4697 112.433 64.3193 112.132C64.1735 111.831 63.941 111.59 63.622 111.407C63.303 111.22 62.886 111.127 62.3711 111.127H60.0195V120H58.7002V110.047H62.3711C63.123 110.047 63.7587 110.177 64.2783 110.437C64.7978 110.696 65.192 111.056 65.4609 111.517C65.7298 111.972 65.8642 112.494 65.8642 113.082C65.8642 113.72 65.7298 114.265 65.4609 114.716C65.192 115.167 64.7978 115.511 64.2783 115.748C63.7587 115.98 63.123 116.097 62.3711 116.097ZM72.6386 118.858L75.1679 120.861L74.2793 121.682L71.791 119.706L72.6386 118.858ZM75.1337 114.709V115.338C75.1337 116.085 75.0403 116.755 74.8535 117.348C74.6666 117.94 74.3977 118.444 74.0468 118.858C73.6959 119.273 73.2744 119.59 72.7822 119.809C72.2946 120.027 71.7477 120.137 71.1416 120.137C70.5537 120.137 70.0136 120.027 69.5214 119.809C69.0338 119.59 68.61 119.273 68.25 118.858C67.8945 118.444 67.6188 117.94 67.4228 117.348C67.2268 116.755 67.1289 116.085 67.1289 115.338V114.709C67.1289 113.962 67.2246 113.294 67.416 112.706C67.6119 112.114 67.8877 111.61 68.2431 111.195C68.5986 110.776 69.0201 110.457 69.5078 110.238C70 110.02 70.54 109.91 71.1279 109.91C71.734 109.91 72.2832 110.02 72.7754 110.238C73.2675 110.457 73.6891 110.776 74.04 111.195C74.3909 111.61 74.6598 112.114 74.8466 112.706C75.038 113.294 75.1337 113.962 75.1337 114.709ZM73.8281 115.338V114.695C73.8281 114.103 73.7666 113.579 73.6435 113.123C73.525 112.667 73.3496 112.285 73.1171 111.975C72.8847 111.665 72.6022 111.43 72.2695 111.271C71.9368 111.111 71.5563 111.031 71.1279 111.031C70.7223 111.031 70.3532 111.111 70.0205 111.271C69.6923 111.43 69.4098 111.665 69.1728 111.975C68.9358 112.285 68.7535 112.667 68.6259 113.123C68.4983 113.579 68.4345 114.103 68.4345 114.695V115.338C68.4345 115.935 68.4983 116.464 68.6259 116.924C68.7535 117.38 68.9358 117.765 69.1728 118.079C69.4143 118.389 69.7015 118.624 70.0341 118.783C70.3668 118.943 70.736 119.022 71.1416 119.022C71.5699 119.022 71.9505 118.943 72.2832 118.783C72.6158 118.624 72.8961 118.389 73.124 118.079C73.3564 117.765 73.5319 117.38 73.6504 116.924C73.7688 116.464 73.8281 115.935 73.8281 115.338ZM77.1709 110.047H80.4658C81.2132 110.047 81.8444 110.161 82.3593 110.389C82.8789 110.617 83.2731 110.954 83.542 111.4C83.8154 111.842 83.9521 112.387 83.9521 113.034C83.9521 113.49 83.8587 113.907 83.6718 114.285C83.4895 114.659 83.2252 114.978 82.8789 115.242C82.5371 115.502 82.1269 115.696 81.6484 115.823L81.2793 115.967H78.1826L78.1689 114.894H80.5068C80.9808 114.894 81.375 114.812 81.6894 114.647C82.0039 114.479 82.2408 114.253 82.4004 113.971C82.5599 113.688 82.6396 113.376 82.6396 113.034C82.6396 112.651 82.5644 112.316 82.414 112.029C82.2636 111.742 82.0267 111.521 81.7031 111.366C81.3841 111.207 80.9716 111.127 80.4658 111.127H78.4902V120H77.1709V110.047ZM82.9882 120L80.5683 115.488L81.9423 115.481L84.3964 119.918V120H82.9882ZM91.1025 117.484C91.1025 117.252 91.066 117.047 90.9931 116.869C90.9248 116.687 90.8017 116.523 90.624 116.377C90.4508 116.231 90.2093 116.092 89.8994 115.96C89.594 115.828 89.2067 115.693 88.7373 115.557C88.2451 115.411 87.8007 115.249 87.4043 115.071C87.0078 114.889 86.6683 114.682 86.3857 114.449C86.1032 114.217 85.8867 113.95 85.7363 113.649C85.5859 113.349 85.5107 113.005 85.5107 112.617C85.5107 112.23 85.5905 111.872 85.75 111.544C85.9095 111.216 86.1373 110.931 86.4336 110.689C86.7343 110.443 87.0921 110.252 87.5068 110.115C87.9215 109.979 88.3841 109.91 88.8945 109.91C89.6419 109.91 90.2754 110.054 90.7949 110.341C91.319 110.623 91.7177 110.995 91.9912 111.455C92.2646 111.911 92.4013 112.398 92.4013 112.918H91.0888C91.0888 112.544 91.0091 112.214 90.8496 111.927C90.6901 111.635 90.4485 111.407 90.125 111.243C89.8014 111.075 89.3912 110.99 88.8945 110.99C88.4251 110.99 88.0377 111.061 87.7324 111.202C87.427 111.343 87.1992 111.535 87.0488 111.776C86.903 112.018 86.83 112.294 86.83 112.604C86.83 112.813 86.8733 113.005 86.9599 113.178C87.0511 113.346 87.1901 113.504 87.3769 113.649C87.5683 113.795 87.8099 113.93 88.1015 114.053C88.3977 114.176 88.7509 114.294 89.1611 114.408C89.7262 114.568 90.2138 114.745 90.624 114.941C91.0341 115.137 91.3714 115.358 91.6357 115.604C91.9046 115.846 92.1028 116.122 92.2304 116.432C92.3626 116.737 92.4287 117.083 92.4287 117.471C92.4287 117.876 92.3466 118.243 92.1826 118.571C92.0185 118.899 91.7838 119.18 91.4785 119.412C91.1731 119.645 90.8063 119.825 90.3779 119.952C89.9541 120.075 89.4801 120.137 88.956 120.137C88.4957 120.137 88.0423 120.073 87.5957 119.945C87.1536 119.818 86.7503 119.626 86.3857 119.371C86.0257 119.116 85.7363 118.801 85.5175 118.428C85.3033 118.049 85.1963 117.612 85.1963 117.115H86.5088C86.5088 117.457 86.5748 117.751 86.707 117.997C86.8392 118.239 87.0192 118.439 87.247 118.599C87.4795 118.758 87.7415 118.877 88.0332 118.954C88.3294 119.027 88.637 119.063 88.956 119.063C89.4163 119.063 89.806 119 90.125 118.872C90.444 118.744 90.6855 118.562 90.8496 118.325C91.0182 118.088 91.1025 117.808 91.1025 117.484Z" fill="#A8A8A8"/>
<rect x="115.333" y="94" width="109.333" height="40" rx="6" fill="#F2F2F2"/>
<path d="M146.938 117.152C146.938 118.018 146.736 118.754 146.333 119.359C145.935 119.958 145.395 120.414 144.712 120.727C144.034 121.039 143.269 121.195 142.417 121.195C141.564 121.195 140.795 121.039 140.112 120.727C139.428 120.414 138.888 119.958 138.491 119.359C138.094 118.754 137.895 118.018 137.895 117.152C137.895 116.586 138.003 116.068 138.217 115.6C138.439 115.124 138.748 114.711 139.145 114.359C139.549 114.008 140.024 113.738 140.571 113.549C141.124 113.354 141.733 113.256 142.397 113.256C143.269 113.256 144.047 113.425 144.731 113.764C145.415 114.096 145.952 114.555 146.342 115.141C146.74 115.727 146.938 116.397 146.938 117.152ZM145.122 117.113C145.122 116.586 145.008 116.12 144.78 115.717C144.552 115.307 144.233 114.988 143.823 114.76C143.413 114.532 142.937 114.418 142.397 114.418C141.844 114.418 141.365 114.532 140.962 114.76C140.564 114.988 140.255 115.307 140.034 115.717C139.812 116.12 139.702 116.586 139.702 117.113C139.702 117.66 139.809 118.129 140.024 118.52C140.245 118.904 140.558 119.2 140.962 119.408C141.372 119.61 141.857 119.711 142.417 119.711C142.976 119.711 143.458 119.61 143.862 119.408C144.266 119.2 144.575 118.904 144.79 118.52C145.011 118.129 145.122 117.66 145.122 117.113ZM146.606 110.482C146.606 111.173 146.424 111.794 146.059 112.348C145.695 112.901 145.197 113.337 144.565 113.656C143.934 113.975 143.217 114.135 142.417 114.135C141.603 114.135 140.877 113.975 140.239 113.656C139.607 113.337 139.113 112.901 138.754 112.348C138.396 111.794 138.217 111.173 138.217 110.482C138.217 109.656 138.396 108.952 138.754 108.373C139.119 107.794 139.617 107.351 140.249 107.045C140.88 106.739 141.6 106.586 142.407 106.586C143.221 106.586 143.943 106.739 144.575 107.045C145.206 107.351 145.701 107.794 146.059 108.373C146.424 108.952 146.606 109.656 146.606 110.482ZM144.799 110.512C144.799 110.036 144.698 109.617 144.497 109.252C144.295 108.887 144.015 108.601 143.657 108.393C143.299 108.178 142.882 108.07 142.407 108.07C141.932 108.07 141.515 108.171 141.157 108.373C140.805 108.568 140.529 108.848 140.327 109.213C140.131 109.577 140.034 110.01 140.034 110.512C140.034 111 140.131 111.426 140.327 111.791C140.529 112.156 140.809 112.439 141.167 112.641C141.525 112.842 141.941 112.943 142.417 112.943C142.892 112.943 143.305 112.842 143.657 112.641C144.015 112.439 144.295 112.156 144.497 111.791C144.698 111.426 144.799 111 144.799 110.512Z" fill="black"/>
<path d="M182.243 110.047V120H180.945V110.047H182.243ZM185.443 110.047V111.127H177.752V110.047H185.443ZM192.613 110.047H193.926V116.78C193.926 117.528 193.76 118.15 193.427 118.646C193.094 119.143 192.652 119.517 192.101 119.768C191.554 120.014 190.959 120.137 190.317 120.137C189.642 120.137 189.031 120.014 188.485 119.768C187.942 119.517 187.512 119.143 187.193 118.646C186.878 118.15 186.721 117.528 186.721 116.78V110.047H188.027V116.78C188.027 117.3 188.122 117.728 188.314 118.065C188.505 118.403 188.772 118.653 189.113 118.817C189.46 118.981 189.861 119.063 190.317 119.063C190.777 119.063 191.178 118.981 191.52 118.817C191.866 118.653 192.135 118.403 192.326 118.065C192.518 117.728 192.613 117.3 192.613 116.78V110.047ZM199.21 118.489L202.143 110.047H203.571L199.887 120H198.868L199.21 118.489ZM196.469 110.047L199.374 118.489L199.737 120H198.718L195.04 110.047H196.469Z" fill="#A8A8A8"/>
<rect x="230.667" y="94" width="109.333" height="40" rx="6" fill="#F2F2F2"/>
<path d="M255.104 119.486H255.289C256.331 119.486 257.177 119.34 257.828 119.047C258.479 118.754 258.981 118.36 259.332 117.865C259.684 117.37 259.925 116.814 260.055 116.195C260.185 115.57 260.25 114.929 260.25 114.271V112.094C260.25 111.449 260.175 110.876 260.025 110.375C259.882 109.874 259.68 109.454 259.42 109.115C259.166 108.777 258.876 108.52 258.551 108.344C258.225 108.168 257.88 108.08 257.516 108.08C257.099 108.08 256.725 108.165 256.393 108.334C256.067 108.497 255.79 108.728 255.563 109.027C255.341 109.327 255.172 109.678 255.055 110.082C254.938 110.486 254.879 110.925 254.879 111.4C254.879 111.824 254.931 112.234 255.035 112.631C255.139 113.028 255.299 113.386 255.514 113.705C255.729 114.024 255.996 114.278 256.315 114.467C256.64 114.649 257.021 114.74 257.457 114.74C257.861 114.74 258.238 114.662 258.59 114.506C258.948 114.343 259.264 114.125 259.537 113.852C259.817 113.572 260.038 113.256 260.201 112.904C260.371 112.553 260.468 112.185 260.494 111.801H261.354C261.354 112.341 261.246 112.875 261.031 113.402C260.823 113.923 260.53 114.398 260.152 114.828C259.775 115.258 259.332 115.603 258.824 115.863C258.316 116.117 257.763 116.244 257.164 116.244C256.461 116.244 255.852 116.107 255.338 115.834C254.824 115.561 254.4 115.196 254.068 114.74C253.743 114.285 253.499 113.777 253.336 113.217C253.18 112.65 253.102 112.077 253.102 111.498C253.102 110.821 253.196 110.186 253.385 109.594C253.574 109.001 253.854 108.48 254.225 108.031C254.596 107.576 255.055 107.221 255.602 106.967C256.155 106.713 256.793 106.586 257.516 106.586C258.33 106.586 259.023 106.749 259.596 107.074C260.169 107.4 260.634 107.836 260.992 108.383C261.357 108.93 261.624 109.545 261.793 110.229C261.962 110.912 262.047 111.615 262.047 112.338V112.992C262.047 113.728 261.998 114.477 261.9 115.238C261.809 115.993 261.63 116.716 261.363 117.406C261.103 118.096 260.722 118.715 260.221 119.262C259.719 119.802 259.065 120.232 258.258 120.551C257.457 120.863 256.468 121.02 255.289 121.02H255.104V119.486Z" fill="black"/>
<path d="M290.686 115.992L292.662 109.047H293.619L293.065 111.747L290.939 119H289.989L290.686 115.992ZM288.642 109.047L290.215 115.855L290.686 119H289.743L287.33 109.047H288.642ZM296.175 115.849L297.714 109.047H299.033L296.627 119H295.683L296.175 115.849ZM293.762 109.047L295.683 115.992L296.381 119H295.43L293.38 111.747L292.819 109.047H293.762ZM301.35 109.047L303.743 112.861L306.135 109.047H307.674L304.529 113.976L307.749 119H306.197L303.743 115.11L301.289 119H299.737L302.957 113.976L299.812 109.047H301.35ZM309.731 109.047L312.315 114.044L314.906 109.047H316.403L312.971 115.281V119H311.652V115.281L308.22 109.047H309.731ZM324.36 117.927V119H317.62V117.927H324.36ZM324.141 110.004L317.934 119H317.121V118.016L323.321 109.047H324.141V110.004ZM323.581 109.047V110.127H317.21V109.047H323.581Z" fill="#A8A8A8"/>
<rect x="115.333" y="141" width="109.333" height="40" rx="6" fill="#F2F2F2"/>
<path d="M146.899 159.758V161.926C146.899 163.091 146.795 164.074 146.587 164.875C146.378 165.676 146.079 166.32 145.688 166.809C145.297 167.297 144.825 167.652 144.272 167.873C143.725 168.088 143.107 168.195 142.417 168.195C141.87 168.195 141.365 168.127 140.903 167.99C140.441 167.854 140.024 167.635 139.653 167.336C139.288 167.03 138.976 166.633 138.715 166.145C138.455 165.656 138.256 165.064 138.12 164.367C137.983 163.671 137.915 162.857 137.915 161.926V159.758C137.915 158.592 138.019 157.616 138.227 156.828C138.442 156.04 138.745 155.409 139.135 154.934C139.526 154.452 139.995 154.107 140.542 153.898C141.095 153.69 141.713 153.586 142.397 153.586C142.95 153.586 143.458 153.654 143.92 153.791C144.389 153.921 144.806 154.133 145.17 154.426C145.535 154.712 145.844 155.096 146.098 155.578C146.359 156.053 146.557 156.636 146.694 157.326C146.831 158.016 146.899 158.827 146.899 159.758ZM145.083 162.219V159.455C145.083 158.817 145.044 158.257 144.965 157.775C144.894 157.287 144.786 156.87 144.643 156.525C144.5 156.18 144.318 155.9 144.096 155.686C143.881 155.471 143.631 155.314 143.344 155.217C143.064 155.113 142.749 155.061 142.397 155.061C141.967 155.061 141.587 155.142 141.254 155.305C140.922 155.461 140.642 155.712 140.415 156.057C140.193 156.402 140.024 156.854 139.907 157.414C139.79 157.974 139.731 158.654 139.731 159.455V162.219C139.731 162.857 139.767 163.42 139.838 163.908C139.917 164.396 140.031 164.82 140.18 165.178C140.33 165.529 140.512 165.819 140.727 166.047C140.942 166.275 141.189 166.444 141.469 166.555C141.756 166.659 142.072 166.711 142.417 166.711C142.859 166.711 143.247 166.626 143.579 166.457C143.911 166.288 144.187 166.024 144.409 165.666C144.637 165.301 144.806 164.836 144.917 164.27C145.027 163.697 145.083 163.013 145.083 162.219Z" fill="black"/>
<path d="M193.967 160.661V161.851H187.145V160.661H193.967ZM191.192 157.756V165.002H189.927V157.756H191.192Z" fill="#A8A8A8"/>
<rect x="230.667" y="141" width="109.333" height="40" rx="6" fill="#F2F2F2"/>
<path d="M283 165L289.5 158.5M283 158.5L289.5 165M279.525 168.288L275.621 162.431C275.397 162.096 275.285 161.928 275.245 161.747C275.209 161.588 275.212 161.422 275.255 161.264C275.304 161.085 275.423 160.923 275.662 160.597L280.021 154.654C280.196 154.414 280.284 154.294 280.396 154.208C280.496 154.131 280.609 154.074 280.729 154.039C280.865 154 281.014 154 281.311 154H291.8C292.92 154 293.48 154 293.908 154.218C294.284 154.41 294.59 154.716 294.782 155.092C295 155.52 295 156.08 295 157.2V165.8C295 166.92 295 167.48 294.782 167.908C294.59 168.284 294.284 168.59 293.908 168.782C293.48 169 292.92 169 291.8 169H280.856C280.543 169 280.387 169 280.245 168.957C280.119 168.919 280.002 168.856 279.9 168.773C279.786 168.678 279.699 168.548 279.525 168.288Z" stroke="#3D3E40" stroke-width="1.75" stroke-linecap="round"/>
</g>
<defs>
<clipPath id="clip0_7_84">
<rect width="340" height="181" fill="white"/>
</clipPath>
</defs>
</svg>
