<svg width="28" height="28" viewBox="0 0 28 28" fill="none" xmlns="http://www.w3.org/2000/svg">
<path fill-rule="evenodd" clip-rule="evenodd" d="M19.969 11.8925C20.5719 11.8925 21.7778 12.2437 21.7778 13.6487V23.1326C21.7778 24.5376 20.5719 24.8889 19.969 24.8889H8.03101C7.42809 24.8889 6.22223 24.5376 6.22223 23.1326V13.6487C6.22223 12.2437 7.42809 11.8925 8.03101 11.8925H9.29716V7.67742C9.29716 6.15532 10.2377 3.11111 14 3.11111C17.7623 3.11111 18.7028 6.15532 18.7028 7.67742V11.8925H19.969ZM14 4.86739C16.3153 4.86739 16.8941 6.74074 16.8941 7.67742V11.8925H11.106V7.67742C11.106 6.74074 11.6848 4.86739 14 4.86739ZM14 20.3226C15.0989 20.3226 15.9897 19.4576 15.9897 18.3907C15.9897 17.3237 15.0989 16.4588 14 16.4588C12.9011 16.4588 12.0103 17.3237 12.0103 18.3907C12.0103 19.4576 12.9011 20.3226 14 20.3226Z" fill="black"/>
</svg>
