<svg width="100" height="100" viewBox="0 0 100 100" fill="none" xmlns="http://www.w3.org/2000/svg">
<circle opacity="0.9" cx="50" cy="50" r="50" fill="white"/>
<path fill-rule="evenodd" clip-rule="evenodd" d="M61.798 46.5108C62.9393 46.5108 65.2218 47.1757 65.2218 49.8352V67.7868C65.2218 70.4463 62.9393 71.1111 61.798 71.1111H39.2011C38.0599 71.1111 35.7773 70.4463 35.7773 67.7868V49.8352C35.7773 47.1757 38.0599 46.5108 39.2011 46.5108H41.5978V38.5323C41.5978 35.6512 43.3781 29.8889 50.4996 29.8889C57.621 29.8889 59.4014 35.6512 59.4014 38.5323V46.5108H61.798ZM50.4996 33.2133C54.882 33.2133 55.9776 36.7593 55.9776 38.5323V46.5108H45.0215V38.5323C45.0215 36.7593 46.1171 33.2133 50.4996 33.2133ZM50.4996 62.4678C52.5796 62.4678 54.2657 60.8306 54.2657 58.811C54.2657 56.7914 52.5796 55.1541 50.4996 55.1541C48.4196 55.1541 46.7334 56.7914 46.7334 58.811C46.7334 60.8306 48.4196 62.4678 50.4996 62.4678Z" fill="#A26062"/>
</svg>
