<svg width="100" height="232" viewBox="0 0 100 232" fill="none" xmlns="http://www.w3.org/2000/svg">
<circle opacity="0.9" cx="50" cy="182" r="50" fill="white"/>
<path d="M37.9405 200.185C37.1827 200.185 35.667 199.769 35.667 198.107V166.93C35.667 166.237 36.1217 164.852 37.9405 164.852H44.761C45.5188 164.852 47.0345 165.268 47.0345 166.93V198.107C47.0345 198.8 46.5798 200.185 44.761 200.185H37.9405Z" fill="#A26062"/>
<path d="M56.1285 200.185C55.3707 200.185 53.855 199.769 53.855 198.107V166.93C53.855 166.237 54.3097 164.852 56.1285 164.852H62.949C63.7069 164.852 65.2225 165.267 65.2225 166.93V198.107C65.2225 198.799 64.7678 200.185 62.949 200.185H56.1285Z" fill="#A26062"/>
<circle cx="50" cy="50" r="50" fill="white"/>
<circle cx="49" cy="49" r="29" stroke="#A26062" stroke-width="4" stroke-linejoin="round"/>
<rect x="51" y="16" width="32" height="66" fill="white"/>
<circle cx="49" cy="49" r="29" stroke="#A26062" stroke-width="4" stroke-linejoin="round" stroke-dasharray="8 8"/>
<path d="M51.3906 38.125V61H48.5V41.7344L42.6719 43.8594V41.25L50.9375 38.125H51.3906Z" fill="#A26062"/>
</svg>
