<svg width="360" height="55" viewBox="0 0 360 55" fill="none" xmlns="http://www.w3.org/2000/svg">
<g filter="url(#filter0_d_88_815)">
<rect y="3" width="360" height="50" fill="white"/>
</g>
<path d="M22.1667 29.1667C22.5556 29.9444 23.9667 31.5 26.5 31.5C29.0333 31.5 30.4444 29.9444 30.8333 29.1667M37 26.5C37 32.299 32.299 37 26.5 37C20.701 37 16 32.299 16 26.5C16 20.701 20.701 16 26.5 16C32.299 16 37 20.701 37 26.5ZM30.5 24.6667C30.5 25.1269 30.2761 25.5 30 25.5C29.7239 25.5 29.5 25.1269 29.5 24.6667C29.5 24.2064 29.7239 23.8333 30 23.8333C30.2761 23.8333 30.5 24.2064 30.5 24.6667ZM23.5 24.6667C23.5 25.1269 23.2761 25.5 23 25.5C22.7239 25.5 22.5 25.1269 22.5 24.6667C22.5 24.2064 22.7239 23.8333 23 23.8333C23.2761 23.8333 23.5 24.2064 23.5 24.6667Z" stroke="#8E959B" stroke-width="1.5" stroke-linecap="round"/>
<path d="M49.7969 20.625H51.2578L54.9844 29.8984L58.7031 20.625H60.1719L55.5469 32H54.4062L49.7969 20.625ZM49.3203 20.625H50.6094L50.8203 27.5625V32H49.3203V20.625ZM59.3516 20.625H60.6406V32H59.1406V27.5625L59.3516 20.625ZM66.5781 32.1562C65.9896 32.1562 65.4557 32.0573 64.9766 31.8594C64.5026 31.6562 64.0938 31.3724 63.75 31.0078C63.4115 30.6432 63.151 30.2109 62.9688 29.7109C62.7865 29.2109 62.6953 28.6641 62.6953 28.0703V27.7422C62.6953 27.0547 62.7969 26.4427 63 25.9062C63.2031 25.3646 63.4792 24.9062 63.8281 24.5312C64.1771 24.1562 64.5729 23.8724 65.0156 23.6797C65.4583 23.487 65.9167 23.3906 66.3906 23.3906C66.9948 23.3906 67.5156 23.4948 67.9531 23.7031C68.3958 23.9115 68.7578 24.2031 69.0391 24.5781C69.3203 24.9479 69.5286 25.3854 69.6641 25.8906C69.7995 26.3906 69.8672 26.9375 69.8672 27.5312V28.1797H63.5547V27H68.4219V26.8906C68.401 26.5156 68.3229 26.151 68.1875 25.7969C68.0573 25.4427 67.849 25.151 67.5625 24.9219C67.276 24.6927 66.8854 24.5781 66.3906 24.5781C66.0625 24.5781 65.7604 24.6484 65.4844 24.7891C65.2083 24.9245 64.9714 25.1276 64.7734 25.3984C64.5755 25.6693 64.4219 26 64.3125 26.3906C64.2031 26.7812 64.1484 27.2318 64.1484 27.7422V28.0703C64.1484 28.4714 64.2031 28.849 64.3125 29.2031C64.4271 29.5521 64.5911 29.8594 64.8047 30.125C65.0234 30.3906 65.2865 30.599 65.5938 30.75C65.9062 30.901 66.2604 30.9766 66.6562 30.9766C67.1667 30.9766 67.599 30.8724 67.9531 30.6641C68.3073 30.4557 68.6172 30.1771 68.8828 29.8281L69.7578 30.5234C69.5755 30.7995 69.3438 31.0625 69.0625 31.3125C68.7812 31.5625 68.4349 31.7656 68.0234 31.9219C67.6172 32.0781 67.1354 32.1562 66.5781 32.1562ZM76.4766 29.7578C76.4766 29.5495 76.4297 29.3568 76.3359 29.1797C76.2474 28.9974 76.0625 28.8333 75.7812 28.6875C75.5052 28.5365 75.0885 28.4062 74.5312 28.2969C74.0625 28.1979 73.638 28.0807 73.2578 27.9453C72.8828 27.8099 72.5625 27.6458 72.2969 27.4531C72.0365 27.2604 71.8359 27.0339 71.6953 26.7734C71.5547 26.513 71.4844 26.2083 71.4844 25.8594C71.4844 25.526 71.5573 25.2109 71.7031 24.9141C71.8542 24.6172 72.0651 24.3542 72.3359 24.125C72.612 23.8958 72.9427 23.7161 73.3281 23.5859C73.7135 23.4557 74.1432 23.3906 74.6172 23.3906C75.2943 23.3906 75.8724 23.5104 76.3516 23.75C76.8307 23.9896 77.1979 24.3099 77.4531 24.7109C77.7083 25.1068 77.8359 25.5469 77.8359 26.0312H76.3906C76.3906 25.7969 76.3203 25.5703 76.1797 25.3516C76.0443 25.1276 75.8438 24.9427 75.5781 24.7969C75.3177 24.651 74.9974 24.5781 74.6172 24.5781C74.2161 24.5781 73.8906 24.6406 73.6406 24.7656C73.3958 24.8854 73.2161 25.0391 73.1016 25.2266C72.9922 25.4141 72.9375 25.612 72.9375 25.8203C72.9375 25.9766 72.9635 26.1172 73.0156 26.2422C73.0729 26.362 73.1719 26.474 73.3125 26.5781C73.4531 26.6771 73.651 26.7708 73.9062 26.8594C74.1615 26.9479 74.487 27.0365 74.8828 27.125C75.5755 27.2812 76.1458 27.4688 76.5938 27.6875C77.0417 27.9062 77.375 28.1745 77.5938 28.4922C77.8125 28.8099 77.9219 29.1953 77.9219 29.6484C77.9219 30.0182 77.8438 30.3568 77.6875 30.6641C77.5365 30.9714 77.3151 31.237 77.0234 31.4609C76.737 31.6797 76.3932 31.8516 75.9922 31.9766C75.5964 32.0964 75.151 32.1562 74.6562 32.1562C73.9115 32.1562 73.2812 32.0234 72.7656 31.7578C72.25 31.4922 71.8594 31.1484 71.5938 30.7266C71.3281 30.3047 71.1953 29.8594 71.1953 29.3906H72.6484C72.6693 29.7865 72.7839 30.1016 72.9922 30.3359C73.2005 30.5651 73.4557 30.7292 73.7578 30.8281C74.0599 30.9219 74.3594 30.9688 74.6562 30.9688C75.0521 30.9688 75.3828 30.9167 75.6484 30.8125C75.9193 30.7083 76.125 30.5651 76.2656 30.3828C76.4062 30.2005 76.4766 29.9922 76.4766 29.7578ZM84.7422 29.7578C84.7422 29.5495 84.6953 29.3568 84.6016 29.1797C84.513 28.9974 84.3281 28.8333 84.0469 28.6875C83.7708 28.5365 83.3542 28.4062 82.7969 28.2969C82.3281 28.1979 81.9036 28.0807 81.5234 27.9453C81.1484 27.8099 80.8281 27.6458 80.5625 27.4531C80.3021 27.2604 80.1016 27.0339 79.9609 26.7734C79.8203 26.513 79.75 26.2083 79.75 25.8594C79.75 25.526 79.8229 25.2109 79.9688 24.9141C80.1198 24.6172 80.3307 24.3542 80.6016 24.125C80.8776 23.8958 81.2083 23.7161 81.5938 23.5859C81.9792 23.4557 82.4089 23.3906 82.8828 23.3906C83.5599 23.3906 84.138 23.5104 84.6172 23.75C85.0964 23.9896 85.4635 24.3099 85.7188 24.7109C85.974 25.1068 86.1016 25.5469 86.1016 26.0312H84.6562C84.6562 25.7969 84.5859 25.5703 84.4453 25.3516C84.3099 25.1276 84.1094 24.9427 83.8438 24.7969C83.5833 24.651 83.263 24.5781 82.8828 24.5781C82.4818 24.5781 82.1562 24.6406 81.9062 24.7656C81.6615 24.8854 81.4818 25.0391 81.3672 25.2266C81.2578 25.4141 81.2031 25.612 81.2031 25.8203C81.2031 25.9766 81.2292 26.1172 81.2812 26.2422C81.3385 26.362 81.4375 26.474 81.5781 26.5781C81.7188 26.6771 81.9167 26.7708 82.1719 26.8594C82.4271 26.9479 82.7526 27.0365 83.1484 27.125C83.8411 27.2812 84.4115 27.4688 84.8594 27.6875C85.3073 27.9062 85.6406 28.1745 85.8594 28.4922C86.0781 28.8099 86.1875 29.1953 86.1875 29.6484C86.1875 30.0182 86.1094 30.3568 85.9531 30.6641C85.8021 30.9714 85.5807 31.237 85.2891 31.4609C85.0026 31.6797 84.6589 31.8516 84.2578 31.9766C83.862 32.0964 83.4167 32.1562 82.9219 32.1562C82.1771 32.1562 81.5469 32.0234 81.0312 31.7578C80.5156 31.4922 80.125 31.1484 79.8594 30.7266C79.5938 30.3047 79.4609 29.8594 79.4609 29.3906H80.9141C80.9349 29.7865 81.0495 30.1016 81.2578 30.3359C81.4661 30.5651 81.7214 30.7292 82.0234 30.8281C82.3255 30.9219 82.625 30.9688 82.9219 30.9688C83.3177 30.9688 83.6484 30.9167 83.9141 30.8125C84.1849 30.7083 84.3906 30.5651 84.5312 30.3828C84.6719 30.2005 84.7422 29.9922 84.7422 29.7578ZM93.0703 30.5547V26.2031C93.0703 25.8698 93.0026 25.5807 92.8672 25.3359C92.737 25.0859 92.5391 24.8932 92.2734 24.7578C92.0078 24.6224 91.6797 24.5547 91.2891 24.5547C90.9245 24.5547 90.6042 24.6172 90.3281 24.7422C90.0573 24.8672 89.8438 25.0312 89.6875 25.2344C89.5365 25.4375 89.4609 25.6562 89.4609 25.8906H88.0156C88.0156 25.5885 88.0938 25.2891 88.25 24.9922C88.4062 24.6953 88.6302 24.4271 88.9219 24.1875C89.2188 23.9427 89.5729 23.75 89.9844 23.6094C90.401 23.4635 90.8646 23.3906 91.375 23.3906C91.9896 23.3906 92.5312 23.4948 93 23.7031C93.474 23.9115 93.8438 24.2266 94.1094 24.6484C94.3802 25.0651 94.5156 25.5885 94.5156 26.2188V30.1562C94.5156 30.4375 94.5391 30.737 94.5859 31.0547C94.638 31.3724 94.7135 31.6458 94.8125 31.875V32H93.3047C93.2318 31.8333 93.1745 31.612 93.1328 31.3359C93.0911 31.0547 93.0703 30.7943 93.0703 30.5547ZM93.3203 26.875L93.3359 27.8906H91.875C91.4635 27.8906 91.0964 27.9245 90.7734 27.9922C90.4505 28.0547 90.1797 28.151 89.9609 28.2812C89.7422 28.4115 89.5755 28.5755 89.4609 28.7734C89.3464 28.9661 89.2891 29.1927 89.2891 29.4531C89.2891 29.7188 89.349 29.9609 89.4688 30.1797C89.5885 30.3984 89.7682 30.5729 90.0078 30.7031C90.2526 30.8281 90.5521 30.8906 90.9062 30.8906C91.349 30.8906 91.7396 30.7969 92.0781 30.6094C92.4167 30.4219 92.6849 30.1927 92.8828 29.9219C93.0859 29.651 93.1953 29.388 93.2109 29.1328L93.8281 29.8281C93.7917 30.0469 93.6927 30.2891 93.5312 30.5547C93.3698 30.8203 93.1536 31.0755 92.8828 31.3203C92.6172 31.5599 92.2995 31.7604 91.9297 31.9219C91.5651 32.0781 91.1536 32.1562 90.6953 32.1562C90.1224 32.1562 89.6198 32.0443 89.1875 31.8203C88.7604 31.5964 88.4271 31.2969 88.1875 30.9219C87.9531 30.5417 87.8359 30.1172 87.8359 29.6484C87.8359 29.1953 87.9245 28.7969 88.1016 28.4531C88.2786 28.1042 88.5339 27.8151 88.8672 27.5859C89.2005 27.3516 89.6016 27.1745 90.0703 27.0547C90.5391 26.9349 91.0625 26.875 91.6406 26.875H93.3203ZM102.266 23.5469H103.578V31.8203C103.578 32.5651 103.427 33.2005 103.125 33.7266C102.823 34.2526 102.401 34.651 101.859 34.9219C101.323 35.1979 100.703 35.3359 100 35.3359C99.7083 35.3359 99.3646 35.2891 98.9688 35.1953C98.5781 35.1068 98.1927 34.9531 97.8125 34.7344C97.4375 34.5208 97.1224 34.2318 96.8672 33.8672L97.625 33.0078C97.9792 33.4349 98.349 33.7318 98.7344 33.8984C99.125 34.0651 99.5104 34.1484 99.8906 34.1484C100.349 34.1484 100.745 34.0625 101.078 33.8906C101.411 33.7188 101.669 33.4635 101.852 33.125C102.039 32.7917 102.133 32.3802 102.133 31.8906V25.4062L102.266 23.5469ZM96.4453 27.8672V27.7031C96.4453 27.0573 96.5208 26.4714 96.6719 25.9453C96.8281 25.4141 97.0495 24.9583 97.3359 24.5781C97.6276 24.1979 97.9792 23.9062 98.3906 23.7031C98.8021 23.4948 99.2656 23.3906 99.7812 23.3906C100.312 23.3906 100.776 23.4844 101.172 23.6719C101.573 23.8542 101.911 24.1224 102.188 24.4766C102.469 24.8255 102.69 25.2474 102.852 25.7422C103.013 26.237 103.125 26.7969 103.188 27.4219V28.1406C103.13 28.7604 103.018 29.3177 102.852 29.8125C102.69 30.3073 102.469 30.7292 102.188 31.0781C101.911 31.4271 101.573 31.6953 101.172 31.8828C100.771 32.0651 100.302 32.1562 99.7656 32.1562C99.2604 32.1562 98.8021 32.0495 98.3906 31.8359C97.9844 31.6224 97.6354 31.3229 97.3438 30.9375C97.0521 30.5521 96.8281 30.099 96.6719 29.5781C96.5208 29.0521 96.4453 28.4818 96.4453 27.8672ZM97.8906 27.7031V27.8672C97.8906 28.2891 97.9323 28.6849 98.0156 29.0547C98.1042 29.4245 98.237 29.75 98.4141 30.0312C98.5964 30.3125 98.8281 30.5339 99.1094 30.6953C99.3906 30.8516 99.7266 30.9297 100.117 30.9297C100.596 30.9297 100.992 30.8281 101.305 30.625C101.617 30.4219 101.865 30.1536 102.047 29.8203C102.234 29.487 102.38 29.125 102.484 28.7344V26.8516C102.427 26.5651 102.339 26.2891 102.219 26.0234C102.104 25.7526 101.953 25.513 101.766 25.3047C101.583 25.0911 101.357 24.9219 101.086 24.7969C100.815 24.6719 100.497 24.6094 100.133 24.6094C99.737 24.6094 99.3958 24.6927 99.1094 24.8594C98.8281 25.0208 98.5964 25.2448 98.4141 25.5312C98.237 25.8125 98.1042 26.1406 98.0156 26.5156C97.9323 26.8854 97.8906 27.2812 97.8906 27.7031ZM109.281 32.1562C108.693 32.1562 108.159 32.0573 107.68 31.8594C107.206 31.6562 106.797 31.3724 106.453 31.0078C106.115 30.6432 105.854 30.2109 105.672 29.7109C105.49 29.2109 105.398 28.6641 105.398 28.0703V27.7422C105.398 27.0547 105.5 26.4427 105.703 25.9062C105.906 25.3646 106.182 24.9062 106.531 24.5312C106.88 24.1562 107.276 23.8724 107.719 23.6797C108.161 23.487 108.62 23.3906 109.094 23.3906C109.698 23.3906 110.219 23.4948 110.656 23.7031C111.099 23.9115 111.461 24.2031 111.742 24.5781C112.023 24.9479 112.232 25.3854 112.367 25.8906C112.503 26.3906 112.57 26.9375 112.57 27.5312V28.1797H106.258V27H111.125V26.8906C111.104 26.5156 111.026 26.151 110.891 25.7969C110.76 25.4427 110.552 25.151 110.266 24.9219C109.979 24.6927 109.589 24.5781 109.094 24.5781C108.766 24.5781 108.464 24.6484 108.188 24.7891C107.911 24.9245 107.674 25.1276 107.477 25.3984C107.279 25.6693 107.125 26 107.016 26.3906C106.906 26.7812 106.852 27.2318 106.852 27.7422V28.0703C106.852 28.4714 106.906 28.849 107.016 29.2031C107.13 29.5521 107.294 29.8594 107.508 30.125C107.727 30.3906 107.99 30.599 108.297 30.75C108.609 30.901 108.964 30.9766 109.359 30.9766C109.87 30.9766 110.302 30.8724 110.656 30.6641C111.01 30.4557 111.32 30.1771 111.586 29.8281L112.461 30.5234C112.279 30.7995 112.047 31.0625 111.766 31.3125C111.484 31.5625 111.138 31.7656 110.727 31.9219C110.32 32.0781 109.839 32.1562 109.281 32.1562Z" fill="#A3ACB3"/>
<path d="M281.278 24.8065L288 17.9825C294.012 11.971 303.029 20.9883 297.017 26.9998L288.333 35.6783C284.326 39.686 278.314 33.6745 282.322 29.6668L291.006 20.9883C292.995 19.0484 295.997 22.0968 294.345 23.994L286.038 32.4274" stroke="#868686" stroke-width="1.5" stroke-linecap="round"/>
<path d="M344 22.1667C344 17.3667 339.833 16 337.833 16H329.167C327.167 16 323 17.3667 323 22.1667V30.8333C323 35.6333 327.167 37 329.167 37H337.833C339.833 37 344 35.6333 344 30.8333V22.1667Z" stroke="#868686" stroke-width="1.5"/>
<path d="M338.5 26.5C338.5 29.2614 336.261 31.5 333.5 31.5C330.739 31.5 328.5 29.2614 328.5 26.5C328.5 23.7386 330.739 21.5 333.5 21.5C336.261 21.5 338.5 23.7386 338.5 26.5Z" stroke="#868686" stroke-width="1.5"/>
<defs>
<filter id="filter0_d_88_815" x="-2.00372" y="0.328372" width="364.007" height="54.0074" filterUnits="userSpaceOnUse" color-interpolation-filters="sRGB">
<feFlood flood-opacity="0" result="BackgroundImageFix"/>
<feColorMatrix in="SourceAlpha" type="matrix" values="0 0 0 0 0 0 0 0 0 0 0 0 0 0 0 0 0 0 127 0" result="hardAlpha"/>
<feOffset dy="-0.667907"/>
<feGaussianBlur stdDeviation="1.00186"/>
<feColorMatrix type="matrix" values="0 0 0 0 0 0 0 0 0 0 0 0 0 0 0 0 0 0 0.13 0"/>
<feBlend mode="normal" in2="BackgroundImageFix" result="effect1_dropShadow_88_815"/>
<feBlend mode="normal" in="SourceGraphic" in2="effect1_dropShadow_88_815" result="shape"/>
</filter>
</defs>
</svg>
