<svg width="227" height="227" viewBox="0 0 227 227" fill="none" xmlns="http://www.w3.org/2000/svg">
<path d="M94.1157 88.7725C94.1157 87.8854 94.1157 86.1111 97.2625 86.1111C101.308 86.111 146.262 109.177 149.409 111.839C151.927 113.968 150.754 116.274 149.405 117.161C146.259 119.822 100.878 142.875 97.2581 142.889C94.1113 142.889 94.1113 141.115 94.1113 140.227L97.2613 120.71C97.62 118.581 98.6103 118.049 99.0607 118.049L126.033 115.387C126.333 115.387 126.932 115.21 126.932 114.5C126.932 113.79 126.333 113.613 126.033 113.613L99.0607 110.951C98.6103 110.951 97.62 110.419 97.2613 108.29C96.2084 101.857 94.1157 89.6597 94.1157 88.7725Z" fill="white"/>
</svg>
