<svg width="227" height="227" viewBox="0 0 227 227" fill="none" xmlns="http://www.w3.org/2000/svg">
<path fill-rule="evenodd" clip-rule="evenodd" d="M104.854 87.1111H126.146C135.945 87.1111 143.889 95.0549 143.889 104.854V126.146C143.889 135.945 135.945 143.889 126.146 143.889H104.854C95.0552 143.889 87.1113 135.945 87.1113 126.146V104.854C87.1113 95.0549 95.0552 87.1111 104.854 87.1111ZM115.5 131.469C124.32 131.469 131.469 124.319 131.469 115.5C131.469 106.681 124.32 99.5312 115.5 99.5312C106.681 99.5312 99.5315 106.681 99.5315 115.5C99.5315 124.319 106.681 131.469 115.5 131.469Z" fill="white"/>
<path d="M127.033 115.5C127.033 121.869 121.87 127.033 115.5 127.033C109.131 127.033 103.967 121.869 103.967 115.5C103.967 109.13 109.131 103.967 115.5 103.967C121.87 103.967 127.033 109.13 127.033 115.5Z" fill="white"/>
</svg>
