<svg width="360" height="28" viewBox="0 0 360 28" fill="none" xmlns="http://www.w3.org/2000/svg">
<path fill-rule="evenodd" clip-rule="evenodd" d="M332 8C331.448 8 331 8.44772 331 9V20C331 20.5523 331.448 21 332 21H339C339.552 21 340 20.5523 340 20V9C340 8.44772 339.552 8 339 8H338C337.724 8 337.5 7.77614 337.5 7.5C337.5 7.22386 337.276 7 337 7H334C333.724 7 333.5 7.22386 333.5 7.5C333.5 7.77614 333.276 8 333 8H332Z" fill="white"/>
<path fill-rule="evenodd" clip-rule="evenodd" d="M295 21C295.552 21 296 20.5523 296 20V9.41421C296 8.52331 294.923 8.07714 294.293 8.70711L283.707 19.2929C283.077 19.9229 283.523 21 284.414 21H295Z" fill="white"/>
<path fill-rule="evenodd" clip-rule="evenodd" d="M314.774 20.0541C314.374 20.5431 313.626 20.5431 313.226 20.0541L305.619 10.7564C305.275 10.3359 305.336 9.72441 305.79 9.4262C307.117 8.5553 310.04 7 314 7C317.96 7 320.883 8.5553 322.21 9.4262C322.664 9.72441 322.725 10.3359 322.381 10.7564L314.774 20.0541Z" fill="white"/>
<path d="M20.875 8.72607V18H19.3452V10.5415L17.0791 11.3096V10.0464L20.6909 8.72607H20.875ZM30.4822 16.7812V18H24.2869V16.9526L27.2957 13.6709C27.6258 13.2985 27.886 12.9769 28.0765 12.7061C28.2669 12.4352 28.4002 12.1919 28.4764 11.9761C28.5568 11.756 28.597 11.5423 28.597 11.335C28.597 11.043 28.542 10.7869 28.4319 10.5669C28.3261 10.3426 28.1696 10.167 27.9622 10.04C27.7549 9.90885 27.5031 9.84326 27.2068 9.84326C26.8641 9.84326 26.5763 9.91732 26.3436 10.0654C26.1108 10.2135 25.9352 10.4188 25.8167 10.6812C25.6982 10.9393 25.639 11.2355 25.639 11.5698H24.1092C24.1092 11.0324 24.2319 10.5415 24.4773 10.0972C24.7228 9.6486 25.0783 9.29313 25.5437 9.03076C26.0092 8.76416 26.57 8.63086 27.2259 8.63086C27.8437 8.63086 28.3685 8.73454 28.8001 8.94189C29.2317 9.14925 29.5597 9.44336 29.784 9.82422C30.0125 10.2051 30.1268 10.6558 30.1268 11.1763C30.1268 11.464 30.0802 11.7497 29.9871 12.0332C29.894 12.3167 29.7607 12.6003 29.5872 12.8838C29.4179 13.1631 29.2169 13.4445 28.9842 13.728C28.7514 14.0073 28.4954 14.2909 28.2161 14.5786L26.2166 16.7812H30.4822ZM31.9835 17.2383C31.9835 17.0013 32.0639 16.8024 32.2247 16.6416C32.3855 16.4766 32.6035 16.394 32.8785 16.394C33.1578 16.394 33.3757 16.4766 33.5323 16.6416C33.6931 16.8024 33.7735 17.0013 33.7735 17.2383C33.7735 17.4753 33.6931 17.6742 33.5323 17.835C33.3757 17.9958 33.1578 18.0762 32.8785 18.0762C32.6035 18.0762 32.3855 17.9958 32.2247 17.835C32.0639 17.6742 31.9835 17.4753 31.9835 17.2383ZM31.9898 11.8301C31.9898 11.5931 32.0702 11.3942 32.2311 11.2334C32.3919 11.0684 32.6098 10.9858 32.8849 10.9858C33.1642 10.9858 33.3821 11.0684 33.5387 11.2334C33.6995 11.3942 33.7799 11.5931 33.7799 11.8301C33.7799 12.0671 33.6995 12.266 33.5387 12.4268C33.3821 12.5876 33.1642 12.668 32.8849 12.668C32.6098 12.668 32.3919 12.5876 32.2311 12.4268C32.0702 12.266 31.9898 12.0671 31.9898 11.8301ZM37.2997 12.687H38.2138C38.5692 12.687 38.8633 12.6257 39.0961 12.5029C39.3331 12.3802 39.5087 12.2109 39.6229 11.9951C39.7372 11.7793 39.7943 11.5317 39.7943 11.2524C39.7943 10.9604 39.7414 10.7108 39.6356 10.5034C39.5341 10.2918 39.3775 10.1289 39.1659 10.0146C38.9586 9.90039 38.6941 9.84326 38.3725 9.84326C38.1016 9.84326 37.8562 9.89827 37.6361 10.0083C37.4203 10.1141 37.2489 10.2664 37.122 10.4653C36.995 10.66 36.9315 10.8927 36.9315 11.1636H35.3954C35.3954 10.6727 35.5245 10.2368 35.7826 9.85596C36.0408 9.4751 36.392 9.17676 36.8363 8.96094C37.2849 8.74089 37.7885 8.63086 38.3471 8.63086C38.9438 8.63086 39.4643 8.73031 39.9086 8.9292C40.3572 9.12386 40.7063 9.41585 40.956 9.80518C41.2056 10.1945 41.3305 10.6769 41.3305 11.2524C41.3305 11.5148 41.2691 11.7814 41.1464 12.0522C41.0237 12.3231 40.8417 12.5706 40.6005 12.7949C40.3593 13.015 40.0588 13.1948 39.6991 13.3345C39.3394 13.4699 38.9226 13.5376 38.4486 13.5376H37.2997V12.687ZM37.2997 13.8804V13.0425H38.4486C38.9903 13.0425 39.4516 13.106 39.8324 13.2329C40.2175 13.3599 40.5307 13.5355 40.7719 13.7598C41.0131 13.9798 41.1887 14.2316 41.2987 14.5151C41.413 14.7987 41.4701 15.0991 41.4701 15.4165C41.4701 15.8481 41.3918 16.2332 41.2353 16.5718C41.0829 16.9061 40.865 17.1896 40.5814 17.4224C40.2979 17.6551 39.9657 17.8307 39.5849 17.9492C39.2082 18.0677 38.7978 18.127 38.3534 18.127C37.9556 18.127 37.5748 18.0719 37.2108 17.9619C36.8469 17.8519 36.5211 17.689 36.2333 17.4731C35.9455 17.2531 35.717 16.9801 35.5478 16.6543C35.3827 16.3242 35.3002 15.9434 35.3002 15.5117H36.83C36.83 15.7868 36.8935 16.0301 37.0204 16.2417C37.1516 16.4491 37.3336 16.612 37.5663 16.7305C37.8033 16.849 38.0741 16.9082 38.3788 16.9082C38.7004 16.9082 38.9776 16.8511 39.2104 16.7368C39.4431 16.6226 39.6208 16.4533 39.7436 16.229C39.8705 16.0047 39.934 15.7339 39.934 15.4165C39.934 15.0568 39.8642 14.7648 39.7245 14.5405C39.5849 14.3162 39.386 14.1512 39.1278 14.0454C38.8697 13.9354 38.565 13.8804 38.2138 13.8804H37.2997ZM49.1159 12.6045V14.1152C49.1159 14.8389 49.044 15.4567 48.9001 15.9688C48.7604 16.4766 48.5573 16.8892 48.2907 17.2065C48.0241 17.5239 47.7046 17.7567 47.3322 17.9048C46.9641 18.0529 46.5515 18.127 46.0944 18.127C45.7305 18.127 45.392 18.0804 45.0788 17.9873C44.7699 17.8942 44.4906 17.7482 44.2409 17.5493C43.9912 17.3504 43.7775 17.0944 43.5998 16.7812C43.4263 16.4639 43.2909 16.0851 43.1936 15.645C43.1005 15.2049 43.0539 14.695 43.0539 14.1152V12.6045C43.0539 11.8766 43.1258 11.263 43.2697 10.7637C43.4136 10.2601 43.6188 9.85173 43.8854 9.53857C44.1521 9.22119 44.4694 8.99056 44.8376 8.84668C45.21 8.7028 45.6247 8.63086 46.0817 8.63086C46.4499 8.63086 46.7884 8.67741 47.0974 8.77051C47.4105 8.85938 47.6898 9.00114 47.9353 9.1958C48.1849 9.39046 48.3965 9.64437 48.57 9.95752C48.7478 10.2664 48.8832 10.641 48.9763 11.0811C49.0694 11.5169 49.1159 12.0247 49.1159 12.6045ZM47.5861 14.3311V12.376C47.5861 12.0078 47.565 11.6841 47.5227 11.4048C47.4803 11.1213 47.4169 10.8822 47.3322 10.6875C47.2518 10.4886 47.1503 10.3278 47.0275 10.2051C46.9048 10.0781 46.7652 9.98714 46.6086 9.93213C46.452 9.87288 46.2764 9.84326 46.0817 9.84326C45.8448 9.84326 45.6332 9.88981 45.447 9.98291C45.2608 10.0718 45.1042 10.2157 44.9772 10.4146C44.8503 10.6134 44.753 10.8758 44.6853 11.2017C44.6218 11.5233 44.59 11.9147 44.59 12.376V14.3311C44.59 14.7035 44.6112 15.0314 44.6535 15.3149C44.6958 15.5985 44.7593 15.8418 44.8439 16.0449C44.9286 16.2438 45.0301 16.4089 45.1486 16.54C45.2714 16.667 45.411 16.7601 45.5676 16.8193C45.7284 16.8786 45.904 16.9082 46.0944 16.9082C46.3356 16.9082 46.5493 16.8617 46.7355 16.7686C46.9217 16.6755 47.0783 16.5273 47.2053 16.3242C47.3322 16.1169 47.4274 15.8481 47.4909 15.5181C47.5544 15.188 47.5861 14.7923 47.5861 14.3311Z" fill="white"/>
</svg>
