<svg width="1080" height="260" viewBox="0 0 1080 260" fill="none" xmlns="http://www.w3.org/2000/svg">
<rect y="122" width="1080" height="138" fill="white"/>
<path d="M480.672 196.279H485.799C485.635 198.234 485.088 199.978 484.158 201.509C483.229 203.026 481.923 204.223 480.241 205.098C478.56 205.973 476.516 206.41 474.109 206.41C472.264 206.41 470.603 206.082 469.126 205.426C467.649 204.756 466.385 203.812 465.332 202.596C464.279 201.365 463.473 199.882 462.912 198.146C462.365 196.409 462.092 194.468 462.092 192.321V189.84C462.092 187.693 462.372 185.752 462.933 184.016C463.507 182.279 464.327 180.796 465.394 179.565C466.46 178.321 467.738 177.371 469.229 176.715C470.732 176.059 472.421 175.73 474.294 175.73C476.673 175.73 478.683 176.168 480.323 177.043C481.964 177.918 483.235 179.128 484.138 180.673C485.054 182.218 485.614 183.988 485.819 185.984H480.692C480.556 184.699 480.255 183.599 479.79 182.683C479.339 181.767 478.669 181.069 477.78 180.591C476.892 180.099 475.729 179.853 474.294 179.853C473.118 179.853 472.093 180.071 471.218 180.509C470.343 180.946 469.611 181.589 469.023 182.437C468.436 183.284 467.991 184.33 467.69 185.574C467.403 186.805 467.26 188.213 467.26 189.799V192.321C467.26 193.825 467.39 195.192 467.649 196.423C467.923 197.64 468.333 198.686 468.88 199.561C469.44 200.436 470.151 201.112 471.013 201.591C471.874 202.069 472.906 202.309 474.109 202.309C475.572 202.309 476.755 202.076 477.657 201.611C478.573 201.146 479.264 200.47 479.729 199.581C480.207 198.679 480.521 197.578 480.672 196.279ZM502.103 180.119L493.182 206H487.788L499.026 176.141H502.472L502.103 180.119ZM509.567 206L500.626 180.119L500.236 176.141H503.702L514.981 206H509.567ZM509.137 194.926V199.007H492.895V194.926H509.137ZM542.011 176.141V206H536.863L523.472 184.61V206H518.324V176.141H523.472L536.904 197.571V176.141H542.011ZM565.779 196.279H570.906C570.742 198.234 570.195 199.978 569.266 201.509C568.336 203.026 567.03 204.223 565.349 205.098C563.667 205.973 561.623 206.41 559.217 206.41C557.371 206.41 555.71 206.082 554.233 205.426C552.757 204.756 551.492 203.812 550.439 202.596C549.387 201.365 548.58 199.882 548.02 198.146C547.473 196.409 547.199 194.468 547.199 192.321V189.84C547.199 187.693 547.479 185.752 548.04 184.016C548.614 182.279 549.435 180.796 550.501 179.565C551.567 178.321 552.846 177.371 554.336 176.715C555.84 176.059 557.528 175.73 559.401 175.73C561.78 175.73 563.79 176.168 565.431 177.043C567.071 177.918 568.343 179.128 569.245 180.673C570.161 182.218 570.722 183.988 570.927 185.984H565.8C565.663 184.699 565.362 183.599 564.897 182.683C564.446 181.767 563.776 181.069 562.888 180.591C561.999 180.099 560.837 179.853 559.401 179.853C558.226 179.853 557.2 180.071 556.325 180.509C555.45 180.946 554.719 181.589 554.131 182.437C553.543 183.284 553.099 184.33 552.798 185.574C552.511 186.805 552.367 188.213 552.367 189.799V192.321C552.367 193.825 552.497 195.192 552.757 196.423C553.03 197.64 553.44 198.686 553.987 199.561C554.548 200.436 555.259 201.112 556.12 201.591C556.981 202.069 558.014 202.309 559.217 202.309C560.68 202.309 561.862 202.076 562.765 201.611C563.681 201.146 564.371 200.47 564.836 199.581C565.314 198.679 565.629 197.578 565.779 196.279ZM595.126 201.919V206H579.273V201.919H595.126ZM580.729 176.141V206H575.582V176.141H580.729ZM593.055 188.609V192.629H579.273V188.609H593.055ZM595.023 176.141V180.242H579.273V176.141H595.023ZM618.033 201.919V206H603.042V201.919H618.033ZM604.478 176.141V206H599.33V176.141H604.478Z" fill="#A26062"/>
<circle cx="74" cy="190" r="14" fill="#E4524B"/>
<path d="M150.032 11.1922C151.413 11.1922 152.532 10.0729 152.532 8.69224C152.532 7.31152 151.413 6.19224 150.032 6.19224L150.032 11.1922ZM146.501 56.4999L148.803 57.4747L148.828 57.4151L148.85 57.3542L146.501 56.4999ZM77.8464 27.9229L75.3844 27.4885L75.3844 27.4885L77.8464 27.9229ZM133.616 8.69224L133.616 6.19224C132.235 6.19224 131.116 7.31153 131.116 8.69224L133.616 8.69224ZM131.116 26.9615C131.116 28.3422 132.235 29.4615 133.616 29.4615C134.996 29.4615 136.116 28.3422 136.116 26.9615L131.116 26.9615ZM123.683 7.36238C124.988 7.81402 126.411 7.12242 126.863 5.81767C127.315 4.51291 126.623 3.08907 125.318 2.63744L123.683 7.36238ZM74.0003 65.8076C72.6195 65.8076 71.5003 66.9269 71.5003 68.3076C71.5003 69.6883 72.6195 70.8076 74.0003 70.8076L74.0003 65.8076ZM91.3079 68.3076L91.3079 70.8076C91.971 70.8076 92.6069 70.5442 93.0757 70.0754C93.5446 69.6065 93.8079 68.9707 93.8079 68.3076L91.3079 68.3076ZM93.808 51.9615C93.808 50.5808 92.6887 49.4615 91.308 49.4615C89.9272 49.4615 88.808 50.5808 88.808 51.9615L93.808 51.9615ZM101.551 70.5612C100.205 70.2572 98.8662 71.1025 98.5622 72.4493C98.2581 73.7961 99.1034 75.1344 100.45 75.4385L101.551 70.5612ZM150.032 6.19224L133.616 6.19224L133.616 11.1922L150.032 11.1922L150.032 6.19224ZM131.116 8.69224L131.116 26.9615L136.116 26.9615L136.116 8.69224L131.116 8.69224ZM132.214 10.7625C138.575 15.0686 143.414 21.0773 145.754 28.534C148.092 35.986 147.994 45.0769 144.151 55.6455L148.85 57.3542C153.007 45.9228 153.241 35.6959 150.524 27.0371C147.809 18.3831 142.205 11.4879 135.017 6.62199L132.214 10.7625ZM80.3083 28.3574C81.2632 22.9464 85.9405 15.5192 93.6101 10.5225C101.155 5.60704 111.469 3.13481 123.683 7.36238L125.318 2.63744C111.531 -2.1349 99.6148 0.642837 90.8807 6.33313C82.2714 11.9421 76.6219 20.4763 75.3844 27.4885L80.3083 28.3574ZM74.0003 70.8076L91.3079 70.8076L91.3079 65.8076L74.0003 65.8076L74.0003 70.8076ZM144.199 55.525C139.759 66.0102 126.223 76.1312 101.551 70.5612L100.45 75.4385C127.01 81.4346 143.243 70.605 148.803 57.4747L144.199 55.525ZM93.8079 68.3076L93.808 51.9615L88.808 51.9615L88.8079 68.3076L93.8079 68.3076ZM93.0757 66.5399C87.0045 60.4686 83.1838 54.7794 81.1797 48.7671C79.1799 42.7677 78.9183 36.2345 80.3083 28.3574L75.3844 27.4885C73.8899 35.9577 74.1092 43.3669 76.4363 50.3482C78.7591 57.3167 83.1114 63.6466 89.5402 70.0754L93.0757 66.5399Z" fill="white"/>
<path d="M126.778 37.9658C126.778 45.6364 120.56 51.8547 112.889 51.8547C105.218 51.8547 99 45.6364 99 37.9658C99 30.2952 105.218 24.0769 112.889 24.0769C120.56 24.0769 126.778 30.2952 126.778 37.9658Z" stroke="white" stroke-width="5"/>
</svg>
